G04 (created by PCBNEW (2013-07-07 BZR 4022)-stable) date 2/24/2014 11:30:39 AM*
%MOIN*%
G04 Gerber Fmt 3.4, Leading zero omitted, Abs format*
%FSLAX34Y34*%
G01*
G70*
G90*
G04 APERTURE LIST*
%ADD10C,0.00590551*%
%ADD11C,0.055*%
%ADD12C,0.0590551*%
%ADD13R,0.0590551X0.0590551*%
%ADD14R,0.055X0.055*%
G04 APERTURE END LIST*
G54D10*
G54D11*
X53000Y-25000D03*
X50000Y-25000D03*
G54D12*
X56600Y-30400D03*
X54600Y-30400D03*
X55600Y-32400D03*
G54D13*
X44000Y-33000D03*
G54D12*
X45000Y-33000D03*
X46000Y-33000D03*
X47000Y-33000D03*
X48000Y-33000D03*
X48000Y-27000D03*
X47000Y-27000D03*
X46000Y-27000D03*
X45000Y-27000D03*
X44000Y-27000D03*
G54D14*
X55500Y-25000D03*
G54D11*
X55500Y-26000D03*
G54D13*
X58500Y-22500D03*
G54D12*
X58500Y-21500D03*
X57500Y-22500D03*
X57500Y-21500D03*
X56500Y-22500D03*
X56500Y-21500D03*
X55500Y-22500D03*
X55500Y-21500D03*
X54500Y-22500D03*
X54500Y-21500D03*
X53500Y-22500D03*
X53500Y-21500D03*
X52500Y-22500D03*
X52500Y-21500D03*
X51500Y-22500D03*
X51500Y-21500D03*
X50500Y-22500D03*
X50500Y-21500D03*
X49500Y-22500D03*
X49500Y-21500D03*
X48500Y-22500D03*
X48500Y-21500D03*
X47500Y-22500D03*
X47500Y-21500D03*
X46500Y-22500D03*
X46500Y-21500D03*
X45500Y-22500D03*
X45500Y-21500D03*
X44500Y-22500D03*
X44500Y-21500D03*
X43500Y-22500D03*
X43500Y-21500D03*
X42500Y-22500D03*
X42500Y-21500D03*
M02*
