G04 (created by PCBNEW (2013-07-07 BZR 4022)-stable) date 2/24/2014 11:30:39 AM*
%MOIN*%
G04 Gerber Fmt 3.4, Leading zero omitted, Abs format*
%FSLAX34Y34*%
G01*
G70*
G90*
G04 APERTURE LIST*
%ADD10C,0.00590551*%
%ADD11C,0.055*%
%ADD12C,0.0590551*%
%ADD13R,0.0590551X0.0590551*%
%ADD14R,0.055X0.055*%
%ADD15C,0.035*%
%ADD16C,0.01*%
G04 APERTURE END LIST*
G54D10*
G54D11*
X53000Y-25000D03*
X50000Y-25000D03*
G54D12*
X56600Y-30400D03*
X54600Y-30400D03*
X55600Y-32400D03*
G54D13*
X44000Y-33000D03*
G54D12*
X45000Y-33000D03*
X46000Y-33000D03*
X47000Y-33000D03*
X48000Y-33000D03*
X48000Y-27000D03*
X47000Y-27000D03*
X46000Y-27000D03*
X45000Y-27000D03*
X44000Y-27000D03*
G54D14*
X55500Y-25000D03*
G54D11*
X55500Y-26000D03*
G54D13*
X58500Y-22500D03*
G54D12*
X58500Y-21500D03*
X57500Y-22500D03*
X57500Y-21500D03*
X56500Y-22500D03*
X56500Y-21500D03*
X55500Y-22500D03*
X55500Y-21500D03*
X54500Y-22500D03*
X54500Y-21500D03*
X53500Y-22500D03*
X53500Y-21500D03*
X52500Y-22500D03*
X52500Y-21500D03*
X51500Y-22500D03*
X51500Y-21500D03*
X50500Y-22500D03*
X50500Y-21500D03*
X49500Y-22500D03*
X49500Y-21500D03*
X48500Y-22500D03*
X48500Y-21500D03*
X47500Y-22500D03*
X47500Y-21500D03*
X46500Y-22500D03*
X46500Y-21500D03*
X45500Y-22500D03*
X45500Y-21500D03*
X44500Y-22500D03*
X44500Y-21500D03*
X43500Y-22500D03*
X43500Y-21500D03*
X42500Y-22500D03*
X42500Y-21500D03*
G54D15*
X52500Y-27500D03*
G54D16*
X55500Y-26000D02*
X54000Y-26000D01*
X54000Y-26000D02*
X52500Y-27500D01*
X53000Y-25000D02*
X55500Y-25000D01*
X55500Y-31000D02*
X55500Y-32300D01*
X55500Y-28000D02*
X56500Y-26500D01*
X56500Y-26500D02*
X56500Y-26000D01*
X56500Y-22500D02*
X56500Y-26000D01*
X55500Y-31000D02*
X55500Y-28000D01*
X55500Y-32300D02*
X55600Y-32400D01*
X47000Y-33000D02*
X47000Y-30500D01*
X51500Y-26000D02*
X51500Y-22500D01*
X47000Y-30500D02*
X51500Y-26000D01*
X45000Y-33000D02*
X45000Y-32500D01*
X49000Y-24000D02*
X50500Y-22500D01*
X43000Y-24000D02*
X49000Y-24000D01*
X42500Y-24500D02*
X43000Y-24000D01*
X42500Y-32000D02*
X42500Y-24500D01*
X44500Y-32000D02*
X42500Y-32000D01*
X45000Y-32500D02*
X44500Y-32000D01*
X44000Y-33000D02*
X42500Y-33000D01*
X48500Y-23500D02*
X49500Y-22500D01*
X42500Y-23500D02*
X48500Y-23500D01*
X42000Y-24000D02*
X42500Y-23500D01*
X42000Y-32500D02*
X42000Y-24000D01*
X42500Y-33000D02*
X42000Y-32500D01*
G54D10*
G36*
X59230Y-35230D02*
X57145Y-35230D01*
X57145Y-30292D01*
X57062Y-30091D01*
X56909Y-29938D01*
X56708Y-29854D01*
X56492Y-29854D01*
X56291Y-29937D01*
X56138Y-30090D01*
X56054Y-30291D01*
X56054Y-30507D01*
X56137Y-30708D01*
X56290Y-30861D01*
X56491Y-30945D01*
X56707Y-30945D01*
X56908Y-30862D01*
X57061Y-30709D01*
X57145Y-30508D01*
X57145Y-30292D01*
X57145Y-35230D01*
X46311Y-35230D01*
X46311Y-33382D01*
X46000Y-33070D01*
X45688Y-33382D01*
X45714Y-33477D01*
X45919Y-33550D01*
X46136Y-33539D01*
X46285Y-33477D01*
X46311Y-33382D01*
X46311Y-35230D01*
X41769Y-35230D01*
X41769Y-32684D01*
X41787Y-32712D01*
X42287Y-33212D01*
X42287Y-33212D01*
X42385Y-33277D01*
X42500Y-33300D01*
X43454Y-33300D01*
X43454Y-33344D01*
X43492Y-33436D01*
X43562Y-33507D01*
X43654Y-33545D01*
X43754Y-33545D01*
X44344Y-33545D01*
X44436Y-33507D01*
X44507Y-33437D01*
X44545Y-33345D01*
X44545Y-33316D01*
X44690Y-33461D01*
X44891Y-33545D01*
X45107Y-33545D01*
X45308Y-33462D01*
X45461Y-33309D01*
X45497Y-33224D01*
X45522Y-33285D01*
X45617Y-33311D01*
X45929Y-33000D01*
X45617Y-32688D01*
X45522Y-32714D01*
X45499Y-32780D01*
X45462Y-32691D01*
X45309Y-32538D01*
X45300Y-32534D01*
X45300Y-32500D01*
X45277Y-32385D01*
X45212Y-32287D01*
X45212Y-32287D01*
X44712Y-31787D01*
X44614Y-31722D01*
X44500Y-31700D01*
X42800Y-31700D01*
X42800Y-24624D01*
X43124Y-24300D01*
X49000Y-24300D01*
X49000Y-24299D01*
X49114Y-24277D01*
X49114Y-24277D01*
X49212Y-24212D01*
X50382Y-23041D01*
X50391Y-23045D01*
X50607Y-23045D01*
X50808Y-22962D01*
X50961Y-22809D01*
X50999Y-22717D01*
X51037Y-22808D01*
X51190Y-22961D01*
X51200Y-22965D01*
X51200Y-25875D01*
X50525Y-26550D01*
X50525Y-24896D01*
X50445Y-24703D01*
X50297Y-24555D01*
X50104Y-24475D01*
X49896Y-24474D01*
X49703Y-24554D01*
X49555Y-24702D01*
X49475Y-24895D01*
X49474Y-25103D01*
X49554Y-25297D01*
X49702Y-25444D01*
X49895Y-25524D01*
X50103Y-25525D01*
X50297Y-25445D01*
X50444Y-25297D01*
X50524Y-25104D01*
X50525Y-24896D01*
X50525Y-26550D01*
X48545Y-28530D01*
X48545Y-26892D01*
X48462Y-26691D01*
X48309Y-26538D01*
X48108Y-26454D01*
X47892Y-26454D01*
X47691Y-26537D01*
X47538Y-26690D01*
X47500Y-26782D01*
X47462Y-26691D01*
X47309Y-26538D01*
X47108Y-26454D01*
X46892Y-26454D01*
X46691Y-26537D01*
X46538Y-26690D01*
X46502Y-26775D01*
X46477Y-26714D01*
X46382Y-26688D01*
X46311Y-26758D01*
X46311Y-26617D01*
X46285Y-26522D01*
X46080Y-26449D01*
X45863Y-26460D01*
X45714Y-26522D01*
X45688Y-26617D01*
X46000Y-26929D01*
X46311Y-26617D01*
X46311Y-26758D01*
X46070Y-27000D01*
X46382Y-27311D01*
X46477Y-27285D01*
X46500Y-27219D01*
X46537Y-27308D01*
X46690Y-27461D01*
X46891Y-27545D01*
X47107Y-27545D01*
X47308Y-27462D01*
X47461Y-27309D01*
X47499Y-27217D01*
X47537Y-27308D01*
X47690Y-27461D01*
X47891Y-27545D01*
X48107Y-27545D01*
X48308Y-27462D01*
X48461Y-27309D01*
X48545Y-27108D01*
X48545Y-26892D01*
X48545Y-28530D01*
X46787Y-30287D01*
X46722Y-30385D01*
X46700Y-30500D01*
X46700Y-32533D01*
X46691Y-32537D01*
X46538Y-32690D01*
X46502Y-32775D01*
X46477Y-32714D01*
X46382Y-32688D01*
X46311Y-32758D01*
X46311Y-32617D01*
X46311Y-27382D01*
X46000Y-27070D01*
X45929Y-27141D01*
X45929Y-27000D01*
X45617Y-26688D01*
X45522Y-26714D01*
X45499Y-26780D01*
X45462Y-26691D01*
X45309Y-26538D01*
X45108Y-26454D01*
X44892Y-26454D01*
X44691Y-26537D01*
X44538Y-26690D01*
X44500Y-26782D01*
X44462Y-26691D01*
X44309Y-26538D01*
X44108Y-26454D01*
X43892Y-26454D01*
X43691Y-26537D01*
X43538Y-26690D01*
X43454Y-26891D01*
X43454Y-27107D01*
X43537Y-27308D01*
X43690Y-27461D01*
X43891Y-27545D01*
X44107Y-27545D01*
X44308Y-27462D01*
X44461Y-27309D01*
X44499Y-27217D01*
X44537Y-27308D01*
X44690Y-27461D01*
X44891Y-27545D01*
X45107Y-27545D01*
X45308Y-27462D01*
X45461Y-27309D01*
X45497Y-27224D01*
X45522Y-27285D01*
X45617Y-27311D01*
X45929Y-27000D01*
X45929Y-27141D01*
X45688Y-27382D01*
X45714Y-27477D01*
X45919Y-27550D01*
X46136Y-27539D01*
X46285Y-27477D01*
X46311Y-27382D01*
X46311Y-32617D01*
X46285Y-32522D01*
X46080Y-32449D01*
X45863Y-32460D01*
X45714Y-32522D01*
X45688Y-32617D01*
X46000Y-32929D01*
X46311Y-32617D01*
X46311Y-32758D01*
X46070Y-33000D01*
X46382Y-33311D01*
X46477Y-33285D01*
X46500Y-33219D01*
X46537Y-33308D01*
X46690Y-33461D01*
X46891Y-33545D01*
X47107Y-33545D01*
X47308Y-33462D01*
X47461Y-33309D01*
X47499Y-33217D01*
X47537Y-33308D01*
X47690Y-33461D01*
X47891Y-33545D01*
X48107Y-33545D01*
X48308Y-33462D01*
X48461Y-33309D01*
X48545Y-33108D01*
X48545Y-32892D01*
X48462Y-32691D01*
X48309Y-32538D01*
X48108Y-32454D01*
X47892Y-32454D01*
X47691Y-32537D01*
X47538Y-32690D01*
X47500Y-32782D01*
X47462Y-32691D01*
X47309Y-32538D01*
X47300Y-32534D01*
X47300Y-30624D01*
X51712Y-26212D01*
X51777Y-26114D01*
X51777Y-26114D01*
X51799Y-26000D01*
X51800Y-26000D01*
X51800Y-22966D01*
X51808Y-22962D01*
X51961Y-22809D01*
X51999Y-22717D01*
X52037Y-22808D01*
X52190Y-22961D01*
X52391Y-23045D01*
X52607Y-23045D01*
X52808Y-22962D01*
X52961Y-22809D01*
X52999Y-22717D01*
X53037Y-22808D01*
X53190Y-22961D01*
X53391Y-23045D01*
X53607Y-23045D01*
X53808Y-22962D01*
X53961Y-22809D01*
X53999Y-22717D01*
X54037Y-22808D01*
X54190Y-22961D01*
X54391Y-23045D01*
X54607Y-23045D01*
X54808Y-22962D01*
X54961Y-22809D01*
X54999Y-22717D01*
X55037Y-22808D01*
X55190Y-22961D01*
X55391Y-23045D01*
X55607Y-23045D01*
X55808Y-22962D01*
X55961Y-22809D01*
X55999Y-22717D01*
X56037Y-22808D01*
X56190Y-22961D01*
X56200Y-22965D01*
X56200Y-26000D01*
X56200Y-26409D01*
X56025Y-26671D01*
X56025Y-25896D01*
X55945Y-25703D01*
X55797Y-25555D01*
X55725Y-25525D01*
X55824Y-25525D01*
X55916Y-25487D01*
X55986Y-25416D01*
X56024Y-25324D01*
X56025Y-25225D01*
X56025Y-24675D01*
X55987Y-24583D01*
X55916Y-24513D01*
X55824Y-24475D01*
X55725Y-24474D01*
X55175Y-24474D01*
X55083Y-24512D01*
X55013Y-24583D01*
X54975Y-24675D01*
X54975Y-24700D01*
X53442Y-24700D01*
X53297Y-24555D01*
X53104Y-24475D01*
X52896Y-24474D01*
X52703Y-24554D01*
X52555Y-24702D01*
X52475Y-24895D01*
X52474Y-25103D01*
X52554Y-25297D01*
X52702Y-25444D01*
X52895Y-25524D01*
X53103Y-25525D01*
X53297Y-25445D01*
X53442Y-25300D01*
X54974Y-25300D01*
X54974Y-25324D01*
X55012Y-25416D01*
X55083Y-25486D01*
X55175Y-25524D01*
X55274Y-25525D01*
X55274Y-25525D01*
X55203Y-25554D01*
X55057Y-25700D01*
X54000Y-25700D01*
X53885Y-25722D01*
X53787Y-25787D01*
X52500Y-27075D01*
X52415Y-27074D01*
X52259Y-27139D01*
X52139Y-27258D01*
X52075Y-27415D01*
X52074Y-27584D01*
X52139Y-27740D01*
X52258Y-27860D01*
X52415Y-27924D01*
X52584Y-27925D01*
X52740Y-27860D01*
X52860Y-27741D01*
X52924Y-27584D01*
X52925Y-27499D01*
X54124Y-26300D01*
X55057Y-26300D01*
X55202Y-26444D01*
X55395Y-26524D01*
X55603Y-26525D01*
X55797Y-26445D01*
X55944Y-26297D01*
X56024Y-26104D01*
X56025Y-25896D01*
X56025Y-26671D01*
X55250Y-27833D01*
X55239Y-27860D01*
X55222Y-27885D01*
X55217Y-27914D01*
X55205Y-27941D01*
X55205Y-27971D01*
X55200Y-28000D01*
X55200Y-31000D01*
X55200Y-32028D01*
X55145Y-32083D01*
X55145Y-30292D01*
X55062Y-30091D01*
X54909Y-29938D01*
X54708Y-29854D01*
X54492Y-29854D01*
X54291Y-29937D01*
X54138Y-30090D01*
X54054Y-30291D01*
X54054Y-30507D01*
X54137Y-30708D01*
X54290Y-30861D01*
X54491Y-30945D01*
X54707Y-30945D01*
X54908Y-30862D01*
X55061Y-30709D01*
X55145Y-30508D01*
X55145Y-30292D01*
X55145Y-32083D01*
X55138Y-32090D01*
X55054Y-32291D01*
X55054Y-32507D01*
X55137Y-32708D01*
X55290Y-32861D01*
X55491Y-32945D01*
X55707Y-32945D01*
X55908Y-32862D01*
X56061Y-32709D01*
X56145Y-32508D01*
X56145Y-32292D01*
X56062Y-32091D01*
X55909Y-31938D01*
X55800Y-31892D01*
X55800Y-31000D01*
X55800Y-28090D01*
X56749Y-26666D01*
X56761Y-26637D01*
X56777Y-26614D01*
X56782Y-26587D01*
X56794Y-26558D01*
X56794Y-26527D01*
X56800Y-26500D01*
X56800Y-26000D01*
X56800Y-22966D01*
X56808Y-22962D01*
X56961Y-22809D01*
X56999Y-22717D01*
X57037Y-22808D01*
X57190Y-22961D01*
X57391Y-23045D01*
X57607Y-23045D01*
X57808Y-22962D01*
X57954Y-22816D01*
X57954Y-22844D01*
X57992Y-22936D01*
X58062Y-23007D01*
X58154Y-23045D01*
X58254Y-23045D01*
X58844Y-23045D01*
X58936Y-23007D01*
X59007Y-22937D01*
X59045Y-22845D01*
X59045Y-22745D01*
X59045Y-22155D01*
X59007Y-22063D01*
X58937Y-21992D01*
X58845Y-21954D01*
X58816Y-21954D01*
X58961Y-21809D01*
X59045Y-21608D01*
X59045Y-21392D01*
X58962Y-21191D01*
X58809Y-21038D01*
X58608Y-20954D01*
X58392Y-20954D01*
X58191Y-21037D01*
X58038Y-21190D01*
X58000Y-21282D01*
X57962Y-21191D01*
X57809Y-21038D01*
X57608Y-20954D01*
X57392Y-20954D01*
X57191Y-21037D01*
X57038Y-21190D01*
X57000Y-21282D01*
X56962Y-21191D01*
X56809Y-21038D01*
X56608Y-20954D01*
X56392Y-20954D01*
X56191Y-21037D01*
X56038Y-21190D01*
X56000Y-21282D01*
X55962Y-21191D01*
X55809Y-21038D01*
X55608Y-20954D01*
X55392Y-20954D01*
X55191Y-21037D01*
X55038Y-21190D01*
X55000Y-21282D01*
X54962Y-21191D01*
X54809Y-21038D01*
X54608Y-20954D01*
X54392Y-20954D01*
X54191Y-21037D01*
X54038Y-21190D01*
X54000Y-21282D01*
X53962Y-21191D01*
X53809Y-21038D01*
X53608Y-20954D01*
X53392Y-20954D01*
X53191Y-21037D01*
X53038Y-21190D01*
X53000Y-21282D01*
X52962Y-21191D01*
X52809Y-21038D01*
X52608Y-20954D01*
X52392Y-20954D01*
X52191Y-21037D01*
X52038Y-21190D01*
X52000Y-21282D01*
X51962Y-21191D01*
X51809Y-21038D01*
X51608Y-20954D01*
X51392Y-20954D01*
X51191Y-21037D01*
X51038Y-21190D01*
X51000Y-21282D01*
X50962Y-21191D01*
X50809Y-21038D01*
X50608Y-20954D01*
X50392Y-20954D01*
X50191Y-21037D01*
X50038Y-21190D01*
X50000Y-21282D01*
X49962Y-21191D01*
X49809Y-21038D01*
X49608Y-20954D01*
X49392Y-20954D01*
X49191Y-21037D01*
X49038Y-21190D01*
X49000Y-21282D01*
X48962Y-21191D01*
X48809Y-21038D01*
X48608Y-20954D01*
X48392Y-20954D01*
X48191Y-21037D01*
X48038Y-21190D01*
X48000Y-21282D01*
X47962Y-21191D01*
X47809Y-21038D01*
X47608Y-20954D01*
X47392Y-20954D01*
X47191Y-21037D01*
X47038Y-21190D01*
X47000Y-21282D01*
X46962Y-21191D01*
X46809Y-21038D01*
X46608Y-20954D01*
X46392Y-20954D01*
X46191Y-21037D01*
X46038Y-21190D01*
X46000Y-21282D01*
X45962Y-21191D01*
X45809Y-21038D01*
X45608Y-20954D01*
X45392Y-20954D01*
X45191Y-21037D01*
X45038Y-21190D01*
X45000Y-21282D01*
X44962Y-21191D01*
X44809Y-21038D01*
X44608Y-20954D01*
X44392Y-20954D01*
X44191Y-21037D01*
X44038Y-21190D01*
X44000Y-21282D01*
X43962Y-21191D01*
X43809Y-21038D01*
X43608Y-20954D01*
X43392Y-20954D01*
X43191Y-21037D01*
X43038Y-21190D01*
X43000Y-21282D01*
X42962Y-21191D01*
X42809Y-21038D01*
X42608Y-20954D01*
X42392Y-20954D01*
X42191Y-21037D01*
X42038Y-21190D01*
X41954Y-21391D01*
X41954Y-21607D01*
X42037Y-21808D01*
X42190Y-21961D01*
X42275Y-21997D01*
X42214Y-22022D01*
X42188Y-22117D01*
X42500Y-22429D01*
X42811Y-22117D01*
X42785Y-22022D01*
X42719Y-21999D01*
X42808Y-21962D01*
X42961Y-21809D01*
X42999Y-21717D01*
X43037Y-21808D01*
X43190Y-21961D01*
X43282Y-21999D01*
X43191Y-22037D01*
X43038Y-22190D01*
X43002Y-22275D01*
X42977Y-22214D01*
X42882Y-22188D01*
X42570Y-22500D01*
X42882Y-22811D01*
X42977Y-22785D01*
X43000Y-22719D01*
X43037Y-22808D01*
X43190Y-22961D01*
X43391Y-23045D01*
X43607Y-23045D01*
X43808Y-22962D01*
X43961Y-22809D01*
X43999Y-22717D01*
X44037Y-22808D01*
X44190Y-22961D01*
X44391Y-23045D01*
X44607Y-23045D01*
X44808Y-22962D01*
X44961Y-22809D01*
X44999Y-22717D01*
X45037Y-22808D01*
X45190Y-22961D01*
X45391Y-23045D01*
X45607Y-23045D01*
X45808Y-22962D01*
X45961Y-22809D01*
X45999Y-22717D01*
X46037Y-22808D01*
X46190Y-22961D01*
X46391Y-23045D01*
X46607Y-23045D01*
X46808Y-22962D01*
X46961Y-22809D01*
X46999Y-22717D01*
X47037Y-22808D01*
X47190Y-22961D01*
X47391Y-23045D01*
X47607Y-23045D01*
X47808Y-22962D01*
X47961Y-22809D01*
X47999Y-22717D01*
X48037Y-22808D01*
X48190Y-22961D01*
X48391Y-23045D01*
X48530Y-23045D01*
X48375Y-23200D01*
X42811Y-23200D01*
X42811Y-22882D01*
X42500Y-22570D01*
X42429Y-22641D01*
X42429Y-22500D01*
X42117Y-22188D01*
X42022Y-22214D01*
X41949Y-22419D01*
X41960Y-22636D01*
X42022Y-22785D01*
X42117Y-22811D01*
X42429Y-22500D01*
X42429Y-22641D01*
X42188Y-22882D01*
X42214Y-22977D01*
X42419Y-23050D01*
X42636Y-23039D01*
X42785Y-22977D01*
X42811Y-22882D01*
X42811Y-23200D01*
X42500Y-23200D01*
X42385Y-23222D01*
X42287Y-23287D01*
X41787Y-23787D01*
X41769Y-23815D01*
X41769Y-20769D01*
X59230Y-20769D01*
X59230Y-35230D01*
X59230Y-35230D01*
G37*
G54D16*
X59230Y-35230D02*
X57145Y-35230D01*
X57145Y-30292D01*
X57062Y-30091D01*
X56909Y-29938D01*
X56708Y-29854D01*
X56492Y-29854D01*
X56291Y-29937D01*
X56138Y-30090D01*
X56054Y-30291D01*
X56054Y-30507D01*
X56137Y-30708D01*
X56290Y-30861D01*
X56491Y-30945D01*
X56707Y-30945D01*
X56908Y-30862D01*
X57061Y-30709D01*
X57145Y-30508D01*
X57145Y-30292D01*
X57145Y-35230D01*
X46311Y-35230D01*
X46311Y-33382D01*
X46000Y-33070D01*
X45688Y-33382D01*
X45714Y-33477D01*
X45919Y-33550D01*
X46136Y-33539D01*
X46285Y-33477D01*
X46311Y-33382D01*
X46311Y-35230D01*
X41769Y-35230D01*
X41769Y-32684D01*
X41787Y-32712D01*
X42287Y-33212D01*
X42287Y-33212D01*
X42385Y-33277D01*
X42500Y-33300D01*
X43454Y-33300D01*
X43454Y-33344D01*
X43492Y-33436D01*
X43562Y-33507D01*
X43654Y-33545D01*
X43754Y-33545D01*
X44344Y-33545D01*
X44436Y-33507D01*
X44507Y-33437D01*
X44545Y-33345D01*
X44545Y-33316D01*
X44690Y-33461D01*
X44891Y-33545D01*
X45107Y-33545D01*
X45308Y-33462D01*
X45461Y-33309D01*
X45497Y-33224D01*
X45522Y-33285D01*
X45617Y-33311D01*
X45929Y-33000D01*
X45617Y-32688D01*
X45522Y-32714D01*
X45499Y-32780D01*
X45462Y-32691D01*
X45309Y-32538D01*
X45300Y-32534D01*
X45300Y-32500D01*
X45277Y-32385D01*
X45212Y-32287D01*
X45212Y-32287D01*
X44712Y-31787D01*
X44614Y-31722D01*
X44500Y-31700D01*
X42800Y-31700D01*
X42800Y-24624D01*
X43124Y-24300D01*
X49000Y-24300D01*
X49000Y-24299D01*
X49114Y-24277D01*
X49114Y-24277D01*
X49212Y-24212D01*
X50382Y-23041D01*
X50391Y-23045D01*
X50607Y-23045D01*
X50808Y-22962D01*
X50961Y-22809D01*
X50999Y-22717D01*
X51037Y-22808D01*
X51190Y-22961D01*
X51200Y-22965D01*
X51200Y-25875D01*
X50525Y-26550D01*
X50525Y-24896D01*
X50445Y-24703D01*
X50297Y-24555D01*
X50104Y-24475D01*
X49896Y-24474D01*
X49703Y-24554D01*
X49555Y-24702D01*
X49475Y-24895D01*
X49474Y-25103D01*
X49554Y-25297D01*
X49702Y-25444D01*
X49895Y-25524D01*
X50103Y-25525D01*
X50297Y-25445D01*
X50444Y-25297D01*
X50524Y-25104D01*
X50525Y-24896D01*
X50525Y-26550D01*
X48545Y-28530D01*
X48545Y-26892D01*
X48462Y-26691D01*
X48309Y-26538D01*
X48108Y-26454D01*
X47892Y-26454D01*
X47691Y-26537D01*
X47538Y-26690D01*
X47500Y-26782D01*
X47462Y-26691D01*
X47309Y-26538D01*
X47108Y-26454D01*
X46892Y-26454D01*
X46691Y-26537D01*
X46538Y-26690D01*
X46502Y-26775D01*
X46477Y-26714D01*
X46382Y-26688D01*
X46311Y-26758D01*
X46311Y-26617D01*
X46285Y-26522D01*
X46080Y-26449D01*
X45863Y-26460D01*
X45714Y-26522D01*
X45688Y-26617D01*
X46000Y-26929D01*
X46311Y-26617D01*
X46311Y-26758D01*
X46070Y-27000D01*
X46382Y-27311D01*
X46477Y-27285D01*
X46500Y-27219D01*
X46537Y-27308D01*
X46690Y-27461D01*
X46891Y-27545D01*
X47107Y-27545D01*
X47308Y-27462D01*
X47461Y-27309D01*
X47499Y-27217D01*
X47537Y-27308D01*
X47690Y-27461D01*
X47891Y-27545D01*
X48107Y-27545D01*
X48308Y-27462D01*
X48461Y-27309D01*
X48545Y-27108D01*
X48545Y-26892D01*
X48545Y-28530D01*
X46787Y-30287D01*
X46722Y-30385D01*
X46700Y-30500D01*
X46700Y-32533D01*
X46691Y-32537D01*
X46538Y-32690D01*
X46502Y-32775D01*
X46477Y-32714D01*
X46382Y-32688D01*
X46311Y-32758D01*
X46311Y-32617D01*
X46311Y-27382D01*
X46000Y-27070D01*
X45929Y-27141D01*
X45929Y-27000D01*
X45617Y-26688D01*
X45522Y-26714D01*
X45499Y-26780D01*
X45462Y-26691D01*
X45309Y-26538D01*
X45108Y-26454D01*
X44892Y-26454D01*
X44691Y-26537D01*
X44538Y-26690D01*
X44500Y-26782D01*
X44462Y-26691D01*
X44309Y-26538D01*
X44108Y-26454D01*
X43892Y-26454D01*
X43691Y-26537D01*
X43538Y-26690D01*
X43454Y-26891D01*
X43454Y-27107D01*
X43537Y-27308D01*
X43690Y-27461D01*
X43891Y-27545D01*
X44107Y-27545D01*
X44308Y-27462D01*
X44461Y-27309D01*
X44499Y-27217D01*
X44537Y-27308D01*
X44690Y-27461D01*
X44891Y-27545D01*
X45107Y-27545D01*
X45308Y-27462D01*
X45461Y-27309D01*
X45497Y-27224D01*
X45522Y-27285D01*
X45617Y-27311D01*
X45929Y-27000D01*
X45929Y-27141D01*
X45688Y-27382D01*
X45714Y-27477D01*
X45919Y-27550D01*
X46136Y-27539D01*
X46285Y-27477D01*
X46311Y-27382D01*
X46311Y-32617D01*
X46285Y-32522D01*
X46080Y-32449D01*
X45863Y-32460D01*
X45714Y-32522D01*
X45688Y-32617D01*
X46000Y-32929D01*
X46311Y-32617D01*
X46311Y-32758D01*
X46070Y-33000D01*
X46382Y-33311D01*
X46477Y-33285D01*
X46500Y-33219D01*
X46537Y-33308D01*
X46690Y-33461D01*
X46891Y-33545D01*
X47107Y-33545D01*
X47308Y-33462D01*
X47461Y-33309D01*
X47499Y-33217D01*
X47537Y-33308D01*
X47690Y-33461D01*
X47891Y-33545D01*
X48107Y-33545D01*
X48308Y-33462D01*
X48461Y-33309D01*
X48545Y-33108D01*
X48545Y-32892D01*
X48462Y-32691D01*
X48309Y-32538D01*
X48108Y-32454D01*
X47892Y-32454D01*
X47691Y-32537D01*
X47538Y-32690D01*
X47500Y-32782D01*
X47462Y-32691D01*
X47309Y-32538D01*
X47300Y-32534D01*
X47300Y-30624D01*
X51712Y-26212D01*
X51777Y-26114D01*
X51777Y-26114D01*
X51799Y-26000D01*
X51800Y-26000D01*
X51800Y-22966D01*
X51808Y-22962D01*
X51961Y-22809D01*
X51999Y-22717D01*
X52037Y-22808D01*
X52190Y-22961D01*
X52391Y-23045D01*
X52607Y-23045D01*
X52808Y-22962D01*
X52961Y-22809D01*
X52999Y-22717D01*
X53037Y-22808D01*
X53190Y-22961D01*
X53391Y-23045D01*
X53607Y-23045D01*
X53808Y-22962D01*
X53961Y-22809D01*
X53999Y-22717D01*
X54037Y-22808D01*
X54190Y-22961D01*
X54391Y-23045D01*
X54607Y-23045D01*
X54808Y-22962D01*
X54961Y-22809D01*
X54999Y-22717D01*
X55037Y-22808D01*
X55190Y-22961D01*
X55391Y-23045D01*
X55607Y-23045D01*
X55808Y-22962D01*
X55961Y-22809D01*
X55999Y-22717D01*
X56037Y-22808D01*
X56190Y-22961D01*
X56200Y-22965D01*
X56200Y-26000D01*
X56200Y-26409D01*
X56025Y-26671D01*
X56025Y-25896D01*
X55945Y-25703D01*
X55797Y-25555D01*
X55725Y-25525D01*
X55824Y-25525D01*
X55916Y-25487D01*
X55986Y-25416D01*
X56024Y-25324D01*
X56025Y-25225D01*
X56025Y-24675D01*
X55987Y-24583D01*
X55916Y-24513D01*
X55824Y-24475D01*
X55725Y-24474D01*
X55175Y-24474D01*
X55083Y-24512D01*
X55013Y-24583D01*
X54975Y-24675D01*
X54975Y-24700D01*
X53442Y-24700D01*
X53297Y-24555D01*
X53104Y-24475D01*
X52896Y-24474D01*
X52703Y-24554D01*
X52555Y-24702D01*
X52475Y-24895D01*
X52474Y-25103D01*
X52554Y-25297D01*
X52702Y-25444D01*
X52895Y-25524D01*
X53103Y-25525D01*
X53297Y-25445D01*
X53442Y-25300D01*
X54974Y-25300D01*
X54974Y-25324D01*
X55012Y-25416D01*
X55083Y-25486D01*
X55175Y-25524D01*
X55274Y-25525D01*
X55274Y-25525D01*
X55203Y-25554D01*
X55057Y-25700D01*
X54000Y-25700D01*
X53885Y-25722D01*
X53787Y-25787D01*
X52500Y-27075D01*
X52415Y-27074D01*
X52259Y-27139D01*
X52139Y-27258D01*
X52075Y-27415D01*
X52074Y-27584D01*
X52139Y-27740D01*
X52258Y-27860D01*
X52415Y-27924D01*
X52584Y-27925D01*
X52740Y-27860D01*
X52860Y-27741D01*
X52924Y-27584D01*
X52925Y-27499D01*
X54124Y-26300D01*
X55057Y-26300D01*
X55202Y-26444D01*
X55395Y-26524D01*
X55603Y-26525D01*
X55797Y-26445D01*
X55944Y-26297D01*
X56024Y-26104D01*
X56025Y-25896D01*
X56025Y-26671D01*
X55250Y-27833D01*
X55239Y-27860D01*
X55222Y-27885D01*
X55217Y-27914D01*
X55205Y-27941D01*
X55205Y-27971D01*
X55200Y-28000D01*
X55200Y-31000D01*
X55200Y-32028D01*
X55145Y-32083D01*
X55145Y-30292D01*
X55062Y-30091D01*
X54909Y-29938D01*
X54708Y-29854D01*
X54492Y-29854D01*
X54291Y-29937D01*
X54138Y-30090D01*
X54054Y-30291D01*
X54054Y-30507D01*
X54137Y-30708D01*
X54290Y-30861D01*
X54491Y-30945D01*
X54707Y-30945D01*
X54908Y-30862D01*
X55061Y-30709D01*
X55145Y-30508D01*
X55145Y-30292D01*
X55145Y-32083D01*
X55138Y-32090D01*
X55054Y-32291D01*
X55054Y-32507D01*
X55137Y-32708D01*
X55290Y-32861D01*
X55491Y-32945D01*
X55707Y-32945D01*
X55908Y-32862D01*
X56061Y-32709D01*
X56145Y-32508D01*
X56145Y-32292D01*
X56062Y-32091D01*
X55909Y-31938D01*
X55800Y-31892D01*
X55800Y-31000D01*
X55800Y-28090D01*
X56749Y-26666D01*
X56761Y-26637D01*
X56777Y-26614D01*
X56782Y-26587D01*
X56794Y-26558D01*
X56794Y-26527D01*
X56800Y-26500D01*
X56800Y-26000D01*
X56800Y-22966D01*
X56808Y-22962D01*
X56961Y-22809D01*
X56999Y-22717D01*
X57037Y-22808D01*
X57190Y-22961D01*
X57391Y-23045D01*
X57607Y-23045D01*
X57808Y-22962D01*
X57954Y-22816D01*
X57954Y-22844D01*
X57992Y-22936D01*
X58062Y-23007D01*
X58154Y-23045D01*
X58254Y-23045D01*
X58844Y-23045D01*
X58936Y-23007D01*
X59007Y-22937D01*
X59045Y-22845D01*
X59045Y-22745D01*
X59045Y-22155D01*
X59007Y-22063D01*
X58937Y-21992D01*
X58845Y-21954D01*
X58816Y-21954D01*
X58961Y-21809D01*
X59045Y-21608D01*
X59045Y-21392D01*
X58962Y-21191D01*
X58809Y-21038D01*
X58608Y-20954D01*
X58392Y-20954D01*
X58191Y-21037D01*
X58038Y-21190D01*
X58000Y-21282D01*
X57962Y-21191D01*
X57809Y-21038D01*
X57608Y-20954D01*
X57392Y-20954D01*
X57191Y-21037D01*
X57038Y-21190D01*
X57000Y-21282D01*
X56962Y-21191D01*
X56809Y-21038D01*
X56608Y-20954D01*
X56392Y-20954D01*
X56191Y-21037D01*
X56038Y-21190D01*
X56000Y-21282D01*
X55962Y-21191D01*
X55809Y-21038D01*
X55608Y-20954D01*
X55392Y-20954D01*
X55191Y-21037D01*
X55038Y-21190D01*
X55000Y-21282D01*
X54962Y-21191D01*
X54809Y-21038D01*
X54608Y-20954D01*
X54392Y-20954D01*
X54191Y-21037D01*
X54038Y-21190D01*
X54000Y-21282D01*
X53962Y-21191D01*
X53809Y-21038D01*
X53608Y-20954D01*
X53392Y-20954D01*
X53191Y-21037D01*
X53038Y-21190D01*
X53000Y-21282D01*
X52962Y-21191D01*
X52809Y-21038D01*
X52608Y-20954D01*
X52392Y-20954D01*
X52191Y-21037D01*
X52038Y-21190D01*
X52000Y-21282D01*
X51962Y-21191D01*
X51809Y-21038D01*
X51608Y-20954D01*
X51392Y-20954D01*
X51191Y-21037D01*
X51038Y-21190D01*
X51000Y-21282D01*
X50962Y-21191D01*
X50809Y-21038D01*
X50608Y-20954D01*
X50392Y-20954D01*
X50191Y-21037D01*
X50038Y-21190D01*
X50000Y-21282D01*
X49962Y-21191D01*
X49809Y-21038D01*
X49608Y-20954D01*
X49392Y-20954D01*
X49191Y-21037D01*
X49038Y-21190D01*
X49000Y-21282D01*
X48962Y-21191D01*
X48809Y-21038D01*
X48608Y-20954D01*
X48392Y-20954D01*
X48191Y-21037D01*
X48038Y-21190D01*
X48000Y-21282D01*
X47962Y-21191D01*
X47809Y-21038D01*
X47608Y-20954D01*
X47392Y-20954D01*
X47191Y-21037D01*
X47038Y-21190D01*
X47000Y-21282D01*
X46962Y-21191D01*
X46809Y-21038D01*
X46608Y-20954D01*
X46392Y-20954D01*
X46191Y-21037D01*
X46038Y-21190D01*
X46000Y-21282D01*
X45962Y-21191D01*
X45809Y-21038D01*
X45608Y-20954D01*
X45392Y-20954D01*
X45191Y-21037D01*
X45038Y-21190D01*
X45000Y-21282D01*
X44962Y-21191D01*
X44809Y-21038D01*
X44608Y-20954D01*
X44392Y-20954D01*
X44191Y-21037D01*
X44038Y-21190D01*
X44000Y-21282D01*
X43962Y-21191D01*
X43809Y-21038D01*
X43608Y-20954D01*
X43392Y-20954D01*
X43191Y-21037D01*
X43038Y-21190D01*
X43000Y-21282D01*
X42962Y-21191D01*
X42809Y-21038D01*
X42608Y-20954D01*
X42392Y-20954D01*
X42191Y-21037D01*
X42038Y-21190D01*
X41954Y-21391D01*
X41954Y-21607D01*
X42037Y-21808D01*
X42190Y-21961D01*
X42275Y-21997D01*
X42214Y-22022D01*
X42188Y-22117D01*
X42500Y-22429D01*
X42811Y-22117D01*
X42785Y-22022D01*
X42719Y-21999D01*
X42808Y-21962D01*
X42961Y-21809D01*
X42999Y-21717D01*
X43037Y-21808D01*
X43190Y-21961D01*
X43282Y-21999D01*
X43191Y-22037D01*
X43038Y-22190D01*
X43002Y-22275D01*
X42977Y-22214D01*
X42882Y-22188D01*
X42570Y-22500D01*
X42882Y-22811D01*
X42977Y-22785D01*
X43000Y-22719D01*
X43037Y-22808D01*
X43190Y-22961D01*
X43391Y-23045D01*
X43607Y-23045D01*
X43808Y-22962D01*
X43961Y-22809D01*
X43999Y-22717D01*
X44037Y-22808D01*
X44190Y-22961D01*
X44391Y-23045D01*
X44607Y-23045D01*
X44808Y-22962D01*
X44961Y-22809D01*
X44999Y-22717D01*
X45037Y-22808D01*
X45190Y-22961D01*
X45391Y-23045D01*
X45607Y-23045D01*
X45808Y-22962D01*
X45961Y-22809D01*
X45999Y-22717D01*
X46037Y-22808D01*
X46190Y-22961D01*
X46391Y-23045D01*
X46607Y-23045D01*
X46808Y-22962D01*
X46961Y-22809D01*
X46999Y-22717D01*
X47037Y-22808D01*
X47190Y-22961D01*
X47391Y-23045D01*
X47607Y-23045D01*
X47808Y-22962D01*
X47961Y-22809D01*
X47999Y-22717D01*
X48037Y-22808D01*
X48190Y-22961D01*
X48391Y-23045D01*
X48530Y-23045D01*
X48375Y-23200D01*
X42811Y-23200D01*
X42811Y-22882D01*
X42500Y-22570D01*
X42429Y-22641D01*
X42429Y-22500D01*
X42117Y-22188D01*
X42022Y-22214D01*
X41949Y-22419D01*
X41960Y-22636D01*
X42022Y-22785D01*
X42117Y-22811D01*
X42429Y-22500D01*
X42429Y-22641D01*
X42188Y-22882D01*
X42214Y-22977D01*
X42419Y-23050D01*
X42636Y-23039D01*
X42785Y-22977D01*
X42811Y-22882D01*
X42811Y-23200D01*
X42500Y-23200D01*
X42385Y-23222D01*
X42287Y-23287D01*
X41787Y-23787D01*
X41769Y-23815D01*
X41769Y-20769D01*
X59230Y-20769D01*
X59230Y-35230D01*
M02*
