G04 (created by PCBNEW (2013-07-07 BZR 4022)-stable) date 2/24/2014 11:30:39 AM*
%MOIN*%
G04 Gerber Fmt 3.4, Leading zero omitted, Abs format*
%FSLAX34Y34*%
G01*
G70*
G90*
G04 APERTURE LIST*
%ADD10C,0.00590551*%
%ADD11C,0.00984252*%
G04 APERTURE END LIST*
G54D10*
G54D11*
X59059Y-33239D02*
X59059Y-32845D01*
X59059Y-32901D02*
X59031Y-32873D01*
X58975Y-32845D01*
X58890Y-32845D01*
X58834Y-32873D01*
X58806Y-32929D01*
X58806Y-33239D01*
X58806Y-32929D02*
X58778Y-32873D01*
X58721Y-32845D01*
X58637Y-32845D01*
X58581Y-32873D01*
X58553Y-32929D01*
X58553Y-33239D01*
X58328Y-32845D02*
X58187Y-33239D01*
X58047Y-32845D02*
X58187Y-33239D01*
X58243Y-33379D01*
X58271Y-33407D01*
X58328Y-33435D01*
X57484Y-33239D02*
X57681Y-32957D01*
X57822Y-33239D02*
X57822Y-32648D01*
X57597Y-32648D01*
X57540Y-32676D01*
X57512Y-32704D01*
X57484Y-32760D01*
X57484Y-32845D01*
X57512Y-32901D01*
X57540Y-32929D01*
X57597Y-32957D01*
X57822Y-32957D01*
X57231Y-33239D02*
X57231Y-32648D01*
X56837Y-32648D02*
X56725Y-32648D01*
X56669Y-32676D01*
X56612Y-32732D01*
X56584Y-32845D01*
X56584Y-33042D01*
X56612Y-33154D01*
X56669Y-33210D01*
X56725Y-33239D01*
X56837Y-33239D01*
X56894Y-33210D01*
X56950Y-33154D01*
X56978Y-33042D01*
X56978Y-32845D01*
X56950Y-32732D01*
X56894Y-32676D01*
X56837Y-32648D01*
X55881Y-33239D02*
X55881Y-32648D01*
X55741Y-32648D01*
X55656Y-32676D01*
X55600Y-32732D01*
X55572Y-32789D01*
X55544Y-32901D01*
X55544Y-32985D01*
X55572Y-33098D01*
X55600Y-33154D01*
X55656Y-33210D01*
X55741Y-33239D01*
X55881Y-33239D01*
X55066Y-33210D02*
X55122Y-33239D01*
X55234Y-33239D01*
X55291Y-33210D01*
X55319Y-33154D01*
X55319Y-32929D01*
X55291Y-32873D01*
X55234Y-32845D01*
X55122Y-32845D01*
X55066Y-32873D01*
X55038Y-32929D01*
X55038Y-32985D01*
X55319Y-33042D01*
X54784Y-33239D02*
X54784Y-32845D01*
X54784Y-32901D02*
X54756Y-32873D01*
X54700Y-32845D01*
X54616Y-32845D01*
X54559Y-32873D01*
X54531Y-32929D01*
X54531Y-33239D01*
X54531Y-32929D02*
X54503Y-32873D01*
X54447Y-32845D01*
X54363Y-32845D01*
X54306Y-32873D01*
X54278Y-32929D01*
X54278Y-33239D01*
X53913Y-33239D02*
X53969Y-33210D01*
X53997Y-33182D01*
X54025Y-33126D01*
X54025Y-32957D01*
X53997Y-32901D01*
X53969Y-32873D01*
X53913Y-32845D01*
X53828Y-32845D01*
X53772Y-32873D01*
X53744Y-32901D01*
X53716Y-32957D01*
X53716Y-33126D01*
X53744Y-33182D01*
X53772Y-33210D01*
X53828Y-33239D01*
X53913Y-33239D01*
X52816Y-32929D02*
X52732Y-32957D01*
X52703Y-32985D01*
X52675Y-33042D01*
X52675Y-33126D01*
X52703Y-33182D01*
X52732Y-33210D01*
X52788Y-33239D01*
X53013Y-33239D01*
X53013Y-32648D01*
X52816Y-32648D01*
X52760Y-32676D01*
X52732Y-32704D01*
X52703Y-32760D01*
X52703Y-32817D01*
X52732Y-32873D01*
X52760Y-32901D01*
X52816Y-32929D01*
X53013Y-32929D01*
X52338Y-33239D02*
X52394Y-33210D01*
X52422Y-33182D01*
X52450Y-33126D01*
X52450Y-32957D01*
X52422Y-32901D01*
X52394Y-32873D01*
X52338Y-32845D01*
X52253Y-32845D01*
X52197Y-32873D01*
X52169Y-32901D01*
X52141Y-32957D01*
X52141Y-33126D01*
X52169Y-33182D01*
X52197Y-33210D01*
X52253Y-33239D01*
X52338Y-33239D01*
X51635Y-33239D02*
X51635Y-32929D01*
X51663Y-32873D01*
X51719Y-32845D01*
X51832Y-32845D01*
X51888Y-32873D01*
X51635Y-33210D02*
X51691Y-33239D01*
X51832Y-33239D01*
X51888Y-33210D01*
X51916Y-33154D01*
X51916Y-33098D01*
X51888Y-33042D01*
X51832Y-33014D01*
X51691Y-33014D01*
X51635Y-32985D01*
X51354Y-33239D02*
X51354Y-32845D01*
X51354Y-32957D02*
X51325Y-32901D01*
X51297Y-32873D01*
X51241Y-32845D01*
X51185Y-32845D01*
X50735Y-33239D02*
X50735Y-32648D01*
X50735Y-33210D02*
X50791Y-33239D01*
X50904Y-33239D01*
X50960Y-33210D01*
X50988Y-33182D01*
X51016Y-33126D01*
X51016Y-32957D01*
X50988Y-32901D01*
X50960Y-32873D01*
X50904Y-32845D01*
X50791Y-32845D01*
X50735Y-32873D01*
X58721Y-34164D02*
X58918Y-33883D01*
X59059Y-34164D02*
X59059Y-33573D01*
X58834Y-33573D01*
X58778Y-33601D01*
X58750Y-33629D01*
X58721Y-33686D01*
X58721Y-33770D01*
X58750Y-33826D01*
X58778Y-33854D01*
X58834Y-33883D01*
X59059Y-33883D01*
X58243Y-34136D02*
X58300Y-34164D01*
X58412Y-34164D01*
X58468Y-34136D01*
X58496Y-34079D01*
X58496Y-33854D01*
X58468Y-33798D01*
X58412Y-33770D01*
X58300Y-33770D01*
X58243Y-33798D01*
X58215Y-33854D01*
X58215Y-33911D01*
X58496Y-33967D01*
X58018Y-33770D02*
X57878Y-34164D01*
X57737Y-33770D01*
X56753Y-34164D02*
X57090Y-34164D01*
X56922Y-34164D02*
X56922Y-33573D01*
X56978Y-33658D01*
X57034Y-33714D01*
X57090Y-33742D01*
X56500Y-34107D02*
X56472Y-34136D01*
X56500Y-34164D01*
X56528Y-34136D01*
X56500Y-34107D01*
X56500Y-34164D01*
X56106Y-33573D02*
X56050Y-33573D01*
X55994Y-33601D01*
X55966Y-33629D01*
X55937Y-33686D01*
X55909Y-33798D01*
X55909Y-33939D01*
X55937Y-34051D01*
X55966Y-34107D01*
X55994Y-34136D01*
X56050Y-34164D01*
X56106Y-34164D01*
X56162Y-34136D01*
X56191Y-34107D01*
X56219Y-34051D01*
X56247Y-33939D01*
X56247Y-33798D01*
X56219Y-33686D01*
X56191Y-33629D01*
X56162Y-33601D01*
X56106Y-33573D01*
X59087Y-35061D02*
X59003Y-35089D01*
X58862Y-35089D01*
X58806Y-35061D01*
X58778Y-35033D01*
X58750Y-34976D01*
X58750Y-34920D01*
X58778Y-34864D01*
X58806Y-34836D01*
X58862Y-34808D01*
X58975Y-34780D01*
X59031Y-34751D01*
X59059Y-34723D01*
X59087Y-34667D01*
X59087Y-34611D01*
X59059Y-34555D01*
X59031Y-34526D01*
X58975Y-34498D01*
X58834Y-34498D01*
X58750Y-34526D01*
X58496Y-35089D02*
X58496Y-34498D01*
X58159Y-35089D02*
X58412Y-34751D01*
X58159Y-34498D02*
X58496Y-34836D01*
M02*
