M48
;DRILL file {Pcbnew (2013-07-07 BZR 4022)-stable} date 3/3/2014 1:17:58 PM
;FORMAT={-:-/ absolute / inch / decimal}
FMAT,2
INCH,TZ
T1C0.024
T2C0.031
T3C0.032
%
G90
G05
M72
T1
X5.55Y-2.95
X5.65Y-2.75
X5.75Y-2.95
T2
X4.25Y-2.15
X4.25Y-2.25
X4.3Y-2.65
X4.3Y-2.75
X4.3Y-2.85
X4.3Y-2.95
X4.3Y-3.05
X4.35Y-2.15
X4.35Y-2.25
X4.45Y-2.15
X4.45Y-2.25
X4.55Y-2.15
X4.55Y-2.25
X4.65Y-2.15
X4.65Y-2.25
X4.75Y-2.15
X4.75Y-2.25
X4.85Y-2.15
X4.85Y-2.25
X4.9Y-2.65
X4.9Y-2.75
X4.9Y-2.85
X4.9Y-2.95
X4.9Y-3.05
X4.95Y-2.15
X4.95Y-2.25
X5.05Y-2.15
X5.05Y-2.25
X5.15Y-2.15
X5.15Y-2.25
X5.25Y-2.15
X5.25Y-2.25
X5.35Y-2.15
X5.35Y-2.25
X5.45Y-2.15
X5.45Y-2.25
X5.55Y-2.15
X5.55Y-2.25
X5.65Y-2.15
X5.65Y-2.25
X5.75Y-2.15
X5.75Y-2.25
X5.85Y-2.15
X5.85Y-2.25
T3
X5.2Y-3.05
X5.2Y-3.35
X5.65Y-3.25
X5.65Y-3.35
T0
M30
