G04 (created by PCBNEW (2013-07-07 BZR 4022)-stable) date 3/3/2014 12:06:18 PM*
%MOIN*%
G04 Gerber Fmt 3.4, Leading zero omitted, Abs format*
%FSLAX34Y34*%
G01*
G70*
G90*
G04 APERTURE LIST*
%ADD10C,0.00590551*%
%ADD11C,0.055*%
%ADD12C,0.0590551*%
%ADD13R,0.055X0.055*%
%ADD14R,0.0590551X0.0590551*%
%ADD15C,0.01*%
G04 APERTURE END LIST*
G54D10*
G54D11*
X52000Y-33500D03*
X52000Y-30500D03*
G54D12*
X55500Y-29500D03*
X57500Y-29500D03*
X56500Y-27500D03*
G54D13*
X56500Y-33500D03*
G54D11*
X56500Y-32500D03*
G54D14*
X58500Y-22500D03*
G54D12*
X58500Y-21500D03*
X57500Y-22500D03*
X57500Y-21500D03*
X56500Y-22500D03*
X56500Y-21500D03*
X55500Y-22500D03*
X55500Y-21500D03*
X54500Y-22500D03*
X54500Y-21500D03*
X53500Y-22500D03*
X53500Y-21500D03*
X52500Y-22500D03*
X52500Y-21500D03*
X51500Y-22500D03*
X51500Y-21500D03*
X50500Y-22500D03*
X50500Y-21500D03*
X49500Y-22500D03*
X49500Y-21500D03*
X48500Y-22500D03*
X48500Y-21500D03*
X47500Y-22500D03*
X47500Y-21500D03*
X46500Y-22500D03*
X46500Y-21500D03*
X45500Y-22500D03*
X45500Y-21500D03*
X44500Y-22500D03*
X44500Y-21500D03*
X43500Y-22500D03*
X43500Y-21500D03*
X42500Y-22500D03*
X42500Y-21500D03*
G54D14*
X49000Y-30500D03*
G54D12*
X49000Y-29500D03*
X49000Y-28500D03*
X49000Y-27500D03*
X49000Y-26500D03*
X43000Y-26500D03*
X43000Y-27500D03*
X43000Y-28500D03*
X43000Y-29500D03*
X43000Y-30500D03*
G54D15*
X55500Y-21500D02*
X56000Y-22000D01*
X55500Y-23500D02*
X55500Y-29500D01*
X56000Y-23000D02*
X55500Y-23500D01*
X56000Y-22000D02*
X56000Y-23000D01*
X52000Y-30500D02*
X51000Y-31500D01*
X59000Y-22000D02*
X58500Y-21500D01*
X59000Y-25500D02*
X59000Y-22000D01*
X59000Y-33000D02*
X59000Y-25500D01*
X57500Y-34500D02*
X59000Y-33000D01*
X52000Y-34500D02*
X57500Y-34500D01*
X51000Y-33500D02*
X52000Y-34500D01*
X51000Y-31500D02*
X51000Y-33500D01*
X56500Y-27500D02*
X56500Y-22500D01*
X56500Y-33500D02*
X57500Y-33500D01*
X57500Y-25000D02*
X57500Y-22500D01*
X58500Y-26000D02*
X57500Y-25000D01*
X58500Y-32500D02*
X58500Y-26000D01*
X57500Y-33500D02*
X58500Y-32500D01*
X52000Y-33500D02*
X56500Y-33500D01*
X43000Y-27500D02*
X46000Y-27500D01*
X53500Y-24000D02*
X53500Y-22500D01*
X51000Y-26500D02*
X53500Y-24000D01*
X51000Y-30500D02*
X51000Y-26500D01*
X49500Y-32000D02*
X51000Y-30500D01*
X48500Y-32000D02*
X49500Y-32000D01*
X46000Y-29500D02*
X48500Y-32000D01*
X46000Y-27500D02*
X46000Y-29500D01*
X43000Y-26500D02*
X46000Y-26500D01*
X52500Y-24500D02*
X52500Y-22500D01*
X50500Y-26500D02*
X52500Y-24500D01*
X50500Y-30500D02*
X50500Y-26500D01*
X49500Y-31500D02*
X50500Y-30500D01*
X48500Y-31500D02*
X49500Y-31500D01*
X46500Y-29500D02*
X48500Y-31500D01*
X46500Y-27000D02*
X46500Y-29500D01*
X46000Y-26500D02*
X46500Y-27000D01*
X49000Y-27500D02*
X48500Y-27500D01*
X51500Y-25000D02*
X51500Y-22500D01*
X51000Y-25500D02*
X51500Y-25000D01*
X48500Y-25500D02*
X51000Y-25500D01*
X48000Y-26000D02*
X48500Y-25500D01*
X48000Y-27000D02*
X48000Y-26000D01*
X48500Y-27500D02*
X48000Y-27000D01*
X49000Y-29500D02*
X48500Y-29500D01*
X50500Y-24500D02*
X50500Y-22500D01*
X50000Y-25000D02*
X50500Y-24500D01*
X48500Y-25000D02*
X50000Y-25000D01*
X47500Y-26000D02*
X48500Y-25000D01*
X47500Y-28500D02*
X47500Y-26000D01*
X48500Y-29500D02*
X47500Y-28500D01*
X49000Y-30500D02*
X48500Y-30500D01*
X49500Y-24000D02*
X49500Y-22500D01*
X49000Y-24500D02*
X49500Y-24000D01*
X48500Y-24500D02*
X49000Y-24500D01*
X47000Y-26000D02*
X48500Y-24500D01*
X47000Y-29000D02*
X47000Y-26000D01*
X48500Y-30500D02*
X47000Y-29000D01*
X43000Y-29500D02*
X42500Y-29000D01*
X48500Y-24000D02*
X48500Y-22500D01*
X47000Y-25500D02*
X48500Y-24000D01*
X43000Y-25500D02*
X47000Y-25500D01*
X42500Y-26000D02*
X43000Y-25500D01*
X42500Y-29000D02*
X42500Y-26000D01*
X43000Y-30500D02*
X42000Y-29500D01*
X47500Y-24500D02*
X47500Y-22500D01*
X47000Y-25000D02*
X47500Y-24500D01*
X43000Y-25000D02*
X47000Y-25000D01*
X42000Y-26000D02*
X43000Y-25000D01*
X42000Y-29500D02*
X42000Y-26000D01*
G54D10*
G36*
X59230Y-21815D02*
X59212Y-21787D01*
X59212Y-21787D01*
X59041Y-21617D01*
X59045Y-21608D01*
X59045Y-21392D01*
X58962Y-21191D01*
X58809Y-21038D01*
X58608Y-20954D01*
X58392Y-20954D01*
X58191Y-21037D01*
X58038Y-21190D01*
X58000Y-21282D01*
X57962Y-21191D01*
X57809Y-21038D01*
X57608Y-20954D01*
X57392Y-20954D01*
X57191Y-21037D01*
X57038Y-21190D01*
X57002Y-21275D01*
X56977Y-21214D01*
X56882Y-21188D01*
X56811Y-21258D01*
X56811Y-21117D01*
X56785Y-21022D01*
X56580Y-20949D01*
X56363Y-20960D01*
X56214Y-21022D01*
X56188Y-21117D01*
X56500Y-21429D01*
X56811Y-21117D01*
X56811Y-21258D01*
X56570Y-21500D01*
X56882Y-21811D01*
X56977Y-21785D01*
X57000Y-21719D01*
X57037Y-21808D01*
X57190Y-21961D01*
X57282Y-21999D01*
X57191Y-22037D01*
X57038Y-22190D01*
X57000Y-22282D01*
X56962Y-22191D01*
X56809Y-22038D01*
X56724Y-22002D01*
X56785Y-21977D01*
X56811Y-21882D01*
X56500Y-21570D01*
X56429Y-21641D01*
X56429Y-21500D01*
X56117Y-21188D01*
X56022Y-21214D01*
X56001Y-21273D01*
X55977Y-21214D01*
X55882Y-21188D01*
X55811Y-21258D01*
X55811Y-21117D01*
X55785Y-21022D01*
X55580Y-20949D01*
X55363Y-20960D01*
X55214Y-21022D01*
X55188Y-21117D01*
X55500Y-21429D01*
X55811Y-21117D01*
X55811Y-21258D01*
X55570Y-21500D01*
X55882Y-21811D01*
X55977Y-21785D01*
X55998Y-21726D01*
X56022Y-21785D01*
X56117Y-21811D01*
X56429Y-21500D01*
X56429Y-21641D01*
X56188Y-21882D01*
X56214Y-21977D01*
X56280Y-22000D01*
X56191Y-22037D01*
X56038Y-22190D01*
X56000Y-22282D01*
X55962Y-22191D01*
X55809Y-22038D01*
X55724Y-22002D01*
X55785Y-21977D01*
X55811Y-21882D01*
X55500Y-21570D01*
X55188Y-21882D01*
X55214Y-21977D01*
X55280Y-22000D01*
X55191Y-22037D01*
X55038Y-22190D01*
X55000Y-22282D01*
X54962Y-22191D01*
X54809Y-22038D01*
X54717Y-22000D01*
X54808Y-21962D01*
X54961Y-21809D01*
X54997Y-21724D01*
X55022Y-21785D01*
X55117Y-21811D01*
X55429Y-21500D01*
X55117Y-21188D01*
X55022Y-21214D01*
X54999Y-21280D01*
X54962Y-21191D01*
X54809Y-21038D01*
X54608Y-20954D01*
X54392Y-20954D01*
X54191Y-21037D01*
X54038Y-21190D01*
X54002Y-21275D01*
X53977Y-21214D01*
X53882Y-21188D01*
X53811Y-21258D01*
X53811Y-21117D01*
X53785Y-21022D01*
X53580Y-20949D01*
X53363Y-20960D01*
X53214Y-21022D01*
X53188Y-21117D01*
X53500Y-21429D01*
X53811Y-21117D01*
X53811Y-21258D01*
X53570Y-21500D01*
X53882Y-21811D01*
X53977Y-21785D01*
X54000Y-21719D01*
X54037Y-21808D01*
X54190Y-21961D01*
X54282Y-21999D01*
X54191Y-22037D01*
X54038Y-22190D01*
X54000Y-22282D01*
X53962Y-22191D01*
X53809Y-22038D01*
X53724Y-22002D01*
X53785Y-21977D01*
X53811Y-21882D01*
X53500Y-21570D01*
X53188Y-21882D01*
X53214Y-21977D01*
X53280Y-22000D01*
X53191Y-22037D01*
X53038Y-22190D01*
X53000Y-22282D01*
X52962Y-22191D01*
X52809Y-22038D01*
X52717Y-22000D01*
X52808Y-21962D01*
X52961Y-21809D01*
X52997Y-21724D01*
X53022Y-21785D01*
X53117Y-21811D01*
X53429Y-21500D01*
X53117Y-21188D01*
X53022Y-21214D01*
X52999Y-21280D01*
X52962Y-21191D01*
X52809Y-21038D01*
X52608Y-20954D01*
X52392Y-20954D01*
X52191Y-21037D01*
X52038Y-21190D01*
X52002Y-21275D01*
X51977Y-21214D01*
X51882Y-21188D01*
X51811Y-21258D01*
X51811Y-21117D01*
X51785Y-21022D01*
X51580Y-20949D01*
X51363Y-20960D01*
X51214Y-21022D01*
X51188Y-21117D01*
X51500Y-21429D01*
X51811Y-21117D01*
X51811Y-21258D01*
X51570Y-21500D01*
X51882Y-21811D01*
X51977Y-21785D01*
X52000Y-21719D01*
X52037Y-21808D01*
X52190Y-21961D01*
X52282Y-21999D01*
X52191Y-22037D01*
X52038Y-22190D01*
X52000Y-22282D01*
X51962Y-22191D01*
X51809Y-22038D01*
X51724Y-22002D01*
X51785Y-21977D01*
X51811Y-21882D01*
X51500Y-21570D01*
X51188Y-21882D01*
X51214Y-21977D01*
X51280Y-22000D01*
X51191Y-22037D01*
X51038Y-22190D01*
X51000Y-22282D01*
X50962Y-22191D01*
X50809Y-22038D01*
X50717Y-22000D01*
X50808Y-21962D01*
X50961Y-21809D01*
X50997Y-21724D01*
X51022Y-21785D01*
X51117Y-21811D01*
X51429Y-21500D01*
X51117Y-21188D01*
X51022Y-21214D01*
X50999Y-21280D01*
X50962Y-21191D01*
X50809Y-21038D01*
X50608Y-20954D01*
X50392Y-20954D01*
X50191Y-21037D01*
X50038Y-21190D01*
X50002Y-21275D01*
X49977Y-21214D01*
X49882Y-21188D01*
X49811Y-21258D01*
X49811Y-21117D01*
X49785Y-21022D01*
X49580Y-20949D01*
X49363Y-20960D01*
X49214Y-21022D01*
X49188Y-21117D01*
X49500Y-21429D01*
X49811Y-21117D01*
X49811Y-21258D01*
X49570Y-21500D01*
X49882Y-21811D01*
X49977Y-21785D01*
X50000Y-21719D01*
X50037Y-21808D01*
X50190Y-21961D01*
X50282Y-21999D01*
X50191Y-22037D01*
X50038Y-22190D01*
X50000Y-22282D01*
X49962Y-22191D01*
X49809Y-22038D01*
X49724Y-22002D01*
X49785Y-21977D01*
X49811Y-21882D01*
X49500Y-21570D01*
X49188Y-21882D01*
X49214Y-21977D01*
X49280Y-22000D01*
X49191Y-22037D01*
X49038Y-22190D01*
X49000Y-22282D01*
X48962Y-22191D01*
X48809Y-22038D01*
X48717Y-22000D01*
X48808Y-21962D01*
X48961Y-21809D01*
X48997Y-21724D01*
X49022Y-21785D01*
X49117Y-21811D01*
X49429Y-21500D01*
X49117Y-21188D01*
X49022Y-21214D01*
X48999Y-21280D01*
X48962Y-21191D01*
X48809Y-21038D01*
X48608Y-20954D01*
X48392Y-20954D01*
X48191Y-21037D01*
X48038Y-21190D01*
X48002Y-21275D01*
X47977Y-21214D01*
X47882Y-21188D01*
X47811Y-21258D01*
X47811Y-21117D01*
X47785Y-21022D01*
X47580Y-20949D01*
X47363Y-20960D01*
X47214Y-21022D01*
X47188Y-21117D01*
X47500Y-21429D01*
X47811Y-21117D01*
X47811Y-21258D01*
X47570Y-21500D01*
X47882Y-21811D01*
X47977Y-21785D01*
X48000Y-21719D01*
X48037Y-21808D01*
X48190Y-21961D01*
X48282Y-21999D01*
X48191Y-22037D01*
X48038Y-22190D01*
X48000Y-22282D01*
X47962Y-22191D01*
X47809Y-22038D01*
X47724Y-22002D01*
X47785Y-21977D01*
X47811Y-21882D01*
X47500Y-21570D01*
X47188Y-21882D01*
X47214Y-21977D01*
X47280Y-22000D01*
X47191Y-22037D01*
X47038Y-22190D01*
X47000Y-22282D01*
X46962Y-22191D01*
X46809Y-22038D01*
X46717Y-22000D01*
X46808Y-21962D01*
X46961Y-21809D01*
X46997Y-21724D01*
X47022Y-21785D01*
X47117Y-21811D01*
X47429Y-21500D01*
X47117Y-21188D01*
X47022Y-21214D01*
X46999Y-21280D01*
X46962Y-21191D01*
X46809Y-21038D01*
X46608Y-20954D01*
X46392Y-20954D01*
X46191Y-21037D01*
X46038Y-21190D01*
X46002Y-21275D01*
X45977Y-21214D01*
X45882Y-21188D01*
X45811Y-21258D01*
X45811Y-21117D01*
X45785Y-21022D01*
X45580Y-20949D01*
X45363Y-20960D01*
X45214Y-21022D01*
X45188Y-21117D01*
X45500Y-21429D01*
X45811Y-21117D01*
X45811Y-21258D01*
X45570Y-21500D01*
X45882Y-21811D01*
X45977Y-21785D01*
X46000Y-21719D01*
X46037Y-21808D01*
X46190Y-21961D01*
X46282Y-21999D01*
X46191Y-22037D01*
X46038Y-22190D01*
X46000Y-22282D01*
X45962Y-22191D01*
X45809Y-22038D01*
X45724Y-22002D01*
X45785Y-21977D01*
X45811Y-21882D01*
X45500Y-21570D01*
X45429Y-21641D01*
X45429Y-21500D01*
X45117Y-21188D01*
X45022Y-21214D01*
X45001Y-21273D01*
X44977Y-21214D01*
X44882Y-21188D01*
X44811Y-21258D01*
X44811Y-21117D01*
X44785Y-21022D01*
X44580Y-20949D01*
X44363Y-20960D01*
X44214Y-21022D01*
X44188Y-21117D01*
X44500Y-21429D01*
X44811Y-21117D01*
X44811Y-21258D01*
X44570Y-21500D01*
X44882Y-21811D01*
X44977Y-21785D01*
X44998Y-21726D01*
X45022Y-21785D01*
X45117Y-21811D01*
X45429Y-21500D01*
X45429Y-21641D01*
X45188Y-21882D01*
X45214Y-21977D01*
X45280Y-22000D01*
X45191Y-22037D01*
X45038Y-22190D01*
X45000Y-22282D01*
X44962Y-22191D01*
X44809Y-22038D01*
X44724Y-22002D01*
X44785Y-21977D01*
X44811Y-21882D01*
X44500Y-21570D01*
X44188Y-21882D01*
X44214Y-21977D01*
X44280Y-22000D01*
X44191Y-22037D01*
X44038Y-22190D01*
X44000Y-22282D01*
X43962Y-22191D01*
X43809Y-22038D01*
X43717Y-22000D01*
X43808Y-21962D01*
X43961Y-21809D01*
X43997Y-21724D01*
X44022Y-21785D01*
X44117Y-21811D01*
X44429Y-21500D01*
X44117Y-21188D01*
X44022Y-21214D01*
X43999Y-21280D01*
X43962Y-21191D01*
X43809Y-21038D01*
X43608Y-20954D01*
X43392Y-20954D01*
X43191Y-21037D01*
X43038Y-21190D01*
X43000Y-21282D01*
X42962Y-21191D01*
X42809Y-21038D01*
X42608Y-20954D01*
X42392Y-20954D01*
X42191Y-21037D01*
X42038Y-21190D01*
X41954Y-21391D01*
X41954Y-21607D01*
X42037Y-21808D01*
X42190Y-21961D01*
X42282Y-21999D01*
X42191Y-22037D01*
X42038Y-22190D01*
X41954Y-22391D01*
X41954Y-22607D01*
X42037Y-22808D01*
X42190Y-22961D01*
X42391Y-23045D01*
X42607Y-23045D01*
X42808Y-22962D01*
X42961Y-22809D01*
X42999Y-22717D01*
X43037Y-22808D01*
X43190Y-22961D01*
X43391Y-23045D01*
X43607Y-23045D01*
X43808Y-22962D01*
X43961Y-22809D01*
X43999Y-22717D01*
X44037Y-22808D01*
X44190Y-22961D01*
X44391Y-23045D01*
X44607Y-23045D01*
X44808Y-22962D01*
X44961Y-22809D01*
X44999Y-22717D01*
X45037Y-22808D01*
X45190Y-22961D01*
X45391Y-23045D01*
X45607Y-23045D01*
X45808Y-22962D01*
X45961Y-22809D01*
X45999Y-22717D01*
X46037Y-22808D01*
X46190Y-22961D01*
X46391Y-23045D01*
X46607Y-23045D01*
X46808Y-22962D01*
X46961Y-22809D01*
X46999Y-22717D01*
X47037Y-22808D01*
X47190Y-22961D01*
X47200Y-22965D01*
X47200Y-24375D01*
X46875Y-24700D01*
X43000Y-24700D01*
X42885Y-24722D01*
X42787Y-24787D01*
X41787Y-25787D01*
X41769Y-25815D01*
X41769Y-20769D01*
X59230Y-20769D01*
X59230Y-21815D01*
X59230Y-21815D01*
G37*
G54D15*
X59230Y-21815D02*
X59212Y-21787D01*
X59212Y-21787D01*
X59041Y-21617D01*
X59045Y-21608D01*
X59045Y-21392D01*
X58962Y-21191D01*
X58809Y-21038D01*
X58608Y-20954D01*
X58392Y-20954D01*
X58191Y-21037D01*
X58038Y-21190D01*
X58000Y-21282D01*
X57962Y-21191D01*
X57809Y-21038D01*
X57608Y-20954D01*
X57392Y-20954D01*
X57191Y-21037D01*
X57038Y-21190D01*
X57002Y-21275D01*
X56977Y-21214D01*
X56882Y-21188D01*
X56811Y-21258D01*
X56811Y-21117D01*
X56785Y-21022D01*
X56580Y-20949D01*
X56363Y-20960D01*
X56214Y-21022D01*
X56188Y-21117D01*
X56500Y-21429D01*
X56811Y-21117D01*
X56811Y-21258D01*
X56570Y-21500D01*
X56882Y-21811D01*
X56977Y-21785D01*
X57000Y-21719D01*
X57037Y-21808D01*
X57190Y-21961D01*
X57282Y-21999D01*
X57191Y-22037D01*
X57038Y-22190D01*
X57000Y-22282D01*
X56962Y-22191D01*
X56809Y-22038D01*
X56724Y-22002D01*
X56785Y-21977D01*
X56811Y-21882D01*
X56500Y-21570D01*
X56429Y-21641D01*
X56429Y-21500D01*
X56117Y-21188D01*
X56022Y-21214D01*
X56001Y-21273D01*
X55977Y-21214D01*
X55882Y-21188D01*
X55811Y-21258D01*
X55811Y-21117D01*
X55785Y-21022D01*
X55580Y-20949D01*
X55363Y-20960D01*
X55214Y-21022D01*
X55188Y-21117D01*
X55500Y-21429D01*
X55811Y-21117D01*
X55811Y-21258D01*
X55570Y-21500D01*
X55882Y-21811D01*
X55977Y-21785D01*
X55998Y-21726D01*
X56022Y-21785D01*
X56117Y-21811D01*
X56429Y-21500D01*
X56429Y-21641D01*
X56188Y-21882D01*
X56214Y-21977D01*
X56280Y-22000D01*
X56191Y-22037D01*
X56038Y-22190D01*
X56000Y-22282D01*
X55962Y-22191D01*
X55809Y-22038D01*
X55724Y-22002D01*
X55785Y-21977D01*
X55811Y-21882D01*
X55500Y-21570D01*
X55188Y-21882D01*
X55214Y-21977D01*
X55280Y-22000D01*
X55191Y-22037D01*
X55038Y-22190D01*
X55000Y-22282D01*
X54962Y-22191D01*
X54809Y-22038D01*
X54717Y-22000D01*
X54808Y-21962D01*
X54961Y-21809D01*
X54997Y-21724D01*
X55022Y-21785D01*
X55117Y-21811D01*
X55429Y-21500D01*
X55117Y-21188D01*
X55022Y-21214D01*
X54999Y-21280D01*
X54962Y-21191D01*
X54809Y-21038D01*
X54608Y-20954D01*
X54392Y-20954D01*
X54191Y-21037D01*
X54038Y-21190D01*
X54002Y-21275D01*
X53977Y-21214D01*
X53882Y-21188D01*
X53811Y-21258D01*
X53811Y-21117D01*
X53785Y-21022D01*
X53580Y-20949D01*
X53363Y-20960D01*
X53214Y-21022D01*
X53188Y-21117D01*
X53500Y-21429D01*
X53811Y-21117D01*
X53811Y-21258D01*
X53570Y-21500D01*
X53882Y-21811D01*
X53977Y-21785D01*
X54000Y-21719D01*
X54037Y-21808D01*
X54190Y-21961D01*
X54282Y-21999D01*
X54191Y-22037D01*
X54038Y-22190D01*
X54000Y-22282D01*
X53962Y-22191D01*
X53809Y-22038D01*
X53724Y-22002D01*
X53785Y-21977D01*
X53811Y-21882D01*
X53500Y-21570D01*
X53188Y-21882D01*
X53214Y-21977D01*
X53280Y-22000D01*
X53191Y-22037D01*
X53038Y-22190D01*
X53000Y-22282D01*
X52962Y-22191D01*
X52809Y-22038D01*
X52717Y-22000D01*
X52808Y-21962D01*
X52961Y-21809D01*
X52997Y-21724D01*
X53022Y-21785D01*
X53117Y-21811D01*
X53429Y-21500D01*
X53117Y-21188D01*
X53022Y-21214D01*
X52999Y-21280D01*
X52962Y-21191D01*
X52809Y-21038D01*
X52608Y-20954D01*
X52392Y-20954D01*
X52191Y-21037D01*
X52038Y-21190D01*
X52002Y-21275D01*
X51977Y-21214D01*
X51882Y-21188D01*
X51811Y-21258D01*
X51811Y-21117D01*
X51785Y-21022D01*
X51580Y-20949D01*
X51363Y-20960D01*
X51214Y-21022D01*
X51188Y-21117D01*
X51500Y-21429D01*
X51811Y-21117D01*
X51811Y-21258D01*
X51570Y-21500D01*
X51882Y-21811D01*
X51977Y-21785D01*
X52000Y-21719D01*
X52037Y-21808D01*
X52190Y-21961D01*
X52282Y-21999D01*
X52191Y-22037D01*
X52038Y-22190D01*
X52000Y-22282D01*
X51962Y-22191D01*
X51809Y-22038D01*
X51724Y-22002D01*
X51785Y-21977D01*
X51811Y-21882D01*
X51500Y-21570D01*
X51188Y-21882D01*
X51214Y-21977D01*
X51280Y-22000D01*
X51191Y-22037D01*
X51038Y-22190D01*
X51000Y-22282D01*
X50962Y-22191D01*
X50809Y-22038D01*
X50717Y-22000D01*
X50808Y-21962D01*
X50961Y-21809D01*
X50997Y-21724D01*
X51022Y-21785D01*
X51117Y-21811D01*
X51429Y-21500D01*
X51117Y-21188D01*
X51022Y-21214D01*
X50999Y-21280D01*
X50962Y-21191D01*
X50809Y-21038D01*
X50608Y-20954D01*
X50392Y-20954D01*
X50191Y-21037D01*
X50038Y-21190D01*
X50002Y-21275D01*
X49977Y-21214D01*
X49882Y-21188D01*
X49811Y-21258D01*
X49811Y-21117D01*
X49785Y-21022D01*
X49580Y-20949D01*
X49363Y-20960D01*
X49214Y-21022D01*
X49188Y-21117D01*
X49500Y-21429D01*
X49811Y-21117D01*
X49811Y-21258D01*
X49570Y-21500D01*
X49882Y-21811D01*
X49977Y-21785D01*
X50000Y-21719D01*
X50037Y-21808D01*
X50190Y-21961D01*
X50282Y-21999D01*
X50191Y-22037D01*
X50038Y-22190D01*
X50000Y-22282D01*
X49962Y-22191D01*
X49809Y-22038D01*
X49724Y-22002D01*
X49785Y-21977D01*
X49811Y-21882D01*
X49500Y-21570D01*
X49188Y-21882D01*
X49214Y-21977D01*
X49280Y-22000D01*
X49191Y-22037D01*
X49038Y-22190D01*
X49000Y-22282D01*
X48962Y-22191D01*
X48809Y-22038D01*
X48717Y-22000D01*
X48808Y-21962D01*
X48961Y-21809D01*
X48997Y-21724D01*
X49022Y-21785D01*
X49117Y-21811D01*
X49429Y-21500D01*
X49117Y-21188D01*
X49022Y-21214D01*
X48999Y-21280D01*
X48962Y-21191D01*
X48809Y-21038D01*
X48608Y-20954D01*
X48392Y-20954D01*
X48191Y-21037D01*
X48038Y-21190D01*
X48002Y-21275D01*
X47977Y-21214D01*
X47882Y-21188D01*
X47811Y-21258D01*
X47811Y-21117D01*
X47785Y-21022D01*
X47580Y-20949D01*
X47363Y-20960D01*
X47214Y-21022D01*
X47188Y-21117D01*
X47500Y-21429D01*
X47811Y-21117D01*
X47811Y-21258D01*
X47570Y-21500D01*
X47882Y-21811D01*
X47977Y-21785D01*
X48000Y-21719D01*
X48037Y-21808D01*
X48190Y-21961D01*
X48282Y-21999D01*
X48191Y-22037D01*
X48038Y-22190D01*
X48000Y-22282D01*
X47962Y-22191D01*
X47809Y-22038D01*
X47724Y-22002D01*
X47785Y-21977D01*
X47811Y-21882D01*
X47500Y-21570D01*
X47188Y-21882D01*
X47214Y-21977D01*
X47280Y-22000D01*
X47191Y-22037D01*
X47038Y-22190D01*
X47000Y-22282D01*
X46962Y-22191D01*
X46809Y-22038D01*
X46717Y-22000D01*
X46808Y-21962D01*
X46961Y-21809D01*
X46997Y-21724D01*
X47022Y-21785D01*
X47117Y-21811D01*
X47429Y-21500D01*
X47117Y-21188D01*
X47022Y-21214D01*
X46999Y-21280D01*
X46962Y-21191D01*
X46809Y-21038D01*
X46608Y-20954D01*
X46392Y-20954D01*
X46191Y-21037D01*
X46038Y-21190D01*
X46002Y-21275D01*
X45977Y-21214D01*
X45882Y-21188D01*
X45811Y-21258D01*
X45811Y-21117D01*
X45785Y-21022D01*
X45580Y-20949D01*
X45363Y-20960D01*
X45214Y-21022D01*
X45188Y-21117D01*
X45500Y-21429D01*
X45811Y-21117D01*
X45811Y-21258D01*
X45570Y-21500D01*
X45882Y-21811D01*
X45977Y-21785D01*
X46000Y-21719D01*
X46037Y-21808D01*
X46190Y-21961D01*
X46282Y-21999D01*
X46191Y-22037D01*
X46038Y-22190D01*
X46000Y-22282D01*
X45962Y-22191D01*
X45809Y-22038D01*
X45724Y-22002D01*
X45785Y-21977D01*
X45811Y-21882D01*
X45500Y-21570D01*
X45429Y-21641D01*
X45429Y-21500D01*
X45117Y-21188D01*
X45022Y-21214D01*
X45001Y-21273D01*
X44977Y-21214D01*
X44882Y-21188D01*
X44811Y-21258D01*
X44811Y-21117D01*
X44785Y-21022D01*
X44580Y-20949D01*
X44363Y-20960D01*
X44214Y-21022D01*
X44188Y-21117D01*
X44500Y-21429D01*
X44811Y-21117D01*
X44811Y-21258D01*
X44570Y-21500D01*
X44882Y-21811D01*
X44977Y-21785D01*
X44998Y-21726D01*
X45022Y-21785D01*
X45117Y-21811D01*
X45429Y-21500D01*
X45429Y-21641D01*
X45188Y-21882D01*
X45214Y-21977D01*
X45280Y-22000D01*
X45191Y-22037D01*
X45038Y-22190D01*
X45000Y-22282D01*
X44962Y-22191D01*
X44809Y-22038D01*
X44724Y-22002D01*
X44785Y-21977D01*
X44811Y-21882D01*
X44500Y-21570D01*
X44188Y-21882D01*
X44214Y-21977D01*
X44280Y-22000D01*
X44191Y-22037D01*
X44038Y-22190D01*
X44000Y-22282D01*
X43962Y-22191D01*
X43809Y-22038D01*
X43717Y-22000D01*
X43808Y-21962D01*
X43961Y-21809D01*
X43997Y-21724D01*
X44022Y-21785D01*
X44117Y-21811D01*
X44429Y-21500D01*
X44117Y-21188D01*
X44022Y-21214D01*
X43999Y-21280D01*
X43962Y-21191D01*
X43809Y-21038D01*
X43608Y-20954D01*
X43392Y-20954D01*
X43191Y-21037D01*
X43038Y-21190D01*
X43000Y-21282D01*
X42962Y-21191D01*
X42809Y-21038D01*
X42608Y-20954D01*
X42392Y-20954D01*
X42191Y-21037D01*
X42038Y-21190D01*
X41954Y-21391D01*
X41954Y-21607D01*
X42037Y-21808D01*
X42190Y-21961D01*
X42282Y-21999D01*
X42191Y-22037D01*
X42038Y-22190D01*
X41954Y-22391D01*
X41954Y-22607D01*
X42037Y-22808D01*
X42190Y-22961D01*
X42391Y-23045D01*
X42607Y-23045D01*
X42808Y-22962D01*
X42961Y-22809D01*
X42999Y-22717D01*
X43037Y-22808D01*
X43190Y-22961D01*
X43391Y-23045D01*
X43607Y-23045D01*
X43808Y-22962D01*
X43961Y-22809D01*
X43999Y-22717D01*
X44037Y-22808D01*
X44190Y-22961D01*
X44391Y-23045D01*
X44607Y-23045D01*
X44808Y-22962D01*
X44961Y-22809D01*
X44999Y-22717D01*
X45037Y-22808D01*
X45190Y-22961D01*
X45391Y-23045D01*
X45607Y-23045D01*
X45808Y-22962D01*
X45961Y-22809D01*
X45999Y-22717D01*
X46037Y-22808D01*
X46190Y-22961D01*
X46391Y-23045D01*
X46607Y-23045D01*
X46808Y-22962D01*
X46961Y-22809D01*
X46999Y-22717D01*
X47037Y-22808D01*
X47190Y-22961D01*
X47200Y-22965D01*
X47200Y-24375D01*
X46875Y-24700D01*
X43000Y-24700D01*
X42885Y-24722D01*
X42787Y-24787D01*
X41787Y-25787D01*
X41769Y-25815D01*
X41769Y-20769D01*
X59230Y-20769D01*
X59230Y-21815D01*
G54D10*
G36*
X59230Y-35230D02*
X41769Y-35230D01*
X41769Y-29684D01*
X41787Y-29712D01*
X42458Y-30382D01*
X42454Y-30391D01*
X42454Y-30607D01*
X42537Y-30808D01*
X42690Y-30961D01*
X42891Y-31045D01*
X43107Y-31045D01*
X43308Y-30962D01*
X43461Y-30809D01*
X43545Y-30608D01*
X43545Y-30392D01*
X43462Y-30191D01*
X43309Y-30038D01*
X43217Y-30000D01*
X43308Y-29962D01*
X43461Y-29809D01*
X43545Y-29608D01*
X43545Y-29392D01*
X43462Y-29191D01*
X43309Y-29038D01*
X43217Y-29000D01*
X43308Y-28962D01*
X43461Y-28809D01*
X43545Y-28608D01*
X43545Y-28392D01*
X43462Y-28191D01*
X43309Y-28038D01*
X43217Y-28000D01*
X43308Y-27962D01*
X43461Y-27809D01*
X43465Y-27800D01*
X45700Y-27800D01*
X45700Y-29500D01*
X45722Y-29614D01*
X45787Y-29712D01*
X48287Y-32212D01*
X48385Y-32277D01*
X48500Y-32300D01*
X49500Y-32300D01*
X49500Y-32299D01*
X49614Y-32277D01*
X49614Y-32277D01*
X49712Y-32212D01*
X51212Y-30712D01*
X51212Y-30712D01*
X51277Y-30614D01*
X51299Y-30500D01*
X51300Y-30500D01*
X51300Y-26624D01*
X53712Y-24212D01*
X53777Y-24114D01*
X53799Y-24000D01*
X53800Y-24000D01*
X53800Y-22966D01*
X53808Y-22962D01*
X53961Y-22809D01*
X53999Y-22717D01*
X54037Y-22808D01*
X54190Y-22961D01*
X54391Y-23045D01*
X54607Y-23045D01*
X54808Y-22962D01*
X54961Y-22809D01*
X54999Y-22717D01*
X55037Y-22808D01*
X55190Y-22961D01*
X55391Y-23045D01*
X55607Y-23045D01*
X55808Y-22962D01*
X55961Y-22809D01*
X55999Y-22717D01*
X56037Y-22808D01*
X56190Y-22961D01*
X56200Y-22965D01*
X56200Y-27033D01*
X56191Y-27037D01*
X56038Y-27190D01*
X55954Y-27391D01*
X55954Y-27607D01*
X56037Y-27808D01*
X56190Y-27961D01*
X56391Y-28045D01*
X56607Y-28045D01*
X56808Y-27962D01*
X56961Y-27809D01*
X57045Y-27608D01*
X57045Y-27392D01*
X56962Y-27191D01*
X56809Y-27038D01*
X56800Y-27034D01*
X56800Y-22966D01*
X56808Y-22962D01*
X56961Y-22809D01*
X56999Y-22717D01*
X57037Y-22808D01*
X57190Y-22961D01*
X57200Y-22965D01*
X57200Y-25000D01*
X57222Y-25114D01*
X57287Y-25212D01*
X58200Y-26124D01*
X58200Y-32375D01*
X58045Y-32530D01*
X58045Y-29392D01*
X57962Y-29191D01*
X57809Y-29038D01*
X57608Y-28954D01*
X57392Y-28954D01*
X57191Y-29037D01*
X57038Y-29190D01*
X56954Y-29391D01*
X56954Y-29607D01*
X57037Y-29808D01*
X57190Y-29961D01*
X57391Y-30045D01*
X57607Y-30045D01*
X57808Y-29962D01*
X57961Y-29809D01*
X58045Y-29608D01*
X58045Y-29392D01*
X58045Y-32530D01*
X57375Y-33200D01*
X57029Y-33200D01*
X57029Y-32575D01*
X57018Y-32367D01*
X56960Y-32227D01*
X56867Y-32202D01*
X56797Y-32273D01*
X56797Y-32132D01*
X56772Y-32039D01*
X56575Y-31970D01*
X56367Y-31981D01*
X56227Y-32039D01*
X56202Y-32132D01*
X56500Y-32429D01*
X56797Y-32132D01*
X56797Y-32273D01*
X56570Y-32500D01*
X56867Y-32797D01*
X56960Y-32772D01*
X57029Y-32575D01*
X57029Y-33200D01*
X57025Y-33200D01*
X57025Y-33175D01*
X56987Y-33083D01*
X56916Y-33013D01*
X56824Y-32975D01*
X56737Y-32974D01*
X56772Y-32960D01*
X56797Y-32867D01*
X56500Y-32570D01*
X56429Y-32641D01*
X56429Y-32500D01*
X56132Y-32202D01*
X56050Y-32224D01*
X56050Y-29580D01*
X56039Y-29363D01*
X55977Y-29214D01*
X55882Y-29188D01*
X55811Y-29258D01*
X55811Y-29117D01*
X55785Y-29022D01*
X55580Y-28949D01*
X55363Y-28960D01*
X55214Y-29022D01*
X55188Y-29117D01*
X55500Y-29429D01*
X55811Y-29117D01*
X55811Y-29258D01*
X55570Y-29500D01*
X55882Y-29811D01*
X55977Y-29785D01*
X56050Y-29580D01*
X56050Y-32224D01*
X56039Y-32227D01*
X55970Y-32424D01*
X55981Y-32632D01*
X56039Y-32772D01*
X56132Y-32797D01*
X56429Y-32500D01*
X56429Y-32641D01*
X56202Y-32867D01*
X56227Y-32960D01*
X56268Y-32974D01*
X56175Y-32974D01*
X56083Y-33012D01*
X56013Y-33083D01*
X55975Y-33175D01*
X55975Y-33200D01*
X55811Y-33200D01*
X55811Y-29882D01*
X55500Y-29570D01*
X55429Y-29641D01*
X55429Y-29500D01*
X55117Y-29188D01*
X55022Y-29214D01*
X54949Y-29419D01*
X54960Y-29636D01*
X55022Y-29785D01*
X55117Y-29811D01*
X55429Y-29500D01*
X55429Y-29641D01*
X55188Y-29882D01*
X55214Y-29977D01*
X55419Y-30050D01*
X55636Y-30039D01*
X55785Y-29977D01*
X55811Y-29882D01*
X55811Y-33200D01*
X52442Y-33200D01*
X52297Y-33055D01*
X52104Y-32975D01*
X51896Y-32974D01*
X51703Y-33054D01*
X51555Y-33202D01*
X51475Y-33395D01*
X51474Y-33550D01*
X51300Y-33375D01*
X51300Y-31624D01*
X51899Y-31024D01*
X52103Y-31025D01*
X52297Y-30945D01*
X52444Y-30797D01*
X52524Y-30604D01*
X52525Y-30396D01*
X52445Y-30203D01*
X52297Y-30055D01*
X52104Y-29975D01*
X51896Y-29974D01*
X51703Y-30054D01*
X51555Y-30202D01*
X51475Y-30395D01*
X51474Y-30600D01*
X50787Y-31287D01*
X50722Y-31385D01*
X50700Y-31500D01*
X50700Y-33500D01*
X50722Y-33614D01*
X50787Y-33712D01*
X51787Y-34712D01*
X51787Y-34712D01*
X51885Y-34777D01*
X52000Y-34800D01*
X57500Y-34800D01*
X57500Y-34799D01*
X57614Y-34777D01*
X57614Y-34777D01*
X57712Y-34712D01*
X59212Y-33212D01*
X59212Y-33212D01*
X59230Y-33184D01*
X59230Y-35230D01*
X59230Y-35230D01*
G37*
G54D15*
X59230Y-35230D02*
X41769Y-35230D01*
X41769Y-29684D01*
X41787Y-29712D01*
X42458Y-30382D01*
X42454Y-30391D01*
X42454Y-30607D01*
X42537Y-30808D01*
X42690Y-30961D01*
X42891Y-31045D01*
X43107Y-31045D01*
X43308Y-30962D01*
X43461Y-30809D01*
X43545Y-30608D01*
X43545Y-30392D01*
X43462Y-30191D01*
X43309Y-30038D01*
X43217Y-30000D01*
X43308Y-29962D01*
X43461Y-29809D01*
X43545Y-29608D01*
X43545Y-29392D01*
X43462Y-29191D01*
X43309Y-29038D01*
X43217Y-29000D01*
X43308Y-28962D01*
X43461Y-28809D01*
X43545Y-28608D01*
X43545Y-28392D01*
X43462Y-28191D01*
X43309Y-28038D01*
X43217Y-28000D01*
X43308Y-27962D01*
X43461Y-27809D01*
X43465Y-27800D01*
X45700Y-27800D01*
X45700Y-29500D01*
X45722Y-29614D01*
X45787Y-29712D01*
X48287Y-32212D01*
X48385Y-32277D01*
X48500Y-32300D01*
X49500Y-32300D01*
X49500Y-32299D01*
X49614Y-32277D01*
X49614Y-32277D01*
X49712Y-32212D01*
X51212Y-30712D01*
X51212Y-30712D01*
X51277Y-30614D01*
X51299Y-30500D01*
X51300Y-30500D01*
X51300Y-26624D01*
X53712Y-24212D01*
X53777Y-24114D01*
X53799Y-24000D01*
X53800Y-24000D01*
X53800Y-22966D01*
X53808Y-22962D01*
X53961Y-22809D01*
X53999Y-22717D01*
X54037Y-22808D01*
X54190Y-22961D01*
X54391Y-23045D01*
X54607Y-23045D01*
X54808Y-22962D01*
X54961Y-22809D01*
X54999Y-22717D01*
X55037Y-22808D01*
X55190Y-22961D01*
X55391Y-23045D01*
X55607Y-23045D01*
X55808Y-22962D01*
X55961Y-22809D01*
X55999Y-22717D01*
X56037Y-22808D01*
X56190Y-22961D01*
X56200Y-22965D01*
X56200Y-27033D01*
X56191Y-27037D01*
X56038Y-27190D01*
X55954Y-27391D01*
X55954Y-27607D01*
X56037Y-27808D01*
X56190Y-27961D01*
X56391Y-28045D01*
X56607Y-28045D01*
X56808Y-27962D01*
X56961Y-27809D01*
X57045Y-27608D01*
X57045Y-27392D01*
X56962Y-27191D01*
X56809Y-27038D01*
X56800Y-27034D01*
X56800Y-22966D01*
X56808Y-22962D01*
X56961Y-22809D01*
X56999Y-22717D01*
X57037Y-22808D01*
X57190Y-22961D01*
X57200Y-22965D01*
X57200Y-25000D01*
X57222Y-25114D01*
X57287Y-25212D01*
X58200Y-26124D01*
X58200Y-32375D01*
X58045Y-32530D01*
X58045Y-29392D01*
X57962Y-29191D01*
X57809Y-29038D01*
X57608Y-28954D01*
X57392Y-28954D01*
X57191Y-29037D01*
X57038Y-29190D01*
X56954Y-29391D01*
X56954Y-29607D01*
X57037Y-29808D01*
X57190Y-29961D01*
X57391Y-30045D01*
X57607Y-30045D01*
X57808Y-29962D01*
X57961Y-29809D01*
X58045Y-29608D01*
X58045Y-29392D01*
X58045Y-32530D01*
X57375Y-33200D01*
X57029Y-33200D01*
X57029Y-32575D01*
X57018Y-32367D01*
X56960Y-32227D01*
X56867Y-32202D01*
X56797Y-32273D01*
X56797Y-32132D01*
X56772Y-32039D01*
X56575Y-31970D01*
X56367Y-31981D01*
X56227Y-32039D01*
X56202Y-32132D01*
X56500Y-32429D01*
X56797Y-32132D01*
X56797Y-32273D01*
X56570Y-32500D01*
X56867Y-32797D01*
X56960Y-32772D01*
X57029Y-32575D01*
X57029Y-33200D01*
X57025Y-33200D01*
X57025Y-33175D01*
X56987Y-33083D01*
X56916Y-33013D01*
X56824Y-32975D01*
X56737Y-32974D01*
X56772Y-32960D01*
X56797Y-32867D01*
X56500Y-32570D01*
X56429Y-32641D01*
X56429Y-32500D01*
X56132Y-32202D01*
X56050Y-32224D01*
X56050Y-29580D01*
X56039Y-29363D01*
X55977Y-29214D01*
X55882Y-29188D01*
X55811Y-29258D01*
X55811Y-29117D01*
X55785Y-29022D01*
X55580Y-28949D01*
X55363Y-28960D01*
X55214Y-29022D01*
X55188Y-29117D01*
X55500Y-29429D01*
X55811Y-29117D01*
X55811Y-29258D01*
X55570Y-29500D01*
X55882Y-29811D01*
X55977Y-29785D01*
X56050Y-29580D01*
X56050Y-32224D01*
X56039Y-32227D01*
X55970Y-32424D01*
X55981Y-32632D01*
X56039Y-32772D01*
X56132Y-32797D01*
X56429Y-32500D01*
X56429Y-32641D01*
X56202Y-32867D01*
X56227Y-32960D01*
X56268Y-32974D01*
X56175Y-32974D01*
X56083Y-33012D01*
X56013Y-33083D01*
X55975Y-33175D01*
X55975Y-33200D01*
X55811Y-33200D01*
X55811Y-29882D01*
X55500Y-29570D01*
X55429Y-29641D01*
X55429Y-29500D01*
X55117Y-29188D01*
X55022Y-29214D01*
X54949Y-29419D01*
X54960Y-29636D01*
X55022Y-29785D01*
X55117Y-29811D01*
X55429Y-29500D01*
X55429Y-29641D01*
X55188Y-29882D01*
X55214Y-29977D01*
X55419Y-30050D01*
X55636Y-30039D01*
X55785Y-29977D01*
X55811Y-29882D01*
X55811Y-33200D01*
X52442Y-33200D01*
X52297Y-33055D01*
X52104Y-32975D01*
X51896Y-32974D01*
X51703Y-33054D01*
X51555Y-33202D01*
X51475Y-33395D01*
X51474Y-33550D01*
X51300Y-33375D01*
X51300Y-31624D01*
X51899Y-31024D01*
X52103Y-31025D01*
X52297Y-30945D01*
X52444Y-30797D01*
X52524Y-30604D01*
X52525Y-30396D01*
X52445Y-30203D01*
X52297Y-30055D01*
X52104Y-29975D01*
X51896Y-29974D01*
X51703Y-30054D01*
X51555Y-30202D01*
X51475Y-30395D01*
X51474Y-30600D01*
X50787Y-31287D01*
X50722Y-31385D01*
X50700Y-31500D01*
X50700Y-33500D01*
X50722Y-33614D01*
X50787Y-33712D01*
X51787Y-34712D01*
X51787Y-34712D01*
X51885Y-34777D01*
X52000Y-34800D01*
X57500Y-34800D01*
X57500Y-34799D01*
X57614Y-34777D01*
X57614Y-34777D01*
X57712Y-34712D01*
X59212Y-33212D01*
X59212Y-33212D01*
X59230Y-33184D01*
X59230Y-35230D01*
M02*
