G04 (created by PCBNEW (2013-07-07 BZR 4022)-stable) date 3/3/2014 1:17:55 PM*
%MOIN*%
G04 Gerber Fmt 3.4, Leading zero omitted, Abs format*
%FSLAX34Y34*%
G01*
G70*
G90*
G04 APERTURE LIST*
%ADD10C,0.00590551*%
%ADD11C,0.055*%
%ADD12C,0.0590551*%
%ADD13R,0.055X0.055*%
%ADD14R,0.0590551X0.0590551*%
%ADD15C,0.01*%
G04 APERTURE END LIST*
G54D10*
G54D11*
X52000Y-33500D03*
X52000Y-30500D03*
G54D12*
X55500Y-29500D03*
X57500Y-29500D03*
X56500Y-27500D03*
G54D13*
X56500Y-33500D03*
G54D11*
X56500Y-32500D03*
G54D14*
X58500Y-22500D03*
G54D12*
X58500Y-21500D03*
X57500Y-22500D03*
X57500Y-21500D03*
X56500Y-22500D03*
X56500Y-21500D03*
X55500Y-22500D03*
X55500Y-21500D03*
X54500Y-22500D03*
X54500Y-21500D03*
X53500Y-22500D03*
X53500Y-21500D03*
X52500Y-22500D03*
X52500Y-21500D03*
X51500Y-22500D03*
X51500Y-21500D03*
X50500Y-22500D03*
X50500Y-21500D03*
X49500Y-22500D03*
X49500Y-21500D03*
X48500Y-22500D03*
X48500Y-21500D03*
X47500Y-22500D03*
X47500Y-21500D03*
X46500Y-22500D03*
X46500Y-21500D03*
X45500Y-22500D03*
X45500Y-21500D03*
X44500Y-22500D03*
X44500Y-21500D03*
X43500Y-22500D03*
X43500Y-21500D03*
X42500Y-22500D03*
X42500Y-21500D03*
G54D14*
X49000Y-30500D03*
G54D12*
X49000Y-29500D03*
X49000Y-28500D03*
X49000Y-27500D03*
X49000Y-26500D03*
X43000Y-26500D03*
X43000Y-27500D03*
X43000Y-28500D03*
X43000Y-29500D03*
X43000Y-30500D03*
G54D15*
X49000Y-26500D02*
X47000Y-26500D01*
X46500Y-26000D02*
X46500Y-22500D01*
X47000Y-26500D02*
X46500Y-26000D01*
G54D10*
G36*
X59230Y-35230D02*
X59045Y-35230D01*
X59045Y-21392D01*
X58962Y-21191D01*
X58809Y-21038D01*
X58608Y-20954D01*
X58392Y-20954D01*
X58191Y-21037D01*
X58038Y-21190D01*
X58000Y-21282D01*
X57962Y-21191D01*
X57809Y-21038D01*
X57608Y-20954D01*
X57392Y-20954D01*
X57191Y-21037D01*
X57038Y-21190D01*
X57000Y-21282D01*
X56962Y-21191D01*
X56809Y-21038D01*
X56608Y-20954D01*
X56392Y-20954D01*
X56191Y-21037D01*
X56038Y-21190D01*
X56000Y-21282D01*
X55962Y-21191D01*
X55809Y-21038D01*
X55608Y-20954D01*
X55392Y-20954D01*
X55191Y-21037D01*
X55038Y-21190D01*
X55000Y-21282D01*
X54962Y-21191D01*
X54809Y-21038D01*
X54608Y-20954D01*
X54392Y-20954D01*
X54191Y-21037D01*
X54038Y-21190D01*
X54000Y-21282D01*
X53962Y-21191D01*
X53809Y-21038D01*
X53608Y-20954D01*
X53392Y-20954D01*
X53191Y-21037D01*
X53038Y-21190D01*
X53000Y-21282D01*
X52962Y-21191D01*
X52809Y-21038D01*
X52608Y-20954D01*
X52392Y-20954D01*
X52191Y-21037D01*
X52038Y-21190D01*
X52000Y-21282D01*
X51962Y-21191D01*
X51809Y-21038D01*
X51608Y-20954D01*
X51392Y-20954D01*
X51191Y-21037D01*
X51038Y-21190D01*
X51000Y-21282D01*
X50962Y-21191D01*
X50809Y-21038D01*
X50608Y-20954D01*
X50392Y-20954D01*
X50191Y-21037D01*
X50038Y-21190D01*
X50000Y-21282D01*
X49962Y-21191D01*
X49809Y-21038D01*
X49608Y-20954D01*
X49392Y-20954D01*
X49191Y-21037D01*
X49038Y-21190D01*
X49000Y-21282D01*
X48962Y-21191D01*
X48809Y-21038D01*
X48608Y-20954D01*
X48392Y-20954D01*
X48191Y-21037D01*
X48038Y-21190D01*
X48000Y-21282D01*
X47962Y-21191D01*
X47809Y-21038D01*
X47608Y-20954D01*
X47392Y-20954D01*
X47191Y-21037D01*
X47038Y-21190D01*
X47000Y-21282D01*
X46962Y-21191D01*
X46809Y-21038D01*
X46608Y-20954D01*
X46392Y-20954D01*
X46191Y-21037D01*
X46038Y-21190D01*
X46000Y-21282D01*
X45962Y-21191D01*
X45809Y-21038D01*
X45608Y-20954D01*
X45392Y-20954D01*
X45191Y-21037D01*
X45038Y-21190D01*
X45000Y-21282D01*
X44962Y-21191D01*
X44809Y-21038D01*
X44608Y-20954D01*
X44392Y-20954D01*
X44191Y-21037D01*
X44038Y-21190D01*
X44000Y-21282D01*
X43962Y-21191D01*
X43809Y-21038D01*
X43608Y-20954D01*
X43392Y-20954D01*
X43191Y-21037D01*
X43038Y-21190D01*
X43000Y-21282D01*
X42962Y-21191D01*
X42809Y-21038D01*
X42608Y-20954D01*
X42392Y-20954D01*
X42191Y-21037D01*
X42038Y-21190D01*
X41954Y-21391D01*
X41954Y-21607D01*
X42037Y-21808D01*
X42190Y-21961D01*
X42275Y-21997D01*
X42214Y-22022D01*
X42188Y-22117D01*
X42500Y-22429D01*
X42811Y-22117D01*
X42785Y-22022D01*
X42719Y-21999D01*
X42808Y-21962D01*
X42961Y-21809D01*
X42999Y-21717D01*
X43037Y-21808D01*
X43190Y-21961D01*
X43282Y-21999D01*
X43191Y-22037D01*
X43038Y-22190D01*
X43002Y-22275D01*
X42977Y-22214D01*
X42882Y-22188D01*
X42570Y-22500D01*
X42882Y-22811D01*
X42977Y-22785D01*
X43000Y-22719D01*
X43037Y-22808D01*
X43190Y-22961D01*
X43391Y-23045D01*
X43607Y-23045D01*
X43808Y-22962D01*
X43961Y-22809D01*
X43999Y-22717D01*
X44037Y-22808D01*
X44190Y-22961D01*
X44391Y-23045D01*
X44607Y-23045D01*
X44808Y-22962D01*
X44961Y-22809D01*
X44999Y-22717D01*
X45037Y-22808D01*
X45190Y-22961D01*
X45391Y-23045D01*
X45607Y-23045D01*
X45808Y-22962D01*
X45961Y-22809D01*
X45999Y-22717D01*
X46037Y-22808D01*
X46190Y-22961D01*
X46200Y-22965D01*
X46200Y-26000D01*
X46222Y-26114D01*
X46287Y-26212D01*
X46787Y-26712D01*
X46787Y-26712D01*
X46885Y-26777D01*
X47000Y-26800D01*
X48533Y-26800D01*
X48537Y-26808D01*
X48690Y-26961D01*
X48782Y-26999D01*
X48691Y-27037D01*
X48538Y-27190D01*
X48454Y-27391D01*
X48454Y-27607D01*
X48537Y-27808D01*
X48690Y-27961D01*
X48775Y-27997D01*
X48714Y-28022D01*
X48688Y-28117D01*
X49000Y-28429D01*
X49311Y-28117D01*
X49285Y-28022D01*
X49219Y-27999D01*
X49308Y-27962D01*
X49461Y-27809D01*
X49545Y-27608D01*
X49545Y-27392D01*
X49462Y-27191D01*
X49309Y-27038D01*
X49217Y-27000D01*
X49308Y-26962D01*
X49461Y-26809D01*
X49545Y-26608D01*
X49545Y-26392D01*
X49462Y-26191D01*
X49309Y-26038D01*
X49108Y-25954D01*
X48892Y-25954D01*
X48691Y-26037D01*
X48538Y-26190D01*
X48534Y-26200D01*
X47124Y-26200D01*
X46800Y-25875D01*
X46800Y-22966D01*
X46808Y-22962D01*
X46961Y-22809D01*
X46999Y-22717D01*
X47037Y-22808D01*
X47190Y-22961D01*
X47391Y-23045D01*
X47607Y-23045D01*
X47808Y-22962D01*
X47961Y-22809D01*
X47999Y-22717D01*
X48037Y-22808D01*
X48190Y-22961D01*
X48391Y-23045D01*
X48607Y-23045D01*
X48808Y-22962D01*
X48961Y-22809D01*
X48999Y-22717D01*
X49037Y-22808D01*
X49190Y-22961D01*
X49391Y-23045D01*
X49607Y-23045D01*
X49808Y-22962D01*
X49961Y-22809D01*
X49999Y-22717D01*
X50037Y-22808D01*
X50190Y-22961D01*
X50391Y-23045D01*
X50607Y-23045D01*
X50808Y-22962D01*
X50961Y-22809D01*
X50999Y-22717D01*
X51037Y-22808D01*
X51190Y-22961D01*
X51391Y-23045D01*
X51607Y-23045D01*
X51808Y-22962D01*
X51961Y-22809D01*
X51999Y-22717D01*
X52037Y-22808D01*
X52190Y-22961D01*
X52391Y-23045D01*
X52607Y-23045D01*
X52808Y-22962D01*
X52961Y-22809D01*
X52999Y-22717D01*
X53037Y-22808D01*
X53190Y-22961D01*
X53391Y-23045D01*
X53607Y-23045D01*
X53808Y-22962D01*
X53961Y-22809D01*
X53999Y-22717D01*
X54037Y-22808D01*
X54190Y-22961D01*
X54391Y-23045D01*
X54607Y-23045D01*
X54808Y-22962D01*
X54961Y-22809D01*
X54999Y-22717D01*
X55037Y-22808D01*
X55190Y-22961D01*
X55391Y-23045D01*
X55607Y-23045D01*
X55808Y-22962D01*
X55961Y-22809D01*
X55999Y-22717D01*
X56037Y-22808D01*
X56190Y-22961D01*
X56391Y-23045D01*
X56607Y-23045D01*
X56808Y-22962D01*
X56961Y-22809D01*
X56999Y-22717D01*
X57037Y-22808D01*
X57190Y-22961D01*
X57391Y-23045D01*
X57607Y-23045D01*
X57808Y-22962D01*
X57954Y-22816D01*
X57954Y-22844D01*
X57992Y-22936D01*
X58062Y-23007D01*
X58154Y-23045D01*
X58254Y-23045D01*
X58844Y-23045D01*
X58936Y-23007D01*
X59007Y-22937D01*
X59045Y-22845D01*
X59045Y-22745D01*
X59045Y-22155D01*
X59007Y-22063D01*
X58937Y-21992D01*
X58845Y-21954D01*
X58816Y-21954D01*
X58961Y-21809D01*
X59045Y-21608D01*
X59045Y-21392D01*
X59045Y-35230D01*
X58050Y-35230D01*
X58050Y-29580D01*
X58039Y-29363D01*
X57977Y-29214D01*
X57882Y-29188D01*
X57811Y-29258D01*
X57811Y-29117D01*
X57785Y-29022D01*
X57580Y-28949D01*
X57363Y-28960D01*
X57214Y-29022D01*
X57188Y-29117D01*
X57500Y-29429D01*
X57811Y-29117D01*
X57811Y-29258D01*
X57570Y-29500D01*
X57882Y-29811D01*
X57977Y-29785D01*
X58050Y-29580D01*
X58050Y-35230D01*
X57811Y-35230D01*
X57811Y-29882D01*
X57500Y-29570D01*
X57429Y-29641D01*
X57429Y-29500D01*
X57117Y-29188D01*
X57045Y-29208D01*
X57045Y-27392D01*
X56962Y-27191D01*
X56809Y-27038D01*
X56608Y-26954D01*
X56392Y-26954D01*
X56191Y-27037D01*
X56038Y-27190D01*
X55954Y-27391D01*
X55954Y-27607D01*
X56037Y-27808D01*
X56190Y-27961D01*
X56391Y-28045D01*
X56607Y-28045D01*
X56808Y-27962D01*
X56961Y-27809D01*
X57045Y-27608D01*
X57045Y-27392D01*
X57045Y-29208D01*
X57022Y-29214D01*
X56949Y-29419D01*
X56960Y-29636D01*
X57022Y-29785D01*
X57117Y-29811D01*
X57429Y-29500D01*
X57429Y-29641D01*
X57188Y-29882D01*
X57214Y-29977D01*
X57419Y-30050D01*
X57636Y-30039D01*
X57785Y-29977D01*
X57811Y-29882D01*
X57811Y-35230D01*
X57025Y-35230D01*
X57025Y-32396D01*
X56945Y-32203D01*
X56797Y-32055D01*
X56604Y-31975D01*
X56396Y-31974D01*
X56203Y-32054D01*
X56055Y-32202D01*
X56045Y-32225D01*
X56045Y-29392D01*
X55962Y-29191D01*
X55809Y-29038D01*
X55608Y-28954D01*
X55392Y-28954D01*
X55191Y-29037D01*
X55038Y-29190D01*
X54954Y-29391D01*
X54954Y-29607D01*
X55037Y-29808D01*
X55190Y-29961D01*
X55391Y-30045D01*
X55607Y-30045D01*
X55808Y-29962D01*
X55961Y-29809D01*
X56045Y-29608D01*
X56045Y-29392D01*
X56045Y-32225D01*
X55975Y-32395D01*
X55974Y-32603D01*
X56054Y-32797D01*
X56202Y-32944D01*
X56274Y-32974D01*
X56175Y-32974D01*
X56083Y-33012D01*
X56013Y-33083D01*
X55975Y-33175D01*
X55974Y-33274D01*
X55974Y-33824D01*
X56012Y-33916D01*
X56083Y-33986D01*
X56175Y-34024D01*
X56274Y-34025D01*
X56824Y-34025D01*
X56916Y-33987D01*
X56986Y-33916D01*
X57024Y-33824D01*
X57025Y-33725D01*
X57025Y-33175D01*
X56987Y-33083D01*
X56916Y-33013D01*
X56824Y-32975D01*
X56725Y-32974D01*
X56725Y-32974D01*
X56797Y-32945D01*
X56944Y-32797D01*
X57024Y-32604D01*
X57025Y-32396D01*
X57025Y-35230D01*
X52525Y-35230D01*
X52525Y-33396D01*
X52525Y-30396D01*
X52445Y-30203D01*
X52297Y-30055D01*
X52104Y-29975D01*
X51896Y-29974D01*
X51703Y-30054D01*
X51555Y-30202D01*
X51475Y-30395D01*
X51474Y-30603D01*
X51554Y-30797D01*
X51702Y-30944D01*
X51895Y-31024D01*
X52103Y-31025D01*
X52297Y-30945D01*
X52444Y-30797D01*
X52524Y-30604D01*
X52525Y-30396D01*
X52525Y-33396D01*
X52445Y-33203D01*
X52297Y-33055D01*
X52104Y-32975D01*
X51896Y-32974D01*
X51703Y-33054D01*
X51555Y-33202D01*
X51475Y-33395D01*
X51474Y-33603D01*
X51554Y-33797D01*
X51702Y-33944D01*
X51895Y-34024D01*
X52103Y-34025D01*
X52297Y-33945D01*
X52444Y-33797D01*
X52524Y-33604D01*
X52525Y-33396D01*
X52525Y-35230D01*
X49550Y-35230D01*
X49550Y-28580D01*
X49539Y-28363D01*
X49477Y-28214D01*
X49382Y-28188D01*
X49070Y-28500D01*
X49382Y-28811D01*
X49477Y-28785D01*
X49550Y-28580D01*
X49550Y-35230D01*
X49545Y-35230D01*
X49545Y-29392D01*
X49462Y-29191D01*
X49309Y-29038D01*
X49224Y-29002D01*
X49285Y-28977D01*
X49311Y-28882D01*
X49000Y-28570D01*
X48929Y-28641D01*
X48929Y-28500D01*
X48617Y-28188D01*
X48522Y-28214D01*
X48449Y-28419D01*
X48460Y-28636D01*
X48522Y-28785D01*
X48617Y-28811D01*
X48929Y-28500D01*
X48929Y-28641D01*
X48688Y-28882D01*
X48714Y-28977D01*
X48780Y-29000D01*
X48691Y-29037D01*
X48538Y-29190D01*
X48454Y-29391D01*
X48454Y-29607D01*
X48537Y-29808D01*
X48683Y-29954D01*
X48655Y-29954D01*
X48563Y-29992D01*
X48492Y-30062D01*
X48454Y-30154D01*
X48454Y-30254D01*
X48454Y-30844D01*
X48492Y-30936D01*
X48562Y-31007D01*
X48654Y-31045D01*
X48754Y-31045D01*
X49344Y-31045D01*
X49436Y-31007D01*
X49507Y-30937D01*
X49545Y-30845D01*
X49545Y-30745D01*
X49545Y-30155D01*
X49507Y-30063D01*
X49437Y-29992D01*
X49345Y-29954D01*
X49316Y-29954D01*
X49461Y-29809D01*
X49545Y-29608D01*
X49545Y-29392D01*
X49545Y-35230D01*
X43550Y-35230D01*
X43550Y-28580D01*
X43545Y-28488D01*
X43545Y-27392D01*
X43462Y-27191D01*
X43309Y-27038D01*
X43217Y-27000D01*
X43308Y-26962D01*
X43461Y-26809D01*
X43545Y-26608D01*
X43545Y-26392D01*
X43462Y-26191D01*
X43309Y-26038D01*
X43108Y-25954D01*
X42892Y-25954D01*
X42811Y-25987D01*
X42811Y-22882D01*
X42500Y-22570D01*
X42429Y-22641D01*
X42429Y-22500D01*
X42117Y-22188D01*
X42022Y-22214D01*
X41949Y-22419D01*
X41960Y-22636D01*
X42022Y-22785D01*
X42117Y-22811D01*
X42429Y-22500D01*
X42429Y-22641D01*
X42188Y-22882D01*
X42214Y-22977D01*
X42419Y-23050D01*
X42636Y-23039D01*
X42785Y-22977D01*
X42811Y-22882D01*
X42811Y-25987D01*
X42691Y-26037D01*
X42538Y-26190D01*
X42454Y-26391D01*
X42454Y-26607D01*
X42537Y-26808D01*
X42690Y-26961D01*
X42782Y-26999D01*
X42691Y-27037D01*
X42538Y-27190D01*
X42454Y-27391D01*
X42454Y-27607D01*
X42537Y-27808D01*
X42690Y-27961D01*
X42775Y-27997D01*
X42714Y-28022D01*
X42688Y-28117D01*
X43000Y-28429D01*
X43311Y-28117D01*
X43285Y-28022D01*
X43219Y-27999D01*
X43308Y-27962D01*
X43461Y-27809D01*
X43545Y-27608D01*
X43545Y-27392D01*
X43545Y-28488D01*
X43539Y-28363D01*
X43477Y-28214D01*
X43382Y-28188D01*
X43070Y-28500D01*
X43382Y-28811D01*
X43477Y-28785D01*
X43550Y-28580D01*
X43550Y-35230D01*
X43545Y-35230D01*
X43545Y-30392D01*
X43462Y-30191D01*
X43309Y-30038D01*
X43217Y-30000D01*
X43308Y-29962D01*
X43461Y-29809D01*
X43545Y-29608D01*
X43545Y-29392D01*
X43462Y-29191D01*
X43309Y-29038D01*
X43224Y-29002D01*
X43285Y-28977D01*
X43311Y-28882D01*
X43000Y-28570D01*
X42929Y-28641D01*
X42929Y-28500D01*
X42617Y-28188D01*
X42522Y-28214D01*
X42449Y-28419D01*
X42460Y-28636D01*
X42522Y-28785D01*
X42617Y-28811D01*
X42929Y-28500D01*
X42929Y-28641D01*
X42688Y-28882D01*
X42714Y-28977D01*
X42780Y-29000D01*
X42691Y-29037D01*
X42538Y-29190D01*
X42454Y-29391D01*
X42454Y-29607D01*
X42537Y-29808D01*
X42690Y-29961D01*
X42782Y-29999D01*
X42691Y-30037D01*
X42538Y-30190D01*
X42454Y-30391D01*
X42454Y-30607D01*
X42537Y-30808D01*
X42690Y-30961D01*
X42891Y-31045D01*
X43107Y-31045D01*
X43308Y-30962D01*
X43461Y-30809D01*
X43545Y-30608D01*
X43545Y-30392D01*
X43545Y-35230D01*
X41769Y-35230D01*
X41769Y-20769D01*
X59230Y-20769D01*
X59230Y-35230D01*
X59230Y-35230D01*
G37*
G54D15*
X59230Y-35230D02*
X59045Y-35230D01*
X59045Y-21392D01*
X58962Y-21191D01*
X58809Y-21038D01*
X58608Y-20954D01*
X58392Y-20954D01*
X58191Y-21037D01*
X58038Y-21190D01*
X58000Y-21282D01*
X57962Y-21191D01*
X57809Y-21038D01*
X57608Y-20954D01*
X57392Y-20954D01*
X57191Y-21037D01*
X57038Y-21190D01*
X57000Y-21282D01*
X56962Y-21191D01*
X56809Y-21038D01*
X56608Y-20954D01*
X56392Y-20954D01*
X56191Y-21037D01*
X56038Y-21190D01*
X56000Y-21282D01*
X55962Y-21191D01*
X55809Y-21038D01*
X55608Y-20954D01*
X55392Y-20954D01*
X55191Y-21037D01*
X55038Y-21190D01*
X55000Y-21282D01*
X54962Y-21191D01*
X54809Y-21038D01*
X54608Y-20954D01*
X54392Y-20954D01*
X54191Y-21037D01*
X54038Y-21190D01*
X54000Y-21282D01*
X53962Y-21191D01*
X53809Y-21038D01*
X53608Y-20954D01*
X53392Y-20954D01*
X53191Y-21037D01*
X53038Y-21190D01*
X53000Y-21282D01*
X52962Y-21191D01*
X52809Y-21038D01*
X52608Y-20954D01*
X52392Y-20954D01*
X52191Y-21037D01*
X52038Y-21190D01*
X52000Y-21282D01*
X51962Y-21191D01*
X51809Y-21038D01*
X51608Y-20954D01*
X51392Y-20954D01*
X51191Y-21037D01*
X51038Y-21190D01*
X51000Y-21282D01*
X50962Y-21191D01*
X50809Y-21038D01*
X50608Y-20954D01*
X50392Y-20954D01*
X50191Y-21037D01*
X50038Y-21190D01*
X50000Y-21282D01*
X49962Y-21191D01*
X49809Y-21038D01*
X49608Y-20954D01*
X49392Y-20954D01*
X49191Y-21037D01*
X49038Y-21190D01*
X49000Y-21282D01*
X48962Y-21191D01*
X48809Y-21038D01*
X48608Y-20954D01*
X48392Y-20954D01*
X48191Y-21037D01*
X48038Y-21190D01*
X48000Y-21282D01*
X47962Y-21191D01*
X47809Y-21038D01*
X47608Y-20954D01*
X47392Y-20954D01*
X47191Y-21037D01*
X47038Y-21190D01*
X47000Y-21282D01*
X46962Y-21191D01*
X46809Y-21038D01*
X46608Y-20954D01*
X46392Y-20954D01*
X46191Y-21037D01*
X46038Y-21190D01*
X46000Y-21282D01*
X45962Y-21191D01*
X45809Y-21038D01*
X45608Y-20954D01*
X45392Y-20954D01*
X45191Y-21037D01*
X45038Y-21190D01*
X45000Y-21282D01*
X44962Y-21191D01*
X44809Y-21038D01*
X44608Y-20954D01*
X44392Y-20954D01*
X44191Y-21037D01*
X44038Y-21190D01*
X44000Y-21282D01*
X43962Y-21191D01*
X43809Y-21038D01*
X43608Y-20954D01*
X43392Y-20954D01*
X43191Y-21037D01*
X43038Y-21190D01*
X43000Y-21282D01*
X42962Y-21191D01*
X42809Y-21038D01*
X42608Y-20954D01*
X42392Y-20954D01*
X42191Y-21037D01*
X42038Y-21190D01*
X41954Y-21391D01*
X41954Y-21607D01*
X42037Y-21808D01*
X42190Y-21961D01*
X42275Y-21997D01*
X42214Y-22022D01*
X42188Y-22117D01*
X42500Y-22429D01*
X42811Y-22117D01*
X42785Y-22022D01*
X42719Y-21999D01*
X42808Y-21962D01*
X42961Y-21809D01*
X42999Y-21717D01*
X43037Y-21808D01*
X43190Y-21961D01*
X43282Y-21999D01*
X43191Y-22037D01*
X43038Y-22190D01*
X43002Y-22275D01*
X42977Y-22214D01*
X42882Y-22188D01*
X42570Y-22500D01*
X42882Y-22811D01*
X42977Y-22785D01*
X43000Y-22719D01*
X43037Y-22808D01*
X43190Y-22961D01*
X43391Y-23045D01*
X43607Y-23045D01*
X43808Y-22962D01*
X43961Y-22809D01*
X43999Y-22717D01*
X44037Y-22808D01*
X44190Y-22961D01*
X44391Y-23045D01*
X44607Y-23045D01*
X44808Y-22962D01*
X44961Y-22809D01*
X44999Y-22717D01*
X45037Y-22808D01*
X45190Y-22961D01*
X45391Y-23045D01*
X45607Y-23045D01*
X45808Y-22962D01*
X45961Y-22809D01*
X45999Y-22717D01*
X46037Y-22808D01*
X46190Y-22961D01*
X46200Y-22965D01*
X46200Y-26000D01*
X46222Y-26114D01*
X46287Y-26212D01*
X46787Y-26712D01*
X46787Y-26712D01*
X46885Y-26777D01*
X47000Y-26800D01*
X48533Y-26800D01*
X48537Y-26808D01*
X48690Y-26961D01*
X48782Y-26999D01*
X48691Y-27037D01*
X48538Y-27190D01*
X48454Y-27391D01*
X48454Y-27607D01*
X48537Y-27808D01*
X48690Y-27961D01*
X48775Y-27997D01*
X48714Y-28022D01*
X48688Y-28117D01*
X49000Y-28429D01*
X49311Y-28117D01*
X49285Y-28022D01*
X49219Y-27999D01*
X49308Y-27962D01*
X49461Y-27809D01*
X49545Y-27608D01*
X49545Y-27392D01*
X49462Y-27191D01*
X49309Y-27038D01*
X49217Y-27000D01*
X49308Y-26962D01*
X49461Y-26809D01*
X49545Y-26608D01*
X49545Y-26392D01*
X49462Y-26191D01*
X49309Y-26038D01*
X49108Y-25954D01*
X48892Y-25954D01*
X48691Y-26037D01*
X48538Y-26190D01*
X48534Y-26200D01*
X47124Y-26200D01*
X46800Y-25875D01*
X46800Y-22966D01*
X46808Y-22962D01*
X46961Y-22809D01*
X46999Y-22717D01*
X47037Y-22808D01*
X47190Y-22961D01*
X47391Y-23045D01*
X47607Y-23045D01*
X47808Y-22962D01*
X47961Y-22809D01*
X47999Y-22717D01*
X48037Y-22808D01*
X48190Y-22961D01*
X48391Y-23045D01*
X48607Y-23045D01*
X48808Y-22962D01*
X48961Y-22809D01*
X48999Y-22717D01*
X49037Y-22808D01*
X49190Y-22961D01*
X49391Y-23045D01*
X49607Y-23045D01*
X49808Y-22962D01*
X49961Y-22809D01*
X49999Y-22717D01*
X50037Y-22808D01*
X50190Y-22961D01*
X50391Y-23045D01*
X50607Y-23045D01*
X50808Y-22962D01*
X50961Y-22809D01*
X50999Y-22717D01*
X51037Y-22808D01*
X51190Y-22961D01*
X51391Y-23045D01*
X51607Y-23045D01*
X51808Y-22962D01*
X51961Y-22809D01*
X51999Y-22717D01*
X52037Y-22808D01*
X52190Y-22961D01*
X52391Y-23045D01*
X52607Y-23045D01*
X52808Y-22962D01*
X52961Y-22809D01*
X52999Y-22717D01*
X53037Y-22808D01*
X53190Y-22961D01*
X53391Y-23045D01*
X53607Y-23045D01*
X53808Y-22962D01*
X53961Y-22809D01*
X53999Y-22717D01*
X54037Y-22808D01*
X54190Y-22961D01*
X54391Y-23045D01*
X54607Y-23045D01*
X54808Y-22962D01*
X54961Y-22809D01*
X54999Y-22717D01*
X55037Y-22808D01*
X55190Y-22961D01*
X55391Y-23045D01*
X55607Y-23045D01*
X55808Y-22962D01*
X55961Y-22809D01*
X55999Y-22717D01*
X56037Y-22808D01*
X56190Y-22961D01*
X56391Y-23045D01*
X56607Y-23045D01*
X56808Y-22962D01*
X56961Y-22809D01*
X56999Y-22717D01*
X57037Y-22808D01*
X57190Y-22961D01*
X57391Y-23045D01*
X57607Y-23045D01*
X57808Y-22962D01*
X57954Y-22816D01*
X57954Y-22844D01*
X57992Y-22936D01*
X58062Y-23007D01*
X58154Y-23045D01*
X58254Y-23045D01*
X58844Y-23045D01*
X58936Y-23007D01*
X59007Y-22937D01*
X59045Y-22845D01*
X59045Y-22745D01*
X59045Y-22155D01*
X59007Y-22063D01*
X58937Y-21992D01*
X58845Y-21954D01*
X58816Y-21954D01*
X58961Y-21809D01*
X59045Y-21608D01*
X59045Y-21392D01*
X59045Y-35230D01*
X58050Y-35230D01*
X58050Y-29580D01*
X58039Y-29363D01*
X57977Y-29214D01*
X57882Y-29188D01*
X57811Y-29258D01*
X57811Y-29117D01*
X57785Y-29022D01*
X57580Y-28949D01*
X57363Y-28960D01*
X57214Y-29022D01*
X57188Y-29117D01*
X57500Y-29429D01*
X57811Y-29117D01*
X57811Y-29258D01*
X57570Y-29500D01*
X57882Y-29811D01*
X57977Y-29785D01*
X58050Y-29580D01*
X58050Y-35230D01*
X57811Y-35230D01*
X57811Y-29882D01*
X57500Y-29570D01*
X57429Y-29641D01*
X57429Y-29500D01*
X57117Y-29188D01*
X57045Y-29208D01*
X57045Y-27392D01*
X56962Y-27191D01*
X56809Y-27038D01*
X56608Y-26954D01*
X56392Y-26954D01*
X56191Y-27037D01*
X56038Y-27190D01*
X55954Y-27391D01*
X55954Y-27607D01*
X56037Y-27808D01*
X56190Y-27961D01*
X56391Y-28045D01*
X56607Y-28045D01*
X56808Y-27962D01*
X56961Y-27809D01*
X57045Y-27608D01*
X57045Y-27392D01*
X57045Y-29208D01*
X57022Y-29214D01*
X56949Y-29419D01*
X56960Y-29636D01*
X57022Y-29785D01*
X57117Y-29811D01*
X57429Y-29500D01*
X57429Y-29641D01*
X57188Y-29882D01*
X57214Y-29977D01*
X57419Y-30050D01*
X57636Y-30039D01*
X57785Y-29977D01*
X57811Y-29882D01*
X57811Y-35230D01*
X57025Y-35230D01*
X57025Y-32396D01*
X56945Y-32203D01*
X56797Y-32055D01*
X56604Y-31975D01*
X56396Y-31974D01*
X56203Y-32054D01*
X56055Y-32202D01*
X56045Y-32225D01*
X56045Y-29392D01*
X55962Y-29191D01*
X55809Y-29038D01*
X55608Y-28954D01*
X55392Y-28954D01*
X55191Y-29037D01*
X55038Y-29190D01*
X54954Y-29391D01*
X54954Y-29607D01*
X55037Y-29808D01*
X55190Y-29961D01*
X55391Y-30045D01*
X55607Y-30045D01*
X55808Y-29962D01*
X55961Y-29809D01*
X56045Y-29608D01*
X56045Y-29392D01*
X56045Y-32225D01*
X55975Y-32395D01*
X55974Y-32603D01*
X56054Y-32797D01*
X56202Y-32944D01*
X56274Y-32974D01*
X56175Y-32974D01*
X56083Y-33012D01*
X56013Y-33083D01*
X55975Y-33175D01*
X55974Y-33274D01*
X55974Y-33824D01*
X56012Y-33916D01*
X56083Y-33986D01*
X56175Y-34024D01*
X56274Y-34025D01*
X56824Y-34025D01*
X56916Y-33987D01*
X56986Y-33916D01*
X57024Y-33824D01*
X57025Y-33725D01*
X57025Y-33175D01*
X56987Y-33083D01*
X56916Y-33013D01*
X56824Y-32975D01*
X56725Y-32974D01*
X56725Y-32974D01*
X56797Y-32945D01*
X56944Y-32797D01*
X57024Y-32604D01*
X57025Y-32396D01*
X57025Y-35230D01*
X52525Y-35230D01*
X52525Y-33396D01*
X52525Y-30396D01*
X52445Y-30203D01*
X52297Y-30055D01*
X52104Y-29975D01*
X51896Y-29974D01*
X51703Y-30054D01*
X51555Y-30202D01*
X51475Y-30395D01*
X51474Y-30603D01*
X51554Y-30797D01*
X51702Y-30944D01*
X51895Y-31024D01*
X52103Y-31025D01*
X52297Y-30945D01*
X52444Y-30797D01*
X52524Y-30604D01*
X52525Y-30396D01*
X52525Y-33396D01*
X52445Y-33203D01*
X52297Y-33055D01*
X52104Y-32975D01*
X51896Y-32974D01*
X51703Y-33054D01*
X51555Y-33202D01*
X51475Y-33395D01*
X51474Y-33603D01*
X51554Y-33797D01*
X51702Y-33944D01*
X51895Y-34024D01*
X52103Y-34025D01*
X52297Y-33945D01*
X52444Y-33797D01*
X52524Y-33604D01*
X52525Y-33396D01*
X52525Y-35230D01*
X49550Y-35230D01*
X49550Y-28580D01*
X49539Y-28363D01*
X49477Y-28214D01*
X49382Y-28188D01*
X49070Y-28500D01*
X49382Y-28811D01*
X49477Y-28785D01*
X49550Y-28580D01*
X49550Y-35230D01*
X49545Y-35230D01*
X49545Y-29392D01*
X49462Y-29191D01*
X49309Y-29038D01*
X49224Y-29002D01*
X49285Y-28977D01*
X49311Y-28882D01*
X49000Y-28570D01*
X48929Y-28641D01*
X48929Y-28500D01*
X48617Y-28188D01*
X48522Y-28214D01*
X48449Y-28419D01*
X48460Y-28636D01*
X48522Y-28785D01*
X48617Y-28811D01*
X48929Y-28500D01*
X48929Y-28641D01*
X48688Y-28882D01*
X48714Y-28977D01*
X48780Y-29000D01*
X48691Y-29037D01*
X48538Y-29190D01*
X48454Y-29391D01*
X48454Y-29607D01*
X48537Y-29808D01*
X48683Y-29954D01*
X48655Y-29954D01*
X48563Y-29992D01*
X48492Y-30062D01*
X48454Y-30154D01*
X48454Y-30254D01*
X48454Y-30844D01*
X48492Y-30936D01*
X48562Y-31007D01*
X48654Y-31045D01*
X48754Y-31045D01*
X49344Y-31045D01*
X49436Y-31007D01*
X49507Y-30937D01*
X49545Y-30845D01*
X49545Y-30745D01*
X49545Y-30155D01*
X49507Y-30063D01*
X49437Y-29992D01*
X49345Y-29954D01*
X49316Y-29954D01*
X49461Y-29809D01*
X49545Y-29608D01*
X49545Y-29392D01*
X49545Y-35230D01*
X43550Y-35230D01*
X43550Y-28580D01*
X43545Y-28488D01*
X43545Y-27392D01*
X43462Y-27191D01*
X43309Y-27038D01*
X43217Y-27000D01*
X43308Y-26962D01*
X43461Y-26809D01*
X43545Y-26608D01*
X43545Y-26392D01*
X43462Y-26191D01*
X43309Y-26038D01*
X43108Y-25954D01*
X42892Y-25954D01*
X42811Y-25987D01*
X42811Y-22882D01*
X42500Y-22570D01*
X42429Y-22641D01*
X42429Y-22500D01*
X42117Y-22188D01*
X42022Y-22214D01*
X41949Y-22419D01*
X41960Y-22636D01*
X42022Y-22785D01*
X42117Y-22811D01*
X42429Y-22500D01*
X42429Y-22641D01*
X42188Y-22882D01*
X42214Y-22977D01*
X42419Y-23050D01*
X42636Y-23039D01*
X42785Y-22977D01*
X42811Y-22882D01*
X42811Y-25987D01*
X42691Y-26037D01*
X42538Y-26190D01*
X42454Y-26391D01*
X42454Y-26607D01*
X42537Y-26808D01*
X42690Y-26961D01*
X42782Y-26999D01*
X42691Y-27037D01*
X42538Y-27190D01*
X42454Y-27391D01*
X42454Y-27607D01*
X42537Y-27808D01*
X42690Y-27961D01*
X42775Y-27997D01*
X42714Y-28022D01*
X42688Y-28117D01*
X43000Y-28429D01*
X43311Y-28117D01*
X43285Y-28022D01*
X43219Y-27999D01*
X43308Y-27962D01*
X43461Y-27809D01*
X43545Y-27608D01*
X43545Y-27392D01*
X43545Y-28488D01*
X43539Y-28363D01*
X43477Y-28214D01*
X43382Y-28188D01*
X43070Y-28500D01*
X43382Y-28811D01*
X43477Y-28785D01*
X43550Y-28580D01*
X43550Y-35230D01*
X43545Y-35230D01*
X43545Y-30392D01*
X43462Y-30191D01*
X43309Y-30038D01*
X43217Y-30000D01*
X43308Y-29962D01*
X43461Y-29809D01*
X43545Y-29608D01*
X43545Y-29392D01*
X43462Y-29191D01*
X43309Y-29038D01*
X43224Y-29002D01*
X43285Y-28977D01*
X43311Y-28882D01*
X43000Y-28570D01*
X42929Y-28641D01*
X42929Y-28500D01*
X42617Y-28188D01*
X42522Y-28214D01*
X42449Y-28419D01*
X42460Y-28636D01*
X42522Y-28785D01*
X42617Y-28811D01*
X42929Y-28500D01*
X42929Y-28641D01*
X42688Y-28882D01*
X42714Y-28977D01*
X42780Y-29000D01*
X42691Y-29037D01*
X42538Y-29190D01*
X42454Y-29391D01*
X42454Y-29607D01*
X42537Y-29808D01*
X42690Y-29961D01*
X42782Y-29999D01*
X42691Y-30037D01*
X42538Y-30190D01*
X42454Y-30391D01*
X42454Y-30607D01*
X42537Y-30808D01*
X42690Y-30961D01*
X42891Y-31045D01*
X43107Y-31045D01*
X43308Y-30962D01*
X43461Y-30809D01*
X43545Y-30608D01*
X43545Y-30392D01*
X43545Y-35230D01*
X41769Y-35230D01*
X41769Y-20769D01*
X59230Y-20769D01*
X59230Y-35230D01*
M02*
