M48
;DRILL file {Pcbnew (2013-07-07 BZR 4022)-stable} date 2/24/2014 11:30:41 AM
;FORMAT={-:-/ absolute / inch / decimal}
FMAT,2
INCH,TZ
T1C0.024
T2C0.025
T3C0.031
T4C0.032
%
G90
G05
M72
T1
X4.4Y-2.7
X4.4Y-3.3
X4.5Y-2.7
X4.5Y-3.3
X4.6Y-2.7
X4.6Y-3.3
X4.7Y-2.7
X4.7Y-3.3
X4.8Y-2.7
X4.8Y-3.3
X5.46Y-3.04
X5.56Y-3.24
X5.66Y-3.04
T2
X5.25Y-2.75
T3
X4.25Y-2.15
X4.25Y-2.25
X4.35Y-2.15
X4.35Y-2.25
X4.45Y-2.15
X4.45Y-2.25
X4.55Y-2.15
X4.55Y-2.25
X4.65Y-2.15
X4.65Y-2.25
X4.75Y-2.15
X4.75Y-2.25
X4.85Y-2.15
X4.85Y-2.25
X4.95Y-2.15
X4.95Y-2.25
X5.05Y-2.15
X5.05Y-2.25
X5.15Y-2.15
X5.15Y-2.25
X5.25Y-2.15
X5.25Y-2.25
X5.35Y-2.15
X5.35Y-2.25
X5.45Y-2.15
X5.45Y-2.25
X5.55Y-2.15
X5.55Y-2.25
X5.65Y-2.15
X5.65Y-2.25
X5.75Y-2.15
X5.75Y-2.25
X5.85Y-2.15
X5.85Y-2.25
T4
X5.Y-2.5
X5.3Y-2.5
X5.55Y-2.5
X5.55Y-2.6
T0
M30
