G04 (created by PCBNEW (2013-07-07 BZR 4022)-stable) date 2/24/2014 11:30:39 AM*
%MOIN*%
G04 Gerber Fmt 3.4, Leading zero omitted, Abs format*
%FSLAX34Y34*%
G01*
G70*
G90*
G04 APERTURE LIST*
%ADD10C,0.00590551*%
%ADD11C,0.055*%
%ADD12C,0.0590551*%
%ADD13R,0.0590551X0.0590551*%
%ADD14R,0.055X0.055*%
%ADD15C,0.035*%
%ADD16C,0.01*%
G04 APERTURE END LIST*
G54D10*
G54D11*
X53000Y-25000D03*
X50000Y-25000D03*
G54D12*
X56600Y-30400D03*
X54600Y-30400D03*
X55600Y-32400D03*
G54D13*
X44000Y-33000D03*
G54D12*
X45000Y-33000D03*
X46000Y-33000D03*
X47000Y-33000D03*
X48000Y-33000D03*
X48000Y-27000D03*
X47000Y-27000D03*
X46000Y-27000D03*
X45000Y-27000D03*
X44000Y-27000D03*
G54D14*
X55500Y-25000D03*
G54D11*
X55500Y-26000D03*
G54D13*
X58500Y-22500D03*
G54D12*
X58500Y-21500D03*
X57500Y-22500D03*
X57500Y-21500D03*
X56500Y-22500D03*
X56500Y-21500D03*
X55500Y-22500D03*
X55500Y-21500D03*
X54500Y-22500D03*
X54500Y-21500D03*
X53500Y-22500D03*
X53500Y-21500D03*
X52500Y-22500D03*
X52500Y-21500D03*
X51500Y-22500D03*
X51500Y-21500D03*
X50500Y-22500D03*
X50500Y-21500D03*
X49500Y-22500D03*
X49500Y-21500D03*
X48500Y-22500D03*
X48500Y-21500D03*
X47500Y-22500D03*
X47500Y-21500D03*
X46500Y-22500D03*
X46500Y-21500D03*
X45500Y-22500D03*
X45500Y-21500D03*
X44500Y-22500D03*
X44500Y-21500D03*
X43500Y-22500D03*
X43500Y-21500D03*
X42500Y-22500D03*
X42500Y-21500D03*
G54D15*
X52500Y-27500D03*
G54D16*
X54500Y-29000D02*
X54500Y-30300D01*
X54500Y-28000D02*
X55000Y-27500D01*
X55000Y-27500D02*
X57500Y-27500D01*
X57500Y-27500D02*
X58500Y-26500D01*
X58500Y-22500D02*
X58500Y-26500D01*
X54500Y-29000D02*
X54500Y-28000D01*
X54500Y-30300D02*
X54600Y-30400D01*
X55500Y-25000D02*
X55500Y-24500D01*
X55500Y-24500D02*
X57500Y-22500D01*
X50000Y-25000D02*
X50000Y-25500D01*
X58000Y-22000D02*
X58500Y-21500D01*
X58000Y-26000D02*
X58000Y-22000D01*
X57000Y-27000D02*
X58000Y-26000D01*
X51500Y-27000D02*
X57000Y-27000D01*
X50000Y-25500D02*
X51500Y-27000D01*
X47000Y-27000D02*
X47000Y-27500D01*
X52000Y-24000D02*
X53500Y-22500D01*
X50000Y-24000D02*
X52000Y-24000D01*
X49000Y-25000D02*
X50000Y-24000D01*
X49000Y-27500D02*
X49000Y-25000D01*
X48500Y-28000D02*
X49000Y-27500D01*
X47500Y-28000D02*
X48500Y-28000D01*
X47000Y-27500D02*
X47500Y-28000D01*
X48000Y-27000D02*
X48000Y-24000D01*
X51500Y-23500D02*
X52500Y-22500D01*
X48500Y-23500D02*
X51500Y-23500D01*
X48000Y-24000D02*
X48500Y-23500D01*
X48000Y-33000D02*
X48000Y-32000D01*
X45500Y-23500D02*
X46500Y-22500D01*
X44500Y-24500D02*
X45500Y-23500D01*
X43000Y-26000D02*
X44500Y-24500D01*
X43000Y-30500D02*
X43000Y-26000D01*
X43500Y-31000D02*
X43000Y-30500D01*
X47000Y-31000D02*
X43500Y-31000D01*
X48000Y-32000D02*
X47000Y-31000D01*
X45000Y-27000D02*
X45000Y-26000D01*
X45000Y-26000D02*
X48500Y-22500D01*
X44000Y-27000D02*
X44000Y-26000D01*
X44000Y-26000D02*
X47500Y-22500D01*
G54D10*
G36*
X57700Y-25875D02*
X56875Y-26700D01*
X56029Y-26700D01*
X56029Y-26075D01*
X56018Y-25867D01*
X55960Y-25727D01*
X55867Y-25702D01*
X55570Y-26000D01*
X55867Y-26297D01*
X55960Y-26272D01*
X56029Y-26075D01*
X56029Y-26700D01*
X55797Y-26700D01*
X55797Y-26367D01*
X55500Y-26070D01*
X55429Y-26141D01*
X55429Y-26000D01*
X55132Y-25702D01*
X55039Y-25727D01*
X54970Y-25924D01*
X54981Y-26132D01*
X55039Y-26272D01*
X55132Y-26297D01*
X55429Y-26000D01*
X55429Y-26141D01*
X55202Y-26367D01*
X55227Y-26460D01*
X55424Y-26529D01*
X55632Y-26518D01*
X55772Y-26460D01*
X55797Y-26367D01*
X55797Y-26700D01*
X53525Y-26700D01*
X53525Y-24896D01*
X53445Y-24703D01*
X53297Y-24555D01*
X53104Y-24475D01*
X52896Y-24474D01*
X52703Y-24554D01*
X52555Y-24702D01*
X52475Y-24895D01*
X52474Y-25103D01*
X52554Y-25297D01*
X52702Y-25444D01*
X52895Y-25524D01*
X53103Y-25525D01*
X53297Y-25445D01*
X53444Y-25297D01*
X53524Y-25104D01*
X53525Y-24896D01*
X53525Y-26700D01*
X51624Y-26700D01*
X50333Y-25409D01*
X50444Y-25297D01*
X50524Y-25104D01*
X50525Y-24896D01*
X50445Y-24703D01*
X50297Y-24555D01*
X50104Y-24475D01*
X49949Y-24474D01*
X50124Y-24300D01*
X52000Y-24300D01*
X52000Y-24299D01*
X52114Y-24277D01*
X52114Y-24277D01*
X52212Y-24212D01*
X53382Y-23041D01*
X53391Y-23045D01*
X53607Y-23045D01*
X53808Y-22962D01*
X53961Y-22809D01*
X53999Y-22717D01*
X54037Y-22808D01*
X54190Y-22961D01*
X54391Y-23045D01*
X54607Y-23045D01*
X54808Y-22962D01*
X54961Y-22809D01*
X54999Y-22717D01*
X55037Y-22808D01*
X55190Y-22961D01*
X55391Y-23045D01*
X55607Y-23045D01*
X55808Y-22962D01*
X55961Y-22809D01*
X55999Y-22717D01*
X56037Y-22808D01*
X56190Y-22961D01*
X56391Y-23045D01*
X56530Y-23045D01*
X55287Y-24287D01*
X55222Y-24385D01*
X55204Y-24474D01*
X55175Y-24474D01*
X55083Y-24512D01*
X55013Y-24583D01*
X54975Y-24675D01*
X54974Y-24774D01*
X54974Y-25324D01*
X55012Y-25416D01*
X55083Y-25486D01*
X55175Y-25524D01*
X55262Y-25525D01*
X55227Y-25539D01*
X55202Y-25632D01*
X55500Y-25929D01*
X55797Y-25632D01*
X55772Y-25539D01*
X55731Y-25525D01*
X55824Y-25525D01*
X55916Y-25487D01*
X55986Y-25416D01*
X56024Y-25324D01*
X56025Y-25225D01*
X56025Y-24675D01*
X55987Y-24583D01*
X55916Y-24513D01*
X55912Y-24511D01*
X57382Y-23041D01*
X57391Y-23045D01*
X57607Y-23045D01*
X57700Y-23007D01*
X57700Y-25875D01*
X57700Y-25875D01*
G37*
G54D16*
X57700Y-25875D02*
X56875Y-26700D01*
X56029Y-26700D01*
X56029Y-26075D01*
X56018Y-25867D01*
X55960Y-25727D01*
X55867Y-25702D01*
X55570Y-26000D01*
X55867Y-26297D01*
X55960Y-26272D01*
X56029Y-26075D01*
X56029Y-26700D01*
X55797Y-26700D01*
X55797Y-26367D01*
X55500Y-26070D01*
X55429Y-26141D01*
X55429Y-26000D01*
X55132Y-25702D01*
X55039Y-25727D01*
X54970Y-25924D01*
X54981Y-26132D01*
X55039Y-26272D01*
X55132Y-26297D01*
X55429Y-26000D01*
X55429Y-26141D01*
X55202Y-26367D01*
X55227Y-26460D01*
X55424Y-26529D01*
X55632Y-26518D01*
X55772Y-26460D01*
X55797Y-26367D01*
X55797Y-26700D01*
X53525Y-26700D01*
X53525Y-24896D01*
X53445Y-24703D01*
X53297Y-24555D01*
X53104Y-24475D01*
X52896Y-24474D01*
X52703Y-24554D01*
X52555Y-24702D01*
X52475Y-24895D01*
X52474Y-25103D01*
X52554Y-25297D01*
X52702Y-25444D01*
X52895Y-25524D01*
X53103Y-25525D01*
X53297Y-25445D01*
X53444Y-25297D01*
X53524Y-25104D01*
X53525Y-24896D01*
X53525Y-26700D01*
X51624Y-26700D01*
X50333Y-25409D01*
X50444Y-25297D01*
X50524Y-25104D01*
X50525Y-24896D01*
X50445Y-24703D01*
X50297Y-24555D01*
X50104Y-24475D01*
X49949Y-24474D01*
X50124Y-24300D01*
X52000Y-24300D01*
X52000Y-24299D01*
X52114Y-24277D01*
X52114Y-24277D01*
X52212Y-24212D01*
X53382Y-23041D01*
X53391Y-23045D01*
X53607Y-23045D01*
X53808Y-22962D01*
X53961Y-22809D01*
X53999Y-22717D01*
X54037Y-22808D01*
X54190Y-22961D01*
X54391Y-23045D01*
X54607Y-23045D01*
X54808Y-22962D01*
X54961Y-22809D01*
X54999Y-22717D01*
X55037Y-22808D01*
X55190Y-22961D01*
X55391Y-23045D01*
X55607Y-23045D01*
X55808Y-22962D01*
X55961Y-22809D01*
X55999Y-22717D01*
X56037Y-22808D01*
X56190Y-22961D01*
X56391Y-23045D01*
X56530Y-23045D01*
X55287Y-24287D01*
X55222Y-24385D01*
X55204Y-24474D01*
X55175Y-24474D01*
X55083Y-24512D01*
X55013Y-24583D01*
X54975Y-24675D01*
X54974Y-24774D01*
X54974Y-25324D01*
X55012Y-25416D01*
X55083Y-25486D01*
X55175Y-25524D01*
X55262Y-25525D01*
X55227Y-25539D01*
X55202Y-25632D01*
X55500Y-25929D01*
X55797Y-25632D01*
X55772Y-25539D01*
X55731Y-25525D01*
X55824Y-25525D01*
X55916Y-25487D01*
X55986Y-25416D01*
X56024Y-25324D01*
X56025Y-25225D01*
X56025Y-24675D01*
X55987Y-24583D01*
X55916Y-24513D01*
X55912Y-24511D01*
X57382Y-23041D01*
X57391Y-23045D01*
X57607Y-23045D01*
X57700Y-23007D01*
X57700Y-25875D01*
G54D10*
G36*
X59230Y-35230D02*
X59045Y-35230D01*
X59045Y-21392D01*
X58962Y-21191D01*
X58809Y-21038D01*
X58608Y-20954D01*
X58392Y-20954D01*
X58191Y-21037D01*
X58038Y-21190D01*
X58000Y-21282D01*
X57962Y-21191D01*
X57809Y-21038D01*
X57608Y-20954D01*
X57392Y-20954D01*
X57191Y-21037D01*
X57038Y-21190D01*
X57002Y-21275D01*
X56977Y-21214D01*
X56882Y-21188D01*
X56811Y-21258D01*
X56811Y-21117D01*
X56785Y-21022D01*
X56580Y-20949D01*
X56363Y-20960D01*
X56214Y-21022D01*
X56188Y-21117D01*
X56500Y-21429D01*
X56811Y-21117D01*
X56811Y-21258D01*
X56570Y-21500D01*
X56882Y-21811D01*
X56977Y-21785D01*
X57000Y-21719D01*
X57037Y-21808D01*
X57190Y-21961D01*
X57282Y-21999D01*
X57191Y-22037D01*
X57038Y-22190D01*
X57000Y-22282D01*
X56962Y-22191D01*
X56809Y-22038D01*
X56724Y-22002D01*
X56785Y-21977D01*
X56811Y-21882D01*
X56500Y-21570D01*
X56429Y-21641D01*
X56429Y-21500D01*
X56117Y-21188D01*
X56022Y-21214D01*
X56001Y-21273D01*
X55977Y-21214D01*
X55882Y-21188D01*
X55811Y-21258D01*
X55811Y-21117D01*
X55785Y-21022D01*
X55580Y-20949D01*
X55363Y-20960D01*
X55214Y-21022D01*
X55188Y-21117D01*
X55500Y-21429D01*
X55811Y-21117D01*
X55811Y-21258D01*
X55570Y-21500D01*
X55882Y-21811D01*
X55977Y-21785D01*
X55998Y-21726D01*
X56022Y-21785D01*
X56117Y-21811D01*
X56429Y-21500D01*
X56429Y-21641D01*
X56188Y-21882D01*
X56214Y-21977D01*
X56280Y-22000D01*
X56191Y-22037D01*
X56038Y-22190D01*
X56000Y-22282D01*
X55962Y-22191D01*
X55809Y-22038D01*
X55724Y-22002D01*
X55785Y-21977D01*
X55811Y-21882D01*
X55500Y-21570D01*
X55188Y-21882D01*
X55214Y-21977D01*
X55280Y-22000D01*
X55191Y-22037D01*
X55038Y-22190D01*
X55000Y-22282D01*
X54962Y-22191D01*
X54809Y-22038D01*
X54717Y-22000D01*
X54808Y-21962D01*
X54961Y-21809D01*
X54997Y-21724D01*
X55022Y-21785D01*
X55117Y-21811D01*
X55429Y-21500D01*
X55117Y-21188D01*
X55022Y-21214D01*
X54999Y-21280D01*
X54962Y-21191D01*
X54809Y-21038D01*
X54608Y-20954D01*
X54392Y-20954D01*
X54191Y-21037D01*
X54038Y-21190D01*
X54002Y-21275D01*
X53977Y-21214D01*
X53882Y-21188D01*
X53811Y-21258D01*
X53811Y-21117D01*
X53785Y-21022D01*
X53580Y-20949D01*
X53363Y-20960D01*
X53214Y-21022D01*
X53188Y-21117D01*
X53500Y-21429D01*
X53811Y-21117D01*
X53811Y-21258D01*
X53570Y-21500D01*
X53882Y-21811D01*
X53977Y-21785D01*
X54000Y-21719D01*
X54037Y-21808D01*
X54190Y-21961D01*
X54282Y-21999D01*
X54191Y-22037D01*
X54038Y-22190D01*
X54000Y-22282D01*
X53962Y-22191D01*
X53809Y-22038D01*
X53724Y-22002D01*
X53785Y-21977D01*
X53811Y-21882D01*
X53500Y-21570D01*
X53188Y-21882D01*
X53214Y-21977D01*
X53280Y-22000D01*
X53191Y-22037D01*
X53038Y-22190D01*
X53000Y-22282D01*
X52962Y-22191D01*
X52809Y-22038D01*
X52717Y-22000D01*
X52808Y-21962D01*
X52961Y-21809D01*
X52997Y-21724D01*
X53022Y-21785D01*
X53117Y-21811D01*
X53429Y-21500D01*
X53117Y-21188D01*
X53022Y-21214D01*
X52999Y-21280D01*
X52962Y-21191D01*
X52809Y-21038D01*
X52608Y-20954D01*
X52392Y-20954D01*
X52191Y-21037D01*
X52038Y-21190D01*
X52002Y-21275D01*
X51977Y-21214D01*
X51882Y-21188D01*
X51811Y-21258D01*
X51811Y-21117D01*
X51785Y-21022D01*
X51580Y-20949D01*
X51363Y-20960D01*
X51214Y-21022D01*
X51188Y-21117D01*
X51500Y-21429D01*
X51811Y-21117D01*
X51811Y-21258D01*
X51570Y-21500D01*
X51882Y-21811D01*
X51977Y-21785D01*
X52000Y-21719D01*
X52037Y-21808D01*
X52190Y-21961D01*
X52282Y-21999D01*
X52191Y-22037D01*
X52038Y-22190D01*
X52000Y-22282D01*
X51962Y-22191D01*
X51809Y-22038D01*
X51724Y-22002D01*
X51785Y-21977D01*
X51811Y-21882D01*
X51500Y-21570D01*
X51188Y-21882D01*
X51214Y-21977D01*
X51280Y-22000D01*
X51191Y-22037D01*
X51038Y-22190D01*
X51000Y-22282D01*
X50962Y-22191D01*
X50809Y-22038D01*
X50717Y-22000D01*
X50808Y-21962D01*
X50961Y-21809D01*
X50997Y-21724D01*
X51022Y-21785D01*
X51117Y-21811D01*
X51429Y-21500D01*
X51117Y-21188D01*
X51022Y-21214D01*
X50999Y-21280D01*
X50962Y-21191D01*
X50809Y-21038D01*
X50608Y-20954D01*
X50392Y-20954D01*
X50191Y-21037D01*
X50038Y-21190D01*
X50002Y-21275D01*
X49977Y-21214D01*
X49882Y-21188D01*
X49811Y-21258D01*
X49811Y-21117D01*
X49785Y-21022D01*
X49580Y-20949D01*
X49363Y-20960D01*
X49214Y-21022D01*
X49188Y-21117D01*
X49500Y-21429D01*
X49811Y-21117D01*
X49811Y-21258D01*
X49570Y-21500D01*
X49882Y-21811D01*
X49977Y-21785D01*
X50000Y-21719D01*
X50037Y-21808D01*
X50190Y-21961D01*
X50282Y-21999D01*
X50191Y-22037D01*
X50038Y-22190D01*
X50000Y-22282D01*
X49962Y-22191D01*
X49809Y-22038D01*
X49724Y-22002D01*
X49785Y-21977D01*
X49811Y-21882D01*
X49500Y-21570D01*
X49188Y-21882D01*
X49214Y-21977D01*
X49280Y-22000D01*
X49191Y-22037D01*
X49038Y-22190D01*
X49000Y-22282D01*
X48962Y-22191D01*
X48809Y-22038D01*
X48717Y-22000D01*
X48808Y-21962D01*
X48961Y-21809D01*
X48997Y-21724D01*
X49022Y-21785D01*
X49117Y-21811D01*
X49429Y-21500D01*
X49117Y-21188D01*
X49022Y-21214D01*
X48999Y-21280D01*
X48962Y-21191D01*
X48809Y-21038D01*
X48608Y-20954D01*
X48392Y-20954D01*
X48191Y-21037D01*
X48038Y-21190D01*
X48002Y-21275D01*
X47977Y-21214D01*
X47882Y-21188D01*
X47811Y-21258D01*
X47811Y-21117D01*
X47785Y-21022D01*
X47580Y-20949D01*
X47363Y-20960D01*
X47214Y-21022D01*
X47188Y-21117D01*
X47500Y-21429D01*
X47811Y-21117D01*
X47811Y-21258D01*
X47570Y-21500D01*
X47882Y-21811D01*
X47977Y-21785D01*
X48000Y-21719D01*
X48037Y-21808D01*
X48190Y-21961D01*
X48282Y-21999D01*
X48191Y-22037D01*
X48038Y-22190D01*
X48000Y-22282D01*
X47962Y-22191D01*
X47809Y-22038D01*
X47724Y-22002D01*
X47785Y-21977D01*
X47811Y-21882D01*
X47500Y-21570D01*
X47188Y-21882D01*
X47214Y-21977D01*
X47280Y-22000D01*
X47191Y-22037D01*
X47038Y-22190D01*
X47000Y-22282D01*
X46962Y-22191D01*
X46809Y-22038D01*
X46717Y-22000D01*
X46808Y-21962D01*
X46961Y-21809D01*
X46997Y-21724D01*
X47022Y-21785D01*
X47117Y-21811D01*
X47429Y-21500D01*
X47117Y-21188D01*
X47022Y-21214D01*
X46999Y-21280D01*
X46962Y-21191D01*
X46809Y-21038D01*
X46608Y-20954D01*
X46392Y-20954D01*
X46191Y-21037D01*
X46038Y-21190D01*
X46002Y-21275D01*
X45977Y-21214D01*
X45882Y-21188D01*
X45811Y-21258D01*
X45811Y-21117D01*
X45785Y-21022D01*
X45580Y-20949D01*
X45363Y-20960D01*
X45214Y-21022D01*
X45188Y-21117D01*
X45500Y-21429D01*
X45811Y-21117D01*
X45811Y-21258D01*
X45570Y-21500D01*
X45882Y-21811D01*
X45977Y-21785D01*
X46000Y-21719D01*
X46037Y-21808D01*
X46190Y-21961D01*
X46282Y-21999D01*
X46191Y-22037D01*
X46038Y-22190D01*
X46000Y-22282D01*
X45962Y-22191D01*
X45809Y-22038D01*
X45724Y-22002D01*
X45785Y-21977D01*
X45811Y-21882D01*
X45500Y-21570D01*
X45429Y-21641D01*
X45429Y-21500D01*
X45117Y-21188D01*
X45022Y-21214D01*
X45001Y-21273D01*
X44977Y-21214D01*
X44882Y-21188D01*
X44811Y-21258D01*
X44811Y-21117D01*
X44785Y-21022D01*
X44580Y-20949D01*
X44363Y-20960D01*
X44214Y-21022D01*
X44188Y-21117D01*
X44500Y-21429D01*
X44811Y-21117D01*
X44811Y-21258D01*
X44570Y-21500D01*
X44882Y-21811D01*
X44977Y-21785D01*
X44998Y-21726D01*
X45022Y-21785D01*
X45117Y-21811D01*
X45429Y-21500D01*
X45429Y-21641D01*
X45188Y-21882D01*
X45214Y-21977D01*
X45280Y-22000D01*
X45191Y-22037D01*
X45038Y-22190D01*
X45000Y-22282D01*
X44962Y-22191D01*
X44809Y-22038D01*
X44724Y-22002D01*
X44785Y-21977D01*
X44811Y-21882D01*
X44500Y-21570D01*
X44188Y-21882D01*
X44214Y-21977D01*
X44280Y-22000D01*
X44191Y-22037D01*
X44038Y-22190D01*
X44000Y-22282D01*
X43962Y-22191D01*
X43809Y-22038D01*
X43717Y-22000D01*
X43808Y-21962D01*
X43961Y-21809D01*
X43997Y-21724D01*
X44022Y-21785D01*
X44117Y-21811D01*
X44429Y-21500D01*
X44117Y-21188D01*
X44022Y-21214D01*
X43999Y-21280D01*
X43962Y-21191D01*
X43809Y-21038D01*
X43608Y-20954D01*
X43392Y-20954D01*
X43191Y-21037D01*
X43038Y-21190D01*
X43000Y-21282D01*
X42962Y-21191D01*
X42809Y-21038D01*
X42608Y-20954D01*
X42392Y-20954D01*
X42191Y-21037D01*
X42038Y-21190D01*
X41954Y-21391D01*
X41954Y-21607D01*
X42037Y-21808D01*
X42190Y-21961D01*
X42282Y-21999D01*
X42191Y-22037D01*
X42038Y-22190D01*
X41954Y-22391D01*
X41954Y-22607D01*
X42037Y-22808D01*
X42190Y-22961D01*
X42391Y-23045D01*
X42607Y-23045D01*
X42808Y-22962D01*
X42961Y-22809D01*
X42999Y-22717D01*
X43037Y-22808D01*
X43190Y-22961D01*
X43391Y-23045D01*
X43607Y-23045D01*
X43808Y-22962D01*
X43961Y-22809D01*
X43999Y-22717D01*
X44037Y-22808D01*
X44190Y-22961D01*
X44391Y-23045D01*
X44607Y-23045D01*
X44808Y-22962D01*
X44961Y-22809D01*
X44999Y-22717D01*
X45037Y-22808D01*
X45190Y-22961D01*
X45391Y-23045D01*
X45530Y-23045D01*
X45287Y-23287D01*
X45287Y-23287D01*
X44287Y-24287D01*
X44287Y-24287D01*
X42787Y-25787D01*
X42722Y-25885D01*
X42700Y-26000D01*
X42700Y-30500D01*
X42722Y-30614D01*
X42787Y-30712D01*
X43287Y-31212D01*
X43287Y-31212D01*
X43385Y-31277D01*
X43500Y-31300D01*
X46875Y-31300D01*
X47700Y-32124D01*
X47700Y-32533D01*
X47691Y-32537D01*
X47538Y-32690D01*
X47500Y-32782D01*
X47462Y-32691D01*
X47309Y-32538D01*
X47108Y-32454D01*
X46892Y-32454D01*
X46691Y-32537D01*
X46538Y-32690D01*
X46500Y-32782D01*
X46462Y-32691D01*
X46309Y-32538D01*
X46108Y-32454D01*
X45892Y-32454D01*
X45691Y-32537D01*
X45538Y-32690D01*
X45500Y-32782D01*
X45462Y-32691D01*
X45309Y-32538D01*
X45108Y-32454D01*
X44892Y-32454D01*
X44691Y-32537D01*
X44545Y-32683D01*
X44545Y-32655D01*
X44507Y-32563D01*
X44437Y-32492D01*
X44345Y-32454D01*
X44245Y-32454D01*
X43655Y-32454D01*
X43563Y-32492D01*
X43492Y-32562D01*
X43454Y-32654D01*
X43454Y-32754D01*
X43454Y-33344D01*
X43492Y-33436D01*
X43562Y-33507D01*
X43654Y-33545D01*
X43754Y-33545D01*
X44344Y-33545D01*
X44436Y-33507D01*
X44507Y-33437D01*
X44545Y-33345D01*
X44545Y-33316D01*
X44690Y-33461D01*
X44891Y-33545D01*
X45107Y-33545D01*
X45308Y-33462D01*
X45461Y-33309D01*
X45499Y-33217D01*
X45537Y-33308D01*
X45690Y-33461D01*
X45891Y-33545D01*
X46107Y-33545D01*
X46308Y-33462D01*
X46461Y-33309D01*
X46499Y-33217D01*
X46537Y-33308D01*
X46690Y-33461D01*
X46891Y-33545D01*
X47107Y-33545D01*
X47308Y-33462D01*
X47461Y-33309D01*
X47499Y-33217D01*
X47537Y-33308D01*
X47690Y-33461D01*
X47891Y-33545D01*
X48107Y-33545D01*
X48308Y-33462D01*
X48461Y-33309D01*
X48545Y-33108D01*
X48545Y-32892D01*
X48462Y-32691D01*
X48309Y-32538D01*
X48300Y-32534D01*
X48300Y-32000D01*
X48277Y-31885D01*
X48212Y-31787D01*
X48212Y-31787D01*
X47212Y-30787D01*
X47114Y-30722D01*
X47000Y-30700D01*
X43624Y-30700D01*
X43300Y-30375D01*
X43300Y-26124D01*
X44712Y-24712D01*
X44712Y-24712D01*
X44712Y-24712D01*
X45712Y-23712D01*
X45712Y-23712D01*
X45712Y-23712D01*
X46382Y-23041D01*
X46391Y-23045D01*
X46530Y-23045D01*
X43787Y-25787D01*
X43722Y-25885D01*
X43700Y-26000D01*
X43700Y-26533D01*
X43691Y-26537D01*
X43538Y-26690D01*
X43454Y-26891D01*
X43454Y-27107D01*
X43537Y-27308D01*
X43690Y-27461D01*
X43891Y-27545D01*
X44107Y-27545D01*
X44308Y-27462D01*
X44461Y-27309D01*
X44499Y-27217D01*
X44537Y-27308D01*
X44690Y-27461D01*
X44891Y-27545D01*
X45107Y-27545D01*
X45308Y-27462D01*
X45461Y-27309D01*
X45499Y-27217D01*
X45537Y-27308D01*
X45690Y-27461D01*
X45891Y-27545D01*
X46107Y-27545D01*
X46308Y-27462D01*
X46461Y-27309D01*
X46499Y-27217D01*
X46537Y-27308D01*
X46690Y-27461D01*
X46700Y-27465D01*
X46700Y-27500D01*
X46722Y-27614D01*
X46787Y-27712D01*
X47287Y-28212D01*
X47287Y-28212D01*
X47385Y-28277D01*
X47500Y-28300D01*
X48500Y-28300D01*
X48500Y-28299D01*
X48614Y-28277D01*
X48614Y-28277D01*
X48712Y-28212D01*
X49212Y-27712D01*
X49212Y-27712D01*
X49277Y-27614D01*
X49299Y-27500D01*
X49300Y-27500D01*
X49300Y-25124D01*
X49475Y-24949D01*
X49474Y-25103D01*
X49554Y-25297D01*
X49700Y-25442D01*
X49700Y-25500D01*
X49722Y-25614D01*
X49787Y-25712D01*
X51287Y-27212D01*
X51287Y-27212D01*
X51385Y-27277D01*
X51500Y-27300D01*
X54775Y-27300D01*
X54287Y-27787D01*
X54222Y-27885D01*
X54200Y-28000D01*
X54200Y-29000D01*
X54200Y-30028D01*
X54138Y-30090D01*
X54054Y-30291D01*
X54054Y-30507D01*
X54137Y-30708D01*
X54290Y-30861D01*
X54491Y-30945D01*
X54707Y-30945D01*
X54908Y-30862D01*
X55061Y-30709D01*
X55145Y-30508D01*
X55145Y-30292D01*
X55062Y-30091D01*
X54909Y-29938D01*
X54800Y-29892D01*
X54800Y-29000D01*
X54800Y-28124D01*
X55124Y-27800D01*
X57500Y-27800D01*
X57500Y-27799D01*
X57614Y-27777D01*
X57614Y-27777D01*
X57712Y-27712D01*
X58712Y-26712D01*
X58712Y-26712D01*
X58777Y-26614D01*
X58799Y-26500D01*
X58800Y-26500D01*
X58800Y-23045D01*
X58844Y-23045D01*
X58936Y-23007D01*
X59007Y-22937D01*
X59045Y-22845D01*
X59045Y-22745D01*
X59045Y-22155D01*
X59007Y-22063D01*
X58937Y-21992D01*
X58845Y-21954D01*
X58816Y-21954D01*
X58961Y-21809D01*
X59045Y-21608D01*
X59045Y-21392D01*
X59045Y-35230D01*
X57150Y-35230D01*
X57150Y-30480D01*
X57139Y-30263D01*
X57077Y-30114D01*
X56982Y-30088D01*
X56911Y-30158D01*
X56911Y-30017D01*
X56885Y-29922D01*
X56680Y-29849D01*
X56463Y-29860D01*
X56314Y-29922D01*
X56288Y-30017D01*
X56600Y-30329D01*
X56911Y-30017D01*
X56911Y-30158D01*
X56670Y-30400D01*
X56982Y-30711D01*
X57077Y-30685D01*
X57150Y-30480D01*
X57150Y-35230D01*
X56911Y-35230D01*
X56911Y-30782D01*
X56600Y-30470D01*
X56529Y-30541D01*
X56529Y-30400D01*
X56217Y-30088D01*
X56122Y-30114D01*
X56049Y-30319D01*
X56060Y-30536D01*
X56122Y-30685D01*
X56217Y-30711D01*
X56529Y-30400D01*
X56529Y-30541D01*
X56288Y-30782D01*
X56314Y-30877D01*
X56519Y-30950D01*
X56736Y-30939D01*
X56885Y-30877D01*
X56911Y-30782D01*
X56911Y-35230D01*
X56145Y-35230D01*
X56145Y-32292D01*
X56062Y-32091D01*
X55909Y-31938D01*
X55708Y-31854D01*
X55492Y-31854D01*
X55291Y-31937D01*
X55138Y-32090D01*
X55054Y-32291D01*
X55054Y-32507D01*
X55137Y-32708D01*
X55290Y-32861D01*
X55491Y-32945D01*
X55707Y-32945D01*
X55908Y-32862D01*
X56061Y-32709D01*
X56145Y-32508D01*
X56145Y-32292D01*
X56145Y-35230D01*
X41769Y-35230D01*
X41769Y-20769D01*
X59230Y-20769D01*
X59230Y-35230D01*
X59230Y-35230D01*
G37*
G54D16*
X59230Y-35230D02*
X59045Y-35230D01*
X59045Y-21392D01*
X58962Y-21191D01*
X58809Y-21038D01*
X58608Y-20954D01*
X58392Y-20954D01*
X58191Y-21037D01*
X58038Y-21190D01*
X58000Y-21282D01*
X57962Y-21191D01*
X57809Y-21038D01*
X57608Y-20954D01*
X57392Y-20954D01*
X57191Y-21037D01*
X57038Y-21190D01*
X57002Y-21275D01*
X56977Y-21214D01*
X56882Y-21188D01*
X56811Y-21258D01*
X56811Y-21117D01*
X56785Y-21022D01*
X56580Y-20949D01*
X56363Y-20960D01*
X56214Y-21022D01*
X56188Y-21117D01*
X56500Y-21429D01*
X56811Y-21117D01*
X56811Y-21258D01*
X56570Y-21500D01*
X56882Y-21811D01*
X56977Y-21785D01*
X57000Y-21719D01*
X57037Y-21808D01*
X57190Y-21961D01*
X57282Y-21999D01*
X57191Y-22037D01*
X57038Y-22190D01*
X57000Y-22282D01*
X56962Y-22191D01*
X56809Y-22038D01*
X56724Y-22002D01*
X56785Y-21977D01*
X56811Y-21882D01*
X56500Y-21570D01*
X56429Y-21641D01*
X56429Y-21500D01*
X56117Y-21188D01*
X56022Y-21214D01*
X56001Y-21273D01*
X55977Y-21214D01*
X55882Y-21188D01*
X55811Y-21258D01*
X55811Y-21117D01*
X55785Y-21022D01*
X55580Y-20949D01*
X55363Y-20960D01*
X55214Y-21022D01*
X55188Y-21117D01*
X55500Y-21429D01*
X55811Y-21117D01*
X55811Y-21258D01*
X55570Y-21500D01*
X55882Y-21811D01*
X55977Y-21785D01*
X55998Y-21726D01*
X56022Y-21785D01*
X56117Y-21811D01*
X56429Y-21500D01*
X56429Y-21641D01*
X56188Y-21882D01*
X56214Y-21977D01*
X56280Y-22000D01*
X56191Y-22037D01*
X56038Y-22190D01*
X56000Y-22282D01*
X55962Y-22191D01*
X55809Y-22038D01*
X55724Y-22002D01*
X55785Y-21977D01*
X55811Y-21882D01*
X55500Y-21570D01*
X55188Y-21882D01*
X55214Y-21977D01*
X55280Y-22000D01*
X55191Y-22037D01*
X55038Y-22190D01*
X55000Y-22282D01*
X54962Y-22191D01*
X54809Y-22038D01*
X54717Y-22000D01*
X54808Y-21962D01*
X54961Y-21809D01*
X54997Y-21724D01*
X55022Y-21785D01*
X55117Y-21811D01*
X55429Y-21500D01*
X55117Y-21188D01*
X55022Y-21214D01*
X54999Y-21280D01*
X54962Y-21191D01*
X54809Y-21038D01*
X54608Y-20954D01*
X54392Y-20954D01*
X54191Y-21037D01*
X54038Y-21190D01*
X54002Y-21275D01*
X53977Y-21214D01*
X53882Y-21188D01*
X53811Y-21258D01*
X53811Y-21117D01*
X53785Y-21022D01*
X53580Y-20949D01*
X53363Y-20960D01*
X53214Y-21022D01*
X53188Y-21117D01*
X53500Y-21429D01*
X53811Y-21117D01*
X53811Y-21258D01*
X53570Y-21500D01*
X53882Y-21811D01*
X53977Y-21785D01*
X54000Y-21719D01*
X54037Y-21808D01*
X54190Y-21961D01*
X54282Y-21999D01*
X54191Y-22037D01*
X54038Y-22190D01*
X54000Y-22282D01*
X53962Y-22191D01*
X53809Y-22038D01*
X53724Y-22002D01*
X53785Y-21977D01*
X53811Y-21882D01*
X53500Y-21570D01*
X53188Y-21882D01*
X53214Y-21977D01*
X53280Y-22000D01*
X53191Y-22037D01*
X53038Y-22190D01*
X53000Y-22282D01*
X52962Y-22191D01*
X52809Y-22038D01*
X52717Y-22000D01*
X52808Y-21962D01*
X52961Y-21809D01*
X52997Y-21724D01*
X53022Y-21785D01*
X53117Y-21811D01*
X53429Y-21500D01*
X53117Y-21188D01*
X53022Y-21214D01*
X52999Y-21280D01*
X52962Y-21191D01*
X52809Y-21038D01*
X52608Y-20954D01*
X52392Y-20954D01*
X52191Y-21037D01*
X52038Y-21190D01*
X52002Y-21275D01*
X51977Y-21214D01*
X51882Y-21188D01*
X51811Y-21258D01*
X51811Y-21117D01*
X51785Y-21022D01*
X51580Y-20949D01*
X51363Y-20960D01*
X51214Y-21022D01*
X51188Y-21117D01*
X51500Y-21429D01*
X51811Y-21117D01*
X51811Y-21258D01*
X51570Y-21500D01*
X51882Y-21811D01*
X51977Y-21785D01*
X52000Y-21719D01*
X52037Y-21808D01*
X52190Y-21961D01*
X52282Y-21999D01*
X52191Y-22037D01*
X52038Y-22190D01*
X52000Y-22282D01*
X51962Y-22191D01*
X51809Y-22038D01*
X51724Y-22002D01*
X51785Y-21977D01*
X51811Y-21882D01*
X51500Y-21570D01*
X51188Y-21882D01*
X51214Y-21977D01*
X51280Y-22000D01*
X51191Y-22037D01*
X51038Y-22190D01*
X51000Y-22282D01*
X50962Y-22191D01*
X50809Y-22038D01*
X50717Y-22000D01*
X50808Y-21962D01*
X50961Y-21809D01*
X50997Y-21724D01*
X51022Y-21785D01*
X51117Y-21811D01*
X51429Y-21500D01*
X51117Y-21188D01*
X51022Y-21214D01*
X50999Y-21280D01*
X50962Y-21191D01*
X50809Y-21038D01*
X50608Y-20954D01*
X50392Y-20954D01*
X50191Y-21037D01*
X50038Y-21190D01*
X50002Y-21275D01*
X49977Y-21214D01*
X49882Y-21188D01*
X49811Y-21258D01*
X49811Y-21117D01*
X49785Y-21022D01*
X49580Y-20949D01*
X49363Y-20960D01*
X49214Y-21022D01*
X49188Y-21117D01*
X49500Y-21429D01*
X49811Y-21117D01*
X49811Y-21258D01*
X49570Y-21500D01*
X49882Y-21811D01*
X49977Y-21785D01*
X50000Y-21719D01*
X50037Y-21808D01*
X50190Y-21961D01*
X50282Y-21999D01*
X50191Y-22037D01*
X50038Y-22190D01*
X50000Y-22282D01*
X49962Y-22191D01*
X49809Y-22038D01*
X49724Y-22002D01*
X49785Y-21977D01*
X49811Y-21882D01*
X49500Y-21570D01*
X49188Y-21882D01*
X49214Y-21977D01*
X49280Y-22000D01*
X49191Y-22037D01*
X49038Y-22190D01*
X49000Y-22282D01*
X48962Y-22191D01*
X48809Y-22038D01*
X48717Y-22000D01*
X48808Y-21962D01*
X48961Y-21809D01*
X48997Y-21724D01*
X49022Y-21785D01*
X49117Y-21811D01*
X49429Y-21500D01*
X49117Y-21188D01*
X49022Y-21214D01*
X48999Y-21280D01*
X48962Y-21191D01*
X48809Y-21038D01*
X48608Y-20954D01*
X48392Y-20954D01*
X48191Y-21037D01*
X48038Y-21190D01*
X48002Y-21275D01*
X47977Y-21214D01*
X47882Y-21188D01*
X47811Y-21258D01*
X47811Y-21117D01*
X47785Y-21022D01*
X47580Y-20949D01*
X47363Y-20960D01*
X47214Y-21022D01*
X47188Y-21117D01*
X47500Y-21429D01*
X47811Y-21117D01*
X47811Y-21258D01*
X47570Y-21500D01*
X47882Y-21811D01*
X47977Y-21785D01*
X48000Y-21719D01*
X48037Y-21808D01*
X48190Y-21961D01*
X48282Y-21999D01*
X48191Y-22037D01*
X48038Y-22190D01*
X48000Y-22282D01*
X47962Y-22191D01*
X47809Y-22038D01*
X47724Y-22002D01*
X47785Y-21977D01*
X47811Y-21882D01*
X47500Y-21570D01*
X47188Y-21882D01*
X47214Y-21977D01*
X47280Y-22000D01*
X47191Y-22037D01*
X47038Y-22190D01*
X47000Y-22282D01*
X46962Y-22191D01*
X46809Y-22038D01*
X46717Y-22000D01*
X46808Y-21962D01*
X46961Y-21809D01*
X46997Y-21724D01*
X47022Y-21785D01*
X47117Y-21811D01*
X47429Y-21500D01*
X47117Y-21188D01*
X47022Y-21214D01*
X46999Y-21280D01*
X46962Y-21191D01*
X46809Y-21038D01*
X46608Y-20954D01*
X46392Y-20954D01*
X46191Y-21037D01*
X46038Y-21190D01*
X46002Y-21275D01*
X45977Y-21214D01*
X45882Y-21188D01*
X45811Y-21258D01*
X45811Y-21117D01*
X45785Y-21022D01*
X45580Y-20949D01*
X45363Y-20960D01*
X45214Y-21022D01*
X45188Y-21117D01*
X45500Y-21429D01*
X45811Y-21117D01*
X45811Y-21258D01*
X45570Y-21500D01*
X45882Y-21811D01*
X45977Y-21785D01*
X46000Y-21719D01*
X46037Y-21808D01*
X46190Y-21961D01*
X46282Y-21999D01*
X46191Y-22037D01*
X46038Y-22190D01*
X46000Y-22282D01*
X45962Y-22191D01*
X45809Y-22038D01*
X45724Y-22002D01*
X45785Y-21977D01*
X45811Y-21882D01*
X45500Y-21570D01*
X45429Y-21641D01*
X45429Y-21500D01*
X45117Y-21188D01*
X45022Y-21214D01*
X45001Y-21273D01*
X44977Y-21214D01*
X44882Y-21188D01*
X44811Y-21258D01*
X44811Y-21117D01*
X44785Y-21022D01*
X44580Y-20949D01*
X44363Y-20960D01*
X44214Y-21022D01*
X44188Y-21117D01*
X44500Y-21429D01*
X44811Y-21117D01*
X44811Y-21258D01*
X44570Y-21500D01*
X44882Y-21811D01*
X44977Y-21785D01*
X44998Y-21726D01*
X45022Y-21785D01*
X45117Y-21811D01*
X45429Y-21500D01*
X45429Y-21641D01*
X45188Y-21882D01*
X45214Y-21977D01*
X45280Y-22000D01*
X45191Y-22037D01*
X45038Y-22190D01*
X45000Y-22282D01*
X44962Y-22191D01*
X44809Y-22038D01*
X44724Y-22002D01*
X44785Y-21977D01*
X44811Y-21882D01*
X44500Y-21570D01*
X44188Y-21882D01*
X44214Y-21977D01*
X44280Y-22000D01*
X44191Y-22037D01*
X44038Y-22190D01*
X44000Y-22282D01*
X43962Y-22191D01*
X43809Y-22038D01*
X43717Y-22000D01*
X43808Y-21962D01*
X43961Y-21809D01*
X43997Y-21724D01*
X44022Y-21785D01*
X44117Y-21811D01*
X44429Y-21500D01*
X44117Y-21188D01*
X44022Y-21214D01*
X43999Y-21280D01*
X43962Y-21191D01*
X43809Y-21038D01*
X43608Y-20954D01*
X43392Y-20954D01*
X43191Y-21037D01*
X43038Y-21190D01*
X43000Y-21282D01*
X42962Y-21191D01*
X42809Y-21038D01*
X42608Y-20954D01*
X42392Y-20954D01*
X42191Y-21037D01*
X42038Y-21190D01*
X41954Y-21391D01*
X41954Y-21607D01*
X42037Y-21808D01*
X42190Y-21961D01*
X42282Y-21999D01*
X42191Y-22037D01*
X42038Y-22190D01*
X41954Y-22391D01*
X41954Y-22607D01*
X42037Y-22808D01*
X42190Y-22961D01*
X42391Y-23045D01*
X42607Y-23045D01*
X42808Y-22962D01*
X42961Y-22809D01*
X42999Y-22717D01*
X43037Y-22808D01*
X43190Y-22961D01*
X43391Y-23045D01*
X43607Y-23045D01*
X43808Y-22962D01*
X43961Y-22809D01*
X43999Y-22717D01*
X44037Y-22808D01*
X44190Y-22961D01*
X44391Y-23045D01*
X44607Y-23045D01*
X44808Y-22962D01*
X44961Y-22809D01*
X44999Y-22717D01*
X45037Y-22808D01*
X45190Y-22961D01*
X45391Y-23045D01*
X45530Y-23045D01*
X45287Y-23287D01*
X45287Y-23287D01*
X44287Y-24287D01*
X44287Y-24287D01*
X42787Y-25787D01*
X42722Y-25885D01*
X42700Y-26000D01*
X42700Y-30500D01*
X42722Y-30614D01*
X42787Y-30712D01*
X43287Y-31212D01*
X43287Y-31212D01*
X43385Y-31277D01*
X43500Y-31300D01*
X46875Y-31300D01*
X47700Y-32124D01*
X47700Y-32533D01*
X47691Y-32537D01*
X47538Y-32690D01*
X47500Y-32782D01*
X47462Y-32691D01*
X47309Y-32538D01*
X47108Y-32454D01*
X46892Y-32454D01*
X46691Y-32537D01*
X46538Y-32690D01*
X46500Y-32782D01*
X46462Y-32691D01*
X46309Y-32538D01*
X46108Y-32454D01*
X45892Y-32454D01*
X45691Y-32537D01*
X45538Y-32690D01*
X45500Y-32782D01*
X45462Y-32691D01*
X45309Y-32538D01*
X45108Y-32454D01*
X44892Y-32454D01*
X44691Y-32537D01*
X44545Y-32683D01*
X44545Y-32655D01*
X44507Y-32563D01*
X44437Y-32492D01*
X44345Y-32454D01*
X44245Y-32454D01*
X43655Y-32454D01*
X43563Y-32492D01*
X43492Y-32562D01*
X43454Y-32654D01*
X43454Y-32754D01*
X43454Y-33344D01*
X43492Y-33436D01*
X43562Y-33507D01*
X43654Y-33545D01*
X43754Y-33545D01*
X44344Y-33545D01*
X44436Y-33507D01*
X44507Y-33437D01*
X44545Y-33345D01*
X44545Y-33316D01*
X44690Y-33461D01*
X44891Y-33545D01*
X45107Y-33545D01*
X45308Y-33462D01*
X45461Y-33309D01*
X45499Y-33217D01*
X45537Y-33308D01*
X45690Y-33461D01*
X45891Y-33545D01*
X46107Y-33545D01*
X46308Y-33462D01*
X46461Y-33309D01*
X46499Y-33217D01*
X46537Y-33308D01*
X46690Y-33461D01*
X46891Y-33545D01*
X47107Y-33545D01*
X47308Y-33462D01*
X47461Y-33309D01*
X47499Y-33217D01*
X47537Y-33308D01*
X47690Y-33461D01*
X47891Y-33545D01*
X48107Y-33545D01*
X48308Y-33462D01*
X48461Y-33309D01*
X48545Y-33108D01*
X48545Y-32892D01*
X48462Y-32691D01*
X48309Y-32538D01*
X48300Y-32534D01*
X48300Y-32000D01*
X48277Y-31885D01*
X48212Y-31787D01*
X48212Y-31787D01*
X47212Y-30787D01*
X47114Y-30722D01*
X47000Y-30700D01*
X43624Y-30700D01*
X43300Y-30375D01*
X43300Y-26124D01*
X44712Y-24712D01*
X44712Y-24712D01*
X44712Y-24712D01*
X45712Y-23712D01*
X45712Y-23712D01*
X45712Y-23712D01*
X46382Y-23041D01*
X46391Y-23045D01*
X46530Y-23045D01*
X43787Y-25787D01*
X43722Y-25885D01*
X43700Y-26000D01*
X43700Y-26533D01*
X43691Y-26537D01*
X43538Y-26690D01*
X43454Y-26891D01*
X43454Y-27107D01*
X43537Y-27308D01*
X43690Y-27461D01*
X43891Y-27545D01*
X44107Y-27545D01*
X44308Y-27462D01*
X44461Y-27309D01*
X44499Y-27217D01*
X44537Y-27308D01*
X44690Y-27461D01*
X44891Y-27545D01*
X45107Y-27545D01*
X45308Y-27462D01*
X45461Y-27309D01*
X45499Y-27217D01*
X45537Y-27308D01*
X45690Y-27461D01*
X45891Y-27545D01*
X46107Y-27545D01*
X46308Y-27462D01*
X46461Y-27309D01*
X46499Y-27217D01*
X46537Y-27308D01*
X46690Y-27461D01*
X46700Y-27465D01*
X46700Y-27500D01*
X46722Y-27614D01*
X46787Y-27712D01*
X47287Y-28212D01*
X47287Y-28212D01*
X47385Y-28277D01*
X47500Y-28300D01*
X48500Y-28300D01*
X48500Y-28299D01*
X48614Y-28277D01*
X48614Y-28277D01*
X48712Y-28212D01*
X49212Y-27712D01*
X49212Y-27712D01*
X49277Y-27614D01*
X49299Y-27500D01*
X49300Y-27500D01*
X49300Y-25124D01*
X49475Y-24949D01*
X49474Y-25103D01*
X49554Y-25297D01*
X49700Y-25442D01*
X49700Y-25500D01*
X49722Y-25614D01*
X49787Y-25712D01*
X51287Y-27212D01*
X51287Y-27212D01*
X51385Y-27277D01*
X51500Y-27300D01*
X54775Y-27300D01*
X54287Y-27787D01*
X54222Y-27885D01*
X54200Y-28000D01*
X54200Y-29000D01*
X54200Y-30028D01*
X54138Y-30090D01*
X54054Y-30291D01*
X54054Y-30507D01*
X54137Y-30708D01*
X54290Y-30861D01*
X54491Y-30945D01*
X54707Y-30945D01*
X54908Y-30862D01*
X55061Y-30709D01*
X55145Y-30508D01*
X55145Y-30292D01*
X55062Y-30091D01*
X54909Y-29938D01*
X54800Y-29892D01*
X54800Y-29000D01*
X54800Y-28124D01*
X55124Y-27800D01*
X57500Y-27800D01*
X57500Y-27799D01*
X57614Y-27777D01*
X57614Y-27777D01*
X57712Y-27712D01*
X58712Y-26712D01*
X58712Y-26712D01*
X58777Y-26614D01*
X58799Y-26500D01*
X58800Y-26500D01*
X58800Y-23045D01*
X58844Y-23045D01*
X58936Y-23007D01*
X59007Y-22937D01*
X59045Y-22845D01*
X59045Y-22745D01*
X59045Y-22155D01*
X59007Y-22063D01*
X58937Y-21992D01*
X58845Y-21954D01*
X58816Y-21954D01*
X58961Y-21809D01*
X59045Y-21608D01*
X59045Y-21392D01*
X59045Y-35230D01*
X57150Y-35230D01*
X57150Y-30480D01*
X57139Y-30263D01*
X57077Y-30114D01*
X56982Y-30088D01*
X56911Y-30158D01*
X56911Y-30017D01*
X56885Y-29922D01*
X56680Y-29849D01*
X56463Y-29860D01*
X56314Y-29922D01*
X56288Y-30017D01*
X56600Y-30329D01*
X56911Y-30017D01*
X56911Y-30158D01*
X56670Y-30400D01*
X56982Y-30711D01*
X57077Y-30685D01*
X57150Y-30480D01*
X57150Y-35230D01*
X56911Y-35230D01*
X56911Y-30782D01*
X56600Y-30470D01*
X56529Y-30541D01*
X56529Y-30400D01*
X56217Y-30088D01*
X56122Y-30114D01*
X56049Y-30319D01*
X56060Y-30536D01*
X56122Y-30685D01*
X56217Y-30711D01*
X56529Y-30400D01*
X56529Y-30541D01*
X56288Y-30782D01*
X56314Y-30877D01*
X56519Y-30950D01*
X56736Y-30939D01*
X56885Y-30877D01*
X56911Y-30782D01*
X56911Y-35230D01*
X56145Y-35230D01*
X56145Y-32292D01*
X56062Y-32091D01*
X55909Y-31938D01*
X55708Y-31854D01*
X55492Y-31854D01*
X55291Y-31937D01*
X55138Y-32090D01*
X55054Y-32291D01*
X55054Y-32507D01*
X55137Y-32708D01*
X55290Y-32861D01*
X55491Y-32945D01*
X55707Y-32945D01*
X55908Y-32862D01*
X56061Y-32709D01*
X56145Y-32508D01*
X56145Y-32292D01*
X56145Y-35230D01*
X41769Y-35230D01*
X41769Y-20769D01*
X59230Y-20769D01*
X59230Y-35230D01*
M02*
