G04 (created by PCBNEW (2013-07-07 BZR 4022)-stable) date 2/24/2014 11:30:39 AM*
%MOIN*%
G04 Gerber Fmt 3.4, Leading zero omitted, Abs format*
%FSLAX34Y34*%
G01*
G70*
G90*
G04 APERTURE LIST*
%ADD10C,0.00590551*%
%ADD11C,0.008*%
%ADD12C,0.005*%
%ADD13C,0.0075*%
G04 APERTURE END LIST*
G54D10*
G54D11*
X53000Y-25000D02*
X52800Y-25000D01*
X50000Y-25000D02*
X50200Y-25000D01*
X50200Y-25000D02*
X50200Y-25400D01*
X50200Y-25400D02*
X52800Y-25400D01*
X52800Y-25400D02*
X52800Y-24600D01*
X52800Y-24600D02*
X50200Y-24600D01*
X50200Y-24600D02*
X50200Y-25000D01*
X52800Y-25200D02*
X52600Y-25400D01*
G54D10*
X57600Y-29400D02*
X57600Y-33400D01*
X53600Y-29400D02*
X53600Y-33400D01*
X53600Y-29400D02*
X57600Y-29400D01*
X55600Y-33400D02*
X57600Y-33400D01*
X53600Y-33400D02*
X55600Y-33400D01*
X43500Y-26500D02*
X43500Y-33500D01*
X43500Y-33500D02*
X48500Y-33500D01*
X48500Y-33500D02*
X48500Y-26500D01*
X46000Y-26500D02*
X43500Y-26500D01*
X46000Y-26500D02*
X48500Y-26500D01*
G54D12*
X56501Y-25500D02*
G75*
G03X56501Y-25500I-1001J0D01*
G74*
G01*
G54D10*
X41900Y-20850D02*
X41900Y-23100D01*
X41900Y-23100D02*
X59100Y-23100D01*
X59100Y-23100D02*
X59100Y-20850D01*
X59100Y-20850D02*
X41900Y-20850D01*
G54D11*
X52434Y-24159D02*
X52303Y-23971D01*
X52209Y-24159D02*
X52209Y-23765D01*
X52359Y-23765D01*
X52396Y-23784D01*
X52415Y-23803D01*
X52434Y-23840D01*
X52434Y-23896D01*
X52415Y-23934D01*
X52396Y-23953D01*
X52359Y-23971D01*
X52209Y-23971D01*
X52809Y-24159D02*
X52584Y-24159D01*
X52696Y-24159D02*
X52696Y-23765D01*
X52659Y-23821D01*
X52621Y-23859D01*
X52584Y-23878D01*
X52453Y-26159D02*
X52228Y-26159D01*
X52340Y-26159D02*
X52340Y-25765D01*
X52303Y-25821D01*
X52265Y-25859D01*
X52228Y-25878D01*
X52621Y-26159D02*
X52621Y-25765D01*
X52659Y-26009D02*
X52771Y-26159D01*
X52771Y-25896D02*
X52621Y-26046D01*
G54D10*
X56865Y-34059D02*
X56734Y-33871D01*
X56640Y-34059D02*
X56640Y-33665D01*
X56790Y-33665D01*
X56828Y-33684D01*
X56846Y-33703D01*
X56865Y-33740D01*
X56865Y-33796D01*
X56846Y-33834D01*
X56828Y-33853D01*
X56790Y-33871D01*
X56640Y-33871D01*
X56978Y-33665D02*
X57109Y-34059D01*
X57240Y-33665D01*
X57578Y-34059D02*
X57353Y-34059D01*
X57465Y-34059D02*
X57465Y-33665D01*
X57428Y-33721D01*
X57390Y-33759D01*
X57353Y-33778D01*
X46918Y-33565D02*
X47181Y-33565D01*
X47012Y-33959D01*
X47312Y-33940D02*
X47368Y-33959D01*
X47462Y-33959D01*
X47500Y-33940D01*
X47518Y-33921D01*
X47537Y-33884D01*
X47537Y-33846D01*
X47518Y-33809D01*
X47500Y-33790D01*
X47462Y-33771D01*
X47387Y-33753D01*
X47350Y-33734D01*
X47331Y-33715D01*
X47312Y-33678D01*
X47312Y-33640D01*
X47331Y-33603D01*
X47350Y-33584D01*
X47387Y-33565D01*
X47481Y-33565D01*
X47537Y-33584D01*
X47706Y-33753D02*
X47837Y-33753D01*
X47893Y-33959D02*
X47706Y-33959D01*
X47706Y-33565D01*
X47893Y-33565D01*
X48268Y-33584D02*
X48231Y-33565D01*
X48174Y-33565D01*
X48118Y-33584D01*
X48081Y-33621D01*
X48062Y-33659D01*
X48043Y-33734D01*
X48043Y-33790D01*
X48062Y-33865D01*
X48081Y-33903D01*
X48118Y-33940D01*
X48174Y-33959D01*
X48212Y-33959D01*
X48268Y-33940D01*
X48287Y-33921D01*
X48287Y-33790D01*
X48212Y-33790D01*
X48662Y-33959D02*
X48437Y-33959D01*
X48549Y-33959D02*
X48549Y-33565D01*
X48512Y-33621D01*
X48474Y-33659D01*
X48437Y-33678D01*
G54D12*
X54350Y-26492D02*
X54335Y-26507D01*
X54292Y-26521D01*
X54264Y-26521D01*
X54221Y-26507D01*
X54192Y-26478D01*
X54178Y-26450D01*
X54164Y-26392D01*
X54164Y-26350D01*
X54178Y-26292D01*
X54192Y-26264D01*
X54221Y-26235D01*
X54264Y-26221D01*
X54292Y-26221D01*
X54335Y-26235D01*
X54350Y-26250D01*
X54635Y-26521D02*
X54464Y-26521D01*
X54550Y-26521D02*
X54550Y-26221D01*
X54521Y-26264D01*
X54492Y-26292D01*
X54464Y-26307D01*
X56532Y-26521D02*
X56389Y-26521D01*
X56460Y-26521D02*
X56460Y-26221D01*
X56436Y-26264D01*
X56413Y-26292D01*
X56389Y-26307D01*
X56686Y-26221D02*
X56710Y-26221D01*
X56734Y-26235D01*
X56746Y-26250D01*
X56758Y-26278D01*
X56770Y-26335D01*
X56770Y-26407D01*
X56758Y-26464D01*
X56746Y-26492D01*
X56734Y-26507D01*
X56710Y-26521D01*
X56686Y-26521D01*
X56663Y-26507D01*
X56651Y-26492D01*
X56639Y-26464D01*
X56627Y-26407D01*
X56627Y-26335D01*
X56639Y-26278D01*
X56651Y-26250D01*
X56663Y-26235D01*
X56686Y-26221D01*
X56984Y-26321D02*
X56984Y-26521D01*
X56877Y-26321D02*
X56877Y-26478D01*
X56889Y-26507D01*
X56913Y-26521D01*
X56948Y-26521D01*
X56972Y-26507D01*
X56984Y-26492D01*
X57186Y-26364D02*
X57103Y-26364D01*
X57103Y-26521D02*
X57103Y-26221D01*
X57222Y-26221D01*
G54D13*
X55507Y-24714D02*
X55507Y-24485D01*
X55621Y-24600D02*
X55392Y-24600D01*
G54D11*
M02*
